<?xml version="1.0" encoding="UTF-8"?> <svg xmlns="http://www.w3.org/2000/svg" width="183" height="40" viewBox="0 0 183 40" fill="none"><g clip-path="url(#clip0)"><path d="M66.6 2.60012C66.6 3.30012 66.3 4.10012 65.8 4.60012C65.3 5.10012 64.6 5.40012 63.9 5.40012C63.2 5.40012 62.4 5.20012 61.9 4.60012C61.4 4.10012 61.1 3.30012 61.1 2.60012C61.1 1.90012 61.4 1.20012 61.9 0.700117C62.4 0.200117 63.2 -0.0998828 63.9 0.000117203C64.6 0.000117203 65.3 0.200117 65.8 0.700117C66.3 1.20012 66.6 1.90012 66.6 2.60012Z" fill="#57B6B2"></path><path d="M21.5 27.0001C21.5 27.9001 21.2 28.7001 20.5 29.4001C19.9 30.0001 19.1 30.4001 18.2 30.4001C17.3 30.4001 16.5 30.1001 15.8 29.5001C15.1 28.9001 14.8 28.0001 14.9 27.1001C14.9 26.2001 15.2 25.4001 15.8 24.8001C16.5 24.2001 17.4 23.9001 18.2 23.9001C19 23.9001 19.9 24.2001 20.5 24.8001C21.2 25.3001 21.5 26.2001 21.5 27.0001Z" fill="#57B6B2"></path><path d="M56.4 15.1001C56.4 15.7001 56.2 16.3001 55.8 16.7001C55.4 17.1001 54.9 17.3001 54.3 17.3001C52.8 17.3001 52.1 16.6001 52.1 15.3001C52.1 14.9001 52.2 14.5001 52.4 14.1001C52.5 13.8001 52.6 13.4001 52.7 13.1001C52.7 12.6001 52.5 12.1001 52.1 11.7001C51.7 11.3001 51.2 11.1001 50.6 11.1001C48 11.1001 46.8 13.9001 46.8 19.6001C46.8 22.9001 47.4 25.2001 48.5 26.6001C49.3 27.6001 50.4 28.2001 51.7 28.2001C53 28.2001 54.4 27.3001 55.7 25.6001C55.9 25.4001 56 25.3001 56.2 25.3001C56.4 25.3001 56.4 25.4001 56.4 25.5001C56.4 26.0001 55.9 26.8001 54.9 27.7001C53.5 29.0001 51.6 29.8001 49.7 29.7001C47.3 29.7001 44.9 28.8001 43.2 27.0001C41.4 25.3001 40.5 22.9001 40.5 20.4001C40.5 17.8001 41.5 15.2001 43.3 13.3001C45.1 11.4001 47.6 10.4001 50.2 10.4001C51.8 10.3001 53.3 10.8001 54.7 11.6001C55.7 12.6001 56.4 13.8001 56.4 15.1001Z" fill="#3D3935"></path><path d="M69.6 29.2002C69.6 29.4002 69.5 29.5002 69.2 29.5002H58.6C58.3 29.5002 58.1 29.4002 58.1 29.2002C58.1 29.0002 58.4 29.0002 59.1 29.0002C59.7 29.1002 60.3 28.9002 60.8 28.7002C61 28.2002 61.1 27.6002 61 27.0002V14.9002C61.1 14.3002 61 13.6002 60.7 13.0002C60.5 12.8002 60 12.7002 59 12.7002C58.7 12.7002 58.3 12.7002 58 12.7002C57.9 12.7002 57.8 12.6002 57.8 12.4002C57.8 12.2002 58 12.1002 58.4 12.1002C61.1 12.1002 63.8 11.7002 66.3 10.7002C66.3 11.0002 66.4 12.0002 66.5 13.5002V26.7002C66.5 27.8002 66.6 28.5002 66.8 28.7002C67.5 29.0002 68.2 29.1002 69 29.0002C69.5 28.9002 69.6 29.0002 69.6 29.2002Z" fill="#3D3935"></path><path d="M88.6 24.3001C88.5 25.2001 88.1 26.1001 87.5 26.7001C86.1 28.7001 83.8 30.0001 81.4 29.9001C78.8 30.0001 76.3 29.0001 74.4 27.2001C72.6 25.4001 71.6 22.9001 71.7 20.3001C71.6 17.7001 72.6 15.3001 74.4 13.4001C76.1 11.6001 78.5 10.6001 81 10.6001C82.6 10.6001 84.2 11.0001 85.6 11.8001C87 12.6001 88 14.0001 88.4 15.5001C88.5 16.1001 88.6 16.7001 88.6 17.3001C88 17.4001 85.4 17.4001 80.8 17.5001C80.1 17.5001 79.2 17.5001 78.1 17.6001C78 18.6001 78 19.5001 78 20.2001C78 23.5001 78.7 25.8001 80.1 27.2001C80.9 28.0001 82 28.4001 83.1 28.4001C84.1 28.4001 85.1 28.0001 85.9 27.4001C86.8 26.7001 87.5 25.8001 88 24.8001C88.2 24.3001 88.4 24.0001 88.6 24.0001C88.8 24.0001 88.6 24.2001 88.6 24.3001ZM83.2 17.0001C83.3 15.5001 83.1 14.0001 82.7 12.5001C82.5 11.7001 81.7 11.2001 80.9 11.2001C79.2 11.2001 78.2 13.1001 77.9 16.9001H83.2V17.0001Z" fill="#3D3935"></path><path d="M112.8 39.7001C112.8 39.9001 112.6 40 112.3 40H108.8L106.6 39.9001C105.2 39.9001 104.2 39.8 103.8 39.8C102.9 39.8 101.9 39.8001 101 39.9001H100.7C100.5 39.9001 100.3 39.8001 100.3 39.7001C100.3 39.6001 100.4 39.3 100.7 39.3C101.7 39.4 102.6 39.3 103.6 39C103.8 38.8 103.9 37.5 103.9 35.1V28C102.8 29.3 101.1 30 99.4 30C97.1 30 94.9 29.1 93.3 27.3C91.7 25.5 90.8 23.2 90.8 20.8C90.7 18.1 91.7 15.5001 93.6 13.6001C95.6 11.7001 98.2 10.7 100.9 10.8C101.9 10.8 102.9 10.9 103.9 11.2C104.8 11.5 105.7 11.7001 106.6 11.8001C107.4 11.8001 108.3 11.5 108.9 11C109 10.9 109.1 10.9 109.2 10.9C109.3 10.9 109.4 11.3001 109.4 12.3001V37.7001C109.4 38.5001 109.5 39.0001 109.7 39.2001C109.9 39.4001 110.4 39.5 111.4 39.5C112.4 39.5 112.8 39.5001 112.8 39.7001ZM104 19.7001V16.9C104 14.2 103.8 12.6001 103.4 12.1001C102.9 11.5001 102.2 11.2 101.5 11.3C100.1 11.2 98.8 12.0001 98.2 13.3001C97.5 14.6 97.2 16.9 97.2 20.1C97.2 26.1 98.4 29 100.9 29C102 29 103 28.3 103.5 27.4C103.9 26.2 104.1 24.9 104 23.6V19.7001Z" fill="#3D3935"></path><path d="M131.2 11.5002C131.2 11.6002 130.9 11.7002 130.2 11.8002C129.6 11.8002 129.1 11.9002 128.6 12.3002C128.1 13.0002 127.7 13.9002 127.4 14.7002L125.6 19.8002L122.2 29.1002C122 29.7002 121.7 30.1002 121.4 30.1002C121.1 30.1002 120.7 29.5002 120.2 28.2002C119.7 26.9002 117.8 22.5002 114.7 14.9002C114.1 13.5002 113.8 12.7002 113.7 12.5002C113.5 12.1002 112.8 11.9002 111.8 11.9002C111.4 11.9002 111.1 11.8002 111.1 11.6002C111.1 11.4002 111.3 11.3002 111.6 11.3002C111.8 11.3002 112 11.3002 112.3 11.3002C113.9 11.5002 115.4 11.5002 117 11.4002H121.2C121.4 11.3002 121.6 11.3002 121.9 11.3002C122.2 11.3002 122.4 11.4002 122.4 11.6002C122.4 11.8002 121.8 11.8002 120.6 11.9002C120.3 11.9002 120.1 12.1002 120.1 12.3002C120.1 12.3002 120.1 12.3002 120.1 12.4002C120.4 13.9002 120.9 15.3002 121.5 16.7002C122.4 19.2002 123.3 21.4002 124 23.1002C126.4 16.7002 127.6 13.2002 127.6 12.6002C127.6 12.1002 127.1 11.8002 126 11.9002C125.3 11.9002 124.9 11.8002 124.9 11.6002C124.9 11.4002 125 11.3002 125.2 11.3002L127.1 11.4002C127.5 11.3002 127.9 11.3002 128.2 11.3002H131C131.1 11.2002 131.2 11.3002 131.2 11.5002Z" fill="#3D3935"></path><path d="M0.199997 5.2002V34.7002H29.7V5.2002H0.199997ZM27.1 7.8002V16.0002C26.5 14.5002 25.4 13.1002 24 12.3002C21.5 10.7002 18.6 9.9002 15.7 10.0002C10.8 9.9002 6.2 11.8002 2.8 15.3002V7.8002H27.1ZM9.7 32.1002C9.5 30.3002 9.4 28.6002 9.4 26.8002C9.4 16.2002 11.8 10.9002 16.5 10.9002C17.5 10.9002 18.5 11.3002 19.2 12.0002C19.9 12.6002 20.3 13.6002 20.3 14.6002C20.2 15.2002 20.1 15.9002 19.8 16.4002C19.5 17.1002 19.3 17.9002 19.3 18.6002C19.3 21.1002 20.7 22.3002 23.4 22.3002C24.5 22.3002 25.5 21.9002 26.2 21.1002C26.5 20.7002 26.8 20.3002 27 19.9002V32.1002H9.7V32.1002Z" fill="#3D3935"></path><path d="M137.43 14.1818H136.97V9.86644H137.43V14.1818Z" fill="#3D3935"></path><path d="M138.867 14.1818H138.407V11.1422H138.867V14.1818ZM138.368 10.3185C138.368 10.2131 138.394 10.1364 138.445 10.0883C138.497 10.0384 138.562 10.0134 138.64 10.0134C138.713 10.0134 138.777 10.0384 138.831 10.0883C138.885 10.1382 138.911 10.215 138.911 10.3185C138.911 10.422 138.885 10.4997 138.831 10.5515C138.777 10.6014 138.713 10.6264 138.64 10.6264C138.562 10.6264 138.497 10.6014 138.445 10.5515C138.394 10.4997 138.368 10.422 138.368 10.3185Z" fill="#3D3935"></path><path d="M141.213 11.5H140.439V14.1818H139.979V11.5H139.436V11.292L139.979 11.1256V10.9564C139.979 10.2094 140.305 9.83594 140.958 9.83594C141.119 9.83594 141.308 9.86829 141.524 9.93301L141.405 10.3019C141.227 10.2446 141.075 10.2159 140.95 10.2159C140.776 10.2159 140.647 10.2741 140.564 10.3906C140.481 10.5052 140.439 10.6901 140.439 10.9453V11.1422H141.213V11.5Z" fill="#3D3935"></path><path d="M143.052 14.2373C142.603 14.2373 142.248 14.1005 141.987 13.8268C141.728 13.5532 141.599 13.1732 141.599 12.687C141.599 12.197 141.719 11.8078 141.959 11.5194C142.201 11.231 142.526 11.0867 142.933 11.0867C143.314 11.0867 143.615 11.2125 143.837 11.4639C144.059 11.7135 144.17 12.0436 144.17 12.454V12.7452H142.076C142.085 13.1021 142.175 13.3729 142.345 13.5578C142.517 13.7427 142.758 13.8352 143.069 13.8352C143.396 13.8352 143.719 13.7668 144.039 13.6299V14.0404C143.877 14.1107 143.722 14.1606 143.576 14.1902C143.432 14.2216 143.257 14.2373 143.052 14.2373ZM142.927 11.4722C142.683 11.4722 142.488 11.5517 142.342 11.7107C142.198 11.8698 142.113 12.0898 142.087 12.3708H143.676C143.676 12.0805 143.611 11.8587 143.482 11.7052C143.352 11.5499 143.168 11.4722 142.927 11.4722Z" fill="#3D3935"></path><path d="M147.581 13.8518C147.888 13.8518 148.112 13.7695 148.252 13.605C148.393 13.4404 148.468 13.1631 148.477 12.773V12.6703C148.477 12.2451 148.405 11.9391 148.26 11.7523C148.116 11.5656 147.888 11.4722 147.575 11.4722C147.305 11.4722 147.098 11.5776 146.954 11.7884C146.812 11.9973 146.741 12.2932 146.741 12.6759C146.741 13.0586 146.811 13.3507 146.951 13.5523C147.094 13.752 147.304 13.8518 147.581 13.8518ZM147.512 14.2373C147.12 14.2373 146.814 14.0996 146.594 13.8241C146.374 13.5486 146.264 13.164 146.264 12.6703C146.264 12.173 146.375 11.7847 146.596 11.5055C146.818 11.2263 147.127 11.0867 147.523 11.0867C147.939 11.0867 148.259 11.2439 148.482 11.5582H148.507L148.574 11.1422H148.937V15.5463H148.477V14.2456C148.477 14.0607 148.487 13.9036 148.507 13.7741H148.471C148.259 14.0829 147.939 14.2373 147.512 14.2373Z" fill="#3D3935"></path><path d="M150.349 11.1422V13.1141C150.349 13.3618 150.405 13.5467 150.518 13.6688C150.631 13.7908 150.807 13.8518 151.048 13.8518C151.366 13.8518 151.598 13.7649 151.744 13.5911C151.892 13.4173 151.966 13.1335 151.966 12.7397V11.1422H152.426V14.1818H152.046L151.98 13.7741H151.955C151.86 13.9239 151.729 14.0385 151.561 14.118C151.394 14.1976 151.204 14.2373 150.989 14.2373C150.62 14.2373 150.342 14.1495 150.157 13.9738C149.974 13.7982 149.883 13.5171 149.883 13.1307V11.1422H150.349Z" fill="#3D3935"></path><path d="M155.274 14.1818L155.183 13.7492H155.161C155.009 13.9396 154.857 14.0691 154.706 14.1375C154.556 14.204 154.368 14.2373 154.143 14.2373C153.841 14.2373 153.605 14.1597 153.433 14.0043C153.263 13.849 153.178 13.6281 153.178 13.3415C153.178 12.7277 153.669 12.4059 154.65 12.3764L155.166 12.3597V12.1711C155.166 11.9326 155.114 11.757 155.011 11.6442C154.909 11.5296 154.746 11.4722 154.52 11.4722C154.267 11.4722 153.98 11.5499 153.66 11.7052L153.519 11.353C153.669 11.2716 153.832 11.2078 154.01 11.1616C154.189 11.1154 154.368 11.0923 154.548 11.0923C154.91 11.0923 155.178 11.1727 155.352 11.3336C155.528 11.4944 155.615 11.7523 155.615 12.1073V14.1818H155.274ZM154.234 13.8574C154.521 13.8574 154.746 13.7788 154.908 13.6216C155.073 13.4645 155.155 13.2444 155.155 12.9615V12.687L154.695 12.7064C154.329 12.7193 154.064 12.7767 153.901 12.8783C153.741 12.9782 153.66 13.1344 153.66 13.347C153.66 13.5135 153.71 13.6401 153.81 13.727C153.912 13.8139 154.053 13.8574 154.234 13.8574Z" fill="#3D3935"></path><path d="M157.027 14.1818H156.567V9.86644H157.027V14.1818Z" fill="#3D3935"></path><path d="M158.464 14.1818H158.003V11.1422H158.464V14.1818ZM157.965 10.3185C157.965 10.2131 157.99 10.1364 158.042 10.0883C158.094 10.0384 158.159 10.0134 158.236 10.0134C158.31 10.0134 158.374 10.0384 158.428 10.0883C158.481 10.1382 158.508 10.215 158.508 10.3185C158.508 10.422 158.481 10.4997 158.428 10.5515C158.374 10.6014 158.31 10.6264 158.236 10.6264C158.159 10.6264 158.094 10.6014 158.042 10.5515C157.99 10.4997 157.965 10.422 157.965 10.3185Z" fill="#3D3935"></path><path d="M160.422 13.8574C160.503 13.8574 160.582 13.8518 160.657 13.8407C160.733 13.8278 160.793 13.8148 160.838 13.8019V14.1541C160.788 14.1781 160.714 14.1976 160.616 14.2123C160.52 14.229 160.433 14.2373 160.355 14.2373C159.767 14.2373 159.473 13.9276 159.473 13.3082V11.5H159.038V11.2781L159.473 11.0867L159.667 10.4378H159.934V11.1422H160.816V11.5H159.934V13.2888C159.934 13.4719 159.977 13.6124 160.064 13.7104C160.151 13.8084 160.27 13.8574 160.422 13.8574Z" fill="#3D3935"></path><path d="M160.965 11.1422H161.459L162.125 12.8756C162.271 13.2712 162.361 13.5569 162.396 13.7325H162.419C162.443 13.6383 162.493 13.4774 162.568 13.25C162.646 13.0207 162.897 12.3181 163.323 11.1422H163.816L162.51 14.6034C162.381 14.9454 162.229 15.1877 162.055 15.33C161.883 15.4742 161.672 15.5463 161.42 15.5463C161.28 15.5463 161.141 15.5306 161.004 15.4992V15.1303C161.106 15.1525 161.22 15.1636 161.345 15.1636C161.661 15.1636 161.887 14.9861 162.022 14.6311L162.191 14.1985L160.965 11.1422Z" fill="#3D3935"></path><path d="M138.357 19.0867C138.492 19.0867 138.613 19.0978 138.72 19.12L138.656 19.5471C138.53 19.5194 138.42 19.5055 138.323 19.5055C138.077 19.5055 137.867 19.6054 137.691 19.805C137.517 20.0047 137.43 20.2534 137.43 20.5511V22.1818H136.97V19.1422H137.35L137.403 19.7052H137.425C137.538 19.5074 137.673 19.3548 137.832 19.2476C137.991 19.1404 138.166 19.0867 138.357 19.0867Z" fill="#3D3935"></path><path d="M140.573 22.2373C140.123 22.2373 139.768 22.1005 139.508 21.8268C139.249 21.5532 139.119 21.1732 139.119 20.687C139.119 20.197 139.24 19.8078 139.48 19.5194C139.722 19.231 140.047 19.0867 140.453 19.0867C140.834 19.0867 141.136 19.2125 141.357 19.4639C141.579 19.7135 141.69 20.0436 141.69 20.454V20.7452H139.596C139.606 21.1021 139.695 21.3729 139.865 21.5578C140.037 21.7427 140.279 21.8352 140.589 21.8352C140.916 21.8352 141.24 21.7668 141.56 21.6299V22.0404C141.397 22.1107 141.243 22.1606 141.097 22.1902C140.953 22.2216 140.778 22.2373 140.573 22.2373ZM140.448 19.4722C140.204 19.4722 140.009 19.5517 139.863 19.7107C139.718 19.8698 139.633 20.0898 139.607 20.3708H141.197C141.197 20.0805 141.132 19.8587 141.002 19.7052C140.873 19.5499 140.688 19.4722 140.448 19.4722Z" fill="#3D3935"></path><path d="M144.439 21.3526C144.439 21.6355 144.333 21.8537 144.123 22.0071C143.912 22.1606 143.616 22.2373 143.235 22.2373C142.832 22.2373 142.518 22.1735 142.292 22.0459V21.6188C142.438 21.6928 142.594 21.751 142.761 21.7936C142.929 21.8361 143.091 21.8574 143.246 21.8574C143.486 21.8574 143.671 21.8194 143.801 21.7436C143.93 21.666 143.995 21.5486 143.995 21.3914C143.995 21.2731 143.943 21.1723 143.84 21.0891C143.738 21.0041 143.538 20.9042 143.241 20.7896C142.958 20.6842 142.756 20.5927 142.636 20.515C142.518 20.4355 142.429 20.3459 142.37 20.246C142.312 20.1462 142.284 20.0269 142.284 19.8882C142.284 19.6405 142.385 19.4454 142.586 19.3031C142.788 19.1588 143.064 19.0867 143.415 19.0867C143.743 19.0867 144.062 19.1533 144.375 19.2864L144.211 19.6608C143.906 19.5351 143.63 19.4722 143.382 19.4722C143.164 19.4722 142.999 19.5064 142.888 19.5749C142.777 19.6433 142.722 19.7376 142.722 19.8577C142.722 19.9391 142.742 20.0084 142.783 20.0657C142.826 20.1231 142.893 20.1776 142.985 20.2294C143.078 20.2811 143.255 20.356 143.518 20.454C143.878 20.5853 144.122 20.7175 144.247 20.8506C144.375 20.9837 144.439 21.1511 144.439 21.3526Z" fill="#3D3935"></path><path d="M146.474 22.2373C146.025 22.2373 145.67 22.1005 145.409 21.8268C145.151 21.5532 145.021 21.1732 145.021 20.687C145.021 20.197 145.141 19.8078 145.382 19.5194C145.624 19.231 145.948 19.0867 146.355 19.0867C146.736 19.0867 147.037 19.2125 147.259 19.4639C147.481 19.7135 147.592 20.0436 147.592 20.454V20.7452H145.498C145.507 21.1021 145.597 21.3729 145.767 21.5578C145.939 21.7427 146.18 21.8352 146.491 21.8352C146.818 21.8352 147.142 21.7668 147.462 21.6299V22.0404C147.299 22.1107 147.145 22.1606 146.999 22.1902C146.854 22.2216 146.68 22.2373 146.474 22.2373ZM146.35 19.4722C146.106 19.4722 145.91 19.5517 145.764 19.7107C145.62 19.8698 145.535 20.0898 145.509 20.3708H147.098C147.098 20.0805 147.034 19.8587 146.904 19.7052C146.775 19.5499 146.59 19.4722 146.35 19.4722Z" fill="#3D3935"></path><path d="M150.249 22.1818L150.157 21.7492H150.135C149.984 21.9396 149.832 22.0691 149.68 22.1375C149.531 22.204 149.343 22.2373 149.117 22.2373C148.816 22.2373 148.579 22.1597 148.407 22.0043C148.237 21.849 148.152 21.6281 148.152 21.3415C148.152 20.7277 148.643 20.4059 149.625 20.3764L150.141 20.3597V20.1711C150.141 19.9326 150.089 19.757 149.985 19.6442C149.884 19.5296 149.72 19.4722 149.495 19.4722C149.241 19.4722 148.955 19.5499 148.635 19.7052L148.493 19.353C148.643 19.2716 148.807 19.2078 148.984 19.1616C149.164 19.1154 149.343 19.0923 149.522 19.0923C149.885 19.0923 150.153 19.1727 150.327 19.3336C150.502 19.4944 150.59 19.7523 150.59 20.1073V22.1818H150.249ZM149.209 21.8574C149.496 21.8574 149.72 21.7788 149.883 21.6216C150.047 21.4645 150.13 21.2444 150.13 20.9615V20.687L149.669 20.7064C149.303 20.7193 149.039 20.7767 148.876 20.8783C148.715 20.9782 148.635 21.1344 148.635 21.347C148.635 21.5135 148.685 21.6401 148.785 21.727C148.886 21.8139 149.028 21.8574 149.209 21.8574Z" fill="#3D3935"></path><path d="M152.928 19.0867C153.063 19.0867 153.184 19.0978 153.291 19.12L153.228 19.5471C153.102 19.5194 152.991 19.5055 152.895 19.5055C152.649 19.5055 152.438 19.6054 152.262 19.805C152.089 20.0047 152.002 20.2534 152.002 20.5511V22.1818H151.541V19.1422H151.921L151.974 19.7052H151.996C152.109 19.5074 152.245 19.3548 152.404 19.2476C152.563 19.1404 152.738 19.0867 152.928 19.0867Z" fill="#3D3935"></path><path d="M155.075 22.2373C154.635 22.2373 154.293 22.1023 154.051 21.8324C153.811 21.5606 153.691 21.1769 153.691 20.6814C153.691 20.173 153.813 19.7801 154.057 19.5027C154.303 19.2254 154.652 19.0867 155.105 19.0867C155.251 19.0867 155.397 19.1025 155.543 19.1339C155.689 19.1653 155.804 19.2023 155.887 19.2448L155.746 19.6359C155.644 19.5952 155.533 19.5619 155.413 19.536C155.293 19.5083 155.187 19.4944 155.094 19.4944C154.477 19.4944 154.168 19.8882 154.168 20.6759C154.168 21.0494 154.243 21.336 154.392 21.5356C154.544 21.7353 154.768 21.8352 155.064 21.8352C155.317 21.8352 155.577 21.7806 155.843 21.6715V22.0792C155.639 22.1846 155.383 22.2373 155.075 22.2373Z" fill="#3D3935"></path><path d="M158.647 22.1818V20.2155C158.647 19.9677 158.59 19.7829 158.478 19.6608C158.365 19.5388 158.188 19.4778 157.948 19.4778C157.628 19.4778 157.394 19.5647 157.246 19.7385C157.1 19.9123 157.027 20.197 157.027 20.5927V22.1818H156.567V17.8664H157.027V19.1727C157.027 19.3299 157.02 19.4602 157.005 19.5638H157.033C157.123 19.4177 157.252 19.3031 157.418 19.2199C157.586 19.1348 157.778 19.0923 157.992 19.0923C158.364 19.0923 158.642 19.181 158.827 19.3585C159.014 19.5342 159.107 19.8143 159.107 20.1989V22.1818H158.647Z" fill="#3D3935"></path><path d="M138.185 30.2373C137.745 30.2373 137.404 30.1023 137.161 29.8324C136.921 29.5606 136.801 29.1769 136.801 28.6814C136.801 28.173 136.923 27.7801 137.167 27.5027C137.413 27.2254 137.762 27.0867 138.215 27.0867C138.361 27.0867 138.507 27.1025 138.653 27.1339C138.799 27.1653 138.914 27.2023 138.997 27.2448L138.856 27.6359C138.754 27.5952 138.643 27.5619 138.523 27.536C138.403 27.5083 138.297 27.4944 138.204 27.4944C137.587 27.4944 137.278 27.8882 137.278 28.6759C137.278 29.0494 137.353 29.336 137.502 29.5356C137.654 29.7353 137.878 29.8352 138.174 29.8352C138.427 29.8352 138.687 29.7806 138.953 29.6715V30.0792C138.75 30.1846 138.493 30.2373 138.185 30.2373Z" fill="#3D3935"></path><path d="M140.961 30.2373C140.512 30.2373 140.157 30.1005 139.896 29.8268C139.637 29.5532 139.508 29.1732 139.508 28.687C139.508 28.197 139.628 27.8078 139.868 27.5194C140.11 27.231 140.435 27.0867 140.842 27.0867C141.222 27.0867 141.524 27.2125 141.746 27.4639C141.968 27.7135 142.079 28.0436 142.079 28.454V28.7452H139.985C139.994 29.1021 140.084 29.3729 140.254 29.5578C140.426 29.7427 140.667 29.8352 140.978 29.8352C141.305 29.8352 141.628 29.7668 141.948 29.6299V30.0404C141.785 30.1107 141.631 30.1606 141.485 30.1902C141.341 30.2216 141.166 30.2373 140.961 30.2373ZM140.836 27.4722C140.592 27.4722 140.397 27.5517 140.251 27.7107C140.107 27.8698 140.022 28.0898 139.996 28.3708H141.585C141.585 28.0805 141.52 27.8587 141.391 27.7052C141.261 27.5499 141.076 27.4722 140.836 27.4722Z" fill="#3D3935"></path><path d="M144.946 30.1818V28.2155C144.946 27.9677 144.89 27.7829 144.777 27.6608C144.664 27.5388 144.488 27.4778 144.247 27.4778C143.929 27.4778 143.696 27.5638 143.548 27.7357C143.401 27.9077 143.327 28.1915 143.327 28.5871V30.1818H142.866V27.1422H143.241L143.315 27.5582H143.338C143.432 27.4084 143.564 27.2929 143.734 27.2115C143.904 27.1283 144.094 27.0867 144.303 27.0867C144.669 27.0867 144.944 27.1755 145.129 27.353C145.314 27.5286 145.407 27.8106 145.407 28.1989V30.1818H144.946Z" fill="#3D3935"></path><path d="M147.337 29.8574C147.418 29.8574 147.497 29.8518 147.573 29.8407C147.648 29.8278 147.709 29.8148 147.753 29.8019V30.1541C147.703 30.1781 147.629 30.1976 147.531 30.2123C147.435 30.229 147.348 30.2373 147.27 30.2373C146.682 30.2373 146.388 29.9276 146.388 29.3082V27.5H145.953V27.2781L146.388 27.0867L146.583 26.4378H146.849V27.1422H147.731V27.5H146.849V29.2888C146.849 29.4718 146.892 29.6124 146.979 29.7104C147.066 29.8084 147.185 29.8574 147.337 29.8574Z" fill="#3D3935"></path><path d="M149.75 27.0867C149.885 27.0867 150.006 27.0978 150.113 27.12L150.049 27.5471C149.924 27.5194 149.813 27.5055 149.716 27.5055C149.471 27.5055 149.26 27.6054 149.084 27.805C148.91 28.0047 148.823 28.2534 148.823 28.5511V30.1818H148.363V27.1422H148.743L148.796 27.7052H148.818C148.931 27.5074 149.067 27.3548 149.226 27.2476C149.385 27.1404 149.559 27.0867 149.75 27.0867Z" fill="#3D3935"></path><path d="M151.966 30.2373C151.516 30.2373 151.161 30.1005 150.901 29.8268C150.642 29.5532 150.512 29.1732 150.512 28.687C150.512 28.197 150.633 27.8078 150.873 27.5194C151.115 27.231 151.44 27.0867 151.846 27.0867C152.227 27.0867 152.529 27.2125 152.751 27.4639C152.972 27.7135 153.083 28.0436 153.083 28.454V28.7452H150.989C150.999 29.1021 151.088 29.3729 151.258 29.5578C151.43 29.7427 151.672 29.8352 151.982 29.8352C152.31 29.8352 152.633 29.7668 152.953 29.6299V30.0404C152.79 30.1107 152.636 30.1606 152.49 30.1902C152.346 30.2216 152.171 30.2373 151.966 30.2373ZM151.841 27.4722C151.597 27.4722 151.402 27.5517 151.256 27.7107C151.111 27.8698 151.026 28.0898 151.001 28.3708H152.59C152.59 28.0805 152.525 27.8587 152.396 27.7052C152.266 27.5499 152.081 27.4722 151.841 27.4722Z" fill="#3D3935"></path></g><defs><clipPath id="clip0"><rect width="183" height="40" fill="white"></rect></clipPath></defs></svg> 