<?xml version="1.0" encoding="UTF-8" standalone="no"?>
<!-- Created with Inkscape (http://www.inkscape.org/) -->

<svg
   width="19.780167mm"
   height="22.260254mm"
   viewBox="0 0 19.780167 22.260253"
   version="1.1"
   id="svg943"
   sodipodi:docname="icrsr-logo.svg"
   inkscape:version="1.2 (dc2aedaf03, 2022-05-15)"
   xmlns:inkscape="http://www.inkscape.org/namespaces/inkscape"
   xmlns:sodipodi="http://sodipodi.sourceforge.net/DTD/sodipodi-0.dtd"
   xmlns="http://www.w3.org/2000/svg"
   xmlns:svg="http://www.w3.org/2000/svg">
  <sodipodi:namedview
     id="namedview945"
     pagecolor="#ffffff"
     bordercolor="#000000"
     borderopacity="0.25"
     inkscape:showpageshadow="2"
     inkscape:pageopacity="0.0"
     inkscape:pagecheckerboard="0"
     inkscape:deskcolor="#d1d1d1"
     inkscape:document-units="mm"
     showgrid="false"
     inkscape:zoom="1.2938725"
     inkscape:cx="-209.44877"
     inkscape:cy="141.43589"
     inkscape:window-width="2560"
     inkscape:window-height="1369"
     inkscape:window-x="-8"
     inkscape:window-y="-8"
     inkscape:window-maximized="1"
     inkscape:current-layer="layer1" />
  <defs
     id="defs940" />
  <g
     inkscape:label="Layer 1"
     inkscape:groupmode="layer"
     id="layer1"
     transform="translate(-18.383384,-22.462333)">
    <path
       fill-rule="evenodd"
       fill="#91a4b0"
       fill-opacity="1"
       d="m 19.707151,31.991013 c 1.20027,-3.418912 3.015146,-6.540169 5.383996,-9.310026 -3.949457,3.130903 -5.309581,6.840582 -5.383996,9.310026"
       id="path3680"
       style="stroke-width:0.352778" />
    <path
       fill-rule="evenodd"
       fill="#428498"
       fill-opacity="1"
       d="m 19.693371,32.159134 c 2.38125,-4.799707 4.667416,-6.137782 7.076225,-8.253071 -4.489647,2.140094 -6.359645,5.17729 -7.076225,8.253071"
       id="path3682"
       style="stroke-width:0.352778" />
    <path
       fill-rule="evenodd"
       fill="#5e7a8b"
       fill-opacity="1"
       d="m 25.675435,36.561966 c 8.228266,-2.259983 6.445084,-11.802897 -0.365182,-9.861241 8.691287,-3.967372 12.53188,9.941167 0.365182,9.861241"
       id="path3684"
       style="stroke-width:0.352778" />
    <path
       fill-rule="evenodd"
       fill="#428498"
       fill-opacity="1"
       d="m 31.05943,35.713094 c 4.817622,-2.284787 3.520888,-10.63432 -2.801553,-10.762478 9.152929,-1.579232 10.681173,9.8199 2.801553,10.762478"
       id="path3686"
       style="stroke-width:0.352778" />
    <path
       fill-rule="evenodd"
       fill="#91a4b0"
       fill-opacity="1"
       d="m 36.735568,29.008939 c -0.731739,-3.191537 -4.649502,-6.214952 -10.048652,-4.135493 5.841502,-5.392263 11.018791,-0.731738 10.048652,4.135493"
       id="path3688"
       style="stroke-width:0.352778" />
    <g
       fill="#5e7a8b"
       fill-opacity="1"
       id="g3700"
       transform="matrix(0.35277777,0,0,0.35277777,-143.97071,17.179859)">
      <g
         id="use3690"
         transform="translate(458.56009,77.777)">
        <path
           d="M 3.75,0 V -13.1875 H 1.65625 V 0 Z m 0,0"
           id="path3788" />
      </g>
      <g
         id="use3692"
         transform="translate(463.96832,77.777)">
        <path
           d="m 11.3125,-3.140625 c -0.453125,0.453125 -1,0.796875 -1.625,1.046875 -0.625,0.25 -1.265625,0.375 -1.890625,0.375 C 6.203125,-1.71875 5,-2.1875 4.1875,-3.125 3.375,-4.046875 2.953125,-5.1875 2.9375,-6.515625 2.921875,-7.859375 3.328125,-9 4.1875,-9.96875 c 0.84375,-0.953125 2.046875,-1.453125 3.609375,-1.453125 1.359375,0 2.484375,0.453125 3.421875,1.359375 l 1.40625,-1.359375 c -1.34375,-1.328125 -2.9375,-2 -4.828125,-2 -1.125,0 -2.140625,0.1875 -3.046875,0.59375 -0.921875,0.390625 -1.65625,0.90625 -2.203125,1.5625 C 2,-10.609375 1.5625,-9.875 1.28125,-9.0625 1,-8.25 0.84375,-7.390625 0.84375,-6.5 c 0,0.890625 0.15625,1.734375 0.4375,2.53125 0.28125,0.78125 0.703125,1.5 1.25,2.140625 0.546875,0.640625 1.28125,1.15625 2.171875,1.53125 0.90625,0.375 1.953125,0.5625 3.09375,0.5625 1.984375,0 3.640625,-0.65625 4.953125,-1.96875 z m 0,0"
           id="path3800" />
      </g>
      <g
         id="use3694"
         transform="translate(477.21567,77.777)">
        <path
           d="M 12.8125,-0.375 8.875,-4.765625 C 10.09375,-4.9375 11,-5.40625 11.59375,-6.1875 c 0.578125,-0.75 0.859375,-1.65625 0.859375,-2.6875 0,-1.1875 -0.40625,-2.203125 -1.21875,-3.046875 C 10.40625,-12.78125 9.25,-13.1875 7.796875,-13.1875 c -0.671875,0 -1.6875,0 -3.0625,-0.01563 -1.375,0 -2.390625,0 -3.078125,0 V 0 H 3.765625 V -4.5625 H 6.5625 L 10.578125,0 h 2.46875 z M 7.796875,-11.265625 c 0.8125,0 1.4375,0.234375 1.875,0.71875 C 10.09375,-10.0625 10.3125,-9.5 10.3125,-8.84375 c 0,0.671875 -0.21875,1.234375 -0.640625,1.6875 -0.4375,0.453125 -1.0625,0.671875 -1.890625,0.671875 H 3.765625 v -4.78125 z m 0,0"
           id="path3792" />
      </g>
      <g
         id="use3696"
         transform="translate(490.80219,77.777)">
        <path
           d="m 11.140625,-11.34375 c -0.921875,-1.484375 -2.5625,-2.21875 -4.921875,-2.21875 -0.625,0 -1.21875,0.07813 -1.8125,0.203125 -0.578125,0.15625 -1.109375,0.375 -1.625,0.65625 -0.5,0.28125 -0.890625,0.6875 -1.203125,1.1875 C 1.28125,-11 1.125,-10.4375 1.125,-9.78125 c 0,0.546875 0.09375,1.015625 0.3125,1.4375 0.1875,0.421875 0.421875,0.765625 0.734375,1.03125 0.28125,0.265625 0.671875,0.484375 1.140625,0.671875 0.46875,0.203125 0.953125,0.34375 1.375,0.4375 0.4375,0.09375 0.953125,0.1875 1.546875,0.265625 1.0625,0.140625 1.890625,0.359375 2.484375,0.6875 0.59375,0.3125 0.890625,0.828125 0.890625,1.484375 0,0.5 -0.171875,0.9375 -0.515625,1.28125 C 8.75,-2.125 8.328125,-1.90625 7.859375,-1.765625 c -0.46875,0.125 -1,0.1875 -1.578125,0.1875 -1.890625,0 -3.265625,-0.71875 -4.109375,-2.171875 l -1.59375,1.0625 C 1.65625,-0.703125 3.5625,0.296875 6.25,0.296875 c 0.984375,0 1.875,-0.125 2.65625,-0.390625 0.78125,-0.25 1.453125,-0.703125 2,-1.3125 0.546875,-0.625 0.8125,-1.421875 0.8125,-2.359375 0,-0.703125 -0.125,-1.328125 -0.40625,-1.828125 C 11.03125,-6.109375 10.609375,-6.5 10.0625,-6.796875 9.515625,-7.078125 8.96875,-7.3125 8.421875,-7.46875 7.875,-7.609375 7.203125,-7.75 6.421875,-7.859375 5.390625,-8.015625 4.59375,-8.21875 4.046875,-8.484375 3.5,-8.75 3.21875,-9.15625 3.21875,-9.734375 c 0,-0.625 0.28125,-1.125 0.84375,-1.484375 0.578125,-0.34375 1.3125,-0.515625 2.21875,-0.515625 0.6875,0.01563 1.328125,0.140625 1.921875,0.390625 0.578125,0.265625 1.015625,0.625 1.328125,1.078125 z m 0,0"
           id="path3804" />
      </g>
      <g
         id="use3698"
         transform="translate(503.23923,77.777)">
        <path
           d="M 12.8125,-0.375 8.875,-4.765625 C 10.09375,-4.9375 11,-5.40625 11.59375,-6.1875 c 0.578125,-0.75 0.859375,-1.65625 0.859375,-2.6875 0,-1.1875 -0.40625,-2.203125 -1.21875,-3.046875 C 10.40625,-12.78125 9.25,-13.1875 7.796875,-13.1875 c -0.671875,0 -1.6875,0 -3.0625,-0.01563 -1.375,0 -2.390625,0 -3.078125,0 V 0 H 3.765625 V -4.5625 H 6.5625 L 10.578125,0 h 2.46875 z M 7.796875,-11.265625 c 0.8125,0 1.4375,0.234375 1.875,0.71875 C 10.09375,-10.0625 10.3125,-9.5 10.3125,-8.84375 c 0,0.671875 -0.21875,1.234375 -0.640625,1.6875 -0.4375,0.453125 -1.0625,0.671875 -1.890625,0.671875 H 3.765625 v -4.78125 z m 0,0"
           id="path3796" />
      </g>
    </g>
  </g>
</svg>
