<?xml version="1.0" encoding="UTF-8"?>
<svg version="1.1" xmlns="http://www.w3.org/2000/svg" width="2303" height="1429">
<path d="M0 0 C759.99 0 1519.98 0 2303 0 C2303 471.57 2303 943.14 2303 1429 C1543.01 1429 783.02 1429 0 1429 C0 957.43 0 485.86 0 0 Z " fill="#FEFEFE" transform="translate(0,0)"/>
<path d="M0 0 C103.97455584 0 103.97455584 0 118.375 7.75 C119.03508057 8.09579102 119.69516113 8.44158203 120.37524414 8.79785156 C136.38964432 17.44073029 146.44250384 30.93045693 152.03125 48.18359375 C156.60717724 65.49161482 154.21064392 84.13802032 146 100 C136.50839787 116.24010697 122.68968655 126.31820436 104.7421875 131.30859375 C103.83726562 131.53675781 102.93234375 131.76492188 102 132 C101.39883362 132.17691879 100.79766724 132.35383759 100.17828369 132.53611755 C97.5389689 133.09818016 95.10460931 133.11960498 92.40527344 133.11352539 C91.26880371 133.11340454 90.13233398 133.11328369 88.96142578 133.11315918 C87.77274902 133.10804321 86.58407227 133.10292725 85.359375 133.09765625 C84.26254395 133.09664917 83.16571289 133.09564209 82.03564453 133.09460449 C77.94041904 133.0893745 73.84520847 133.07541323 69.75 133.0625 C60.5925 133.041875 51.435 133.02125 42 133 C42 159.73 42 186.46 42 214 C28.14 214 14.28 214 0 214 C0 143.38 0 72.76 0 0 Z " fill="#7C6B55" transform="translate(226,1061)"/>
<path d="M0 0 C8.44633338 4.37958027 16.16679014 10.21789128 19.3125 19.5625 C19.69440113 20.95100144 20.05040426 22.34699525 20.375 23.75 C20.63314317 24.67512536 20.63314317 24.67512536 20.89650136 25.61894011 C21.38285101 27.78496558 21.50142892 29.67314463 21.50363445 31.88992691 C21.5068589 32.71155547 21.51008335 33.53318404 21.5134055 34.37971044 C21.5110826 35.72560722 21.5110826 35.72560722 21.50871277 37.09869385 C21.51097833 38.05610183 21.51324388 39.0135098 21.51557809 39.99993014 C21.52192137 43.21643696 21.52108851 46.43290167 21.52026367 49.64941406 C21.52325499 51.95226598 21.52665745 54.25511739 21.53044128 56.55796814 C21.53928906 62.82046808 21.54161975 69.08295436 21.54225707 75.34545994 C21.54320583 80.57155335 21.54688382 85.79764357 21.55042917 91.02373576 C21.55811136 102.64957736 21.56109752 114.2754123 21.56042381 125.90125623 C21.56038386 126.59883679 21.5603439 127.29641735 21.56030273 128.01513672 C21.56026185 128.7135707 21.56022097 129.41200468 21.56017885 130.13160333 C21.55977258 141.44561338 21.56933726 152.75959013 21.5834411 164.07359055 C21.59781338 175.69480624 21.60452776 187.31600416 21.60384732 198.93722892 C21.60359229 205.45996068 21.60644658 211.98265476 21.61702538 218.50537872 C21.62670519 224.64160047 21.62678627 230.77774851 21.61950874 236.91397285 C21.61846271 239.16497213 21.62082691 241.41597599 21.6268692 243.66696739 C21.63458941 246.7425221 21.62994393 249.81782233 21.62223816 252.89337158 C21.62738172 253.78171322 21.63252529 254.67005486 21.63782471 255.58531594 C21.58030924 265.99158384 18.79611979 276.12830941 11.375 283.75 C1.10130801 291.49389189 -7.92026114 293.35692349 -20.625 291.75 C-29.76164513 289.05459059 -36.03664032 283.70491591 -40.8984375 275.63671875 C-44.49800954 268.85880118 -44.77477335 262.67170016 -44.77890015 255.1181488 C-44.7832824 254.1422909 -44.78766465 253.166433 -44.7921797 252.16100365 C-44.80554457 248.88785137 -44.8117414 245.61472599 -44.81787109 242.34155273 C-44.8257739 239.99578226 -44.83404297 237.65001299 -44.84265137 235.304245 C-44.86885156 227.59737303 -44.8841774 219.89049568 -44.8984375 212.18359375 C-44.90379807 209.52879394 -44.90917558 206.87399416 -44.91456985 204.21919441 C-44.93639644 193.17438399 -44.95508286 182.12957311 -44.96619225 171.08474636 C-44.96912169 168.22080417 -44.97208339 165.35686202 -44.97509766 162.49291992 C-44.97584371 161.78114761 -44.97658976 161.0693753 -44.97735842 160.33603413 C-44.99000285 148.81456649 -45.02321631 137.29325349 -45.06489949 125.77185809 C-45.10739224 113.92911089 -45.13089571 102.08644271 -45.13611281 90.2436195 C-45.13951859 83.59997059 -45.1517477 76.95653604 -45.18421555 70.31295586 C-45.21434023 64.05924006 -45.22059191 57.80594463 -45.20883179 51.55217171 C-45.20861142 49.26252295 -45.21688543 46.97285444 -45.23448563 44.68327332 C-45.42910957 17.89733517 -45.42910957 17.89733517 -35.4375 7.28125 C-25.68294226 -0.95966947 -12.38469332 -4.44207324 0 0 Z " fill="#F78A36" transform="translate(731.625,661.25)"/>
<path d="M0 0 C0.68449219 0.40089844 1.36898437 0.80179687 2.07421875 1.21484375 C8.42112863 5.38567024 13.65696835 12.04111392 15.66015625 19.4375 C17.21609116 31.16960687 15.70546659 40.21221664 9 50 C4.21528767 55.97735282 -1.34169133 61.27060701 -6.7824707 66.640625 C-8.39434613 68.25708252 -10.00470753 69.87505096 -11.61367798 71.49440002 C-15.95944868 75.85915676 -20.32664263 80.20186276 -24.69874215 84.54022598 C-29.28456072 89.0970114 -33.85195868 93.67219573 -38.42192078 98.24487305 C-46.09409723 105.91606171 -53.77972214 113.57352362 -61.47436523 121.22216797 C-69.37446179 129.07505785 -77.26144258 136.94082292 -85.13452148 144.82080078 C-94.65112349 154.3456878 -104.17753842 163.86059738 -113.7137661 173.36584473 C-117.34559675 176.98600167 -120.97385443 180.60968407 -124.59932899 184.23620605 C-128.87052211 188.50727292 -133.15172747 192.76805184 -137.44073868 197.02122307 C-139.0090017 198.57944149 -140.57394098 200.14101367 -142.13521004 201.7062397 C-163.58085471 223.1943455 -163.58085471 223.1943455 -178.25 223.375 C-188.72245298 223.14914687 -195.34390745 219.55240653 -202.8671875 212.37109375 C-205.76058006 209.15444671 -207.50845412 206.03237695 -209 202 C-209.4125 201.0925 -209.825 200.185 -210.25 199.25 C-212.34425856 190.17487959 -211.36691582 182.17200379 -207 174 C-200.9443416 164.68182647 -192.35959614 157.07822803 -184.53710938 149.27832031 C-182.96083394 147.69933167 -181.3849836 146.11991855 -179.80952454 144.54011536 C-175.54773732 140.26924269 -171.27968695 136.00468177 -167.01017952 131.74152851 C-162.53548217 127.27190929 -158.06568314 122.79739581 -153.59509277 118.32366943 C-145.61018518 110.3348958 -137.62025829 102.35116606 -129.62832636 94.36942169 C-122.39082756 87.14086337 -115.15859691 79.90706901 -107.93017578 72.66943359 C-99.52008761 64.24862973 -91.10663386 55.8312109 -82.6882329 47.41871524 C-78.23764771 42.97124443 -73.78841622 38.522442 -69.34269714 34.07010651 C-65.16442136 29.88604634 -60.98126968 25.70692262 -56.7943325 21.53153038 C-55.26037174 20.00020999 -53.72810271 18.46719274 -52.19767189 16.93234444 C-50.10533444 14.83452587 -48.00690732 12.74298989 -45.90686035 10.65289307 C-45.3055824 10.04715368 -44.70430446 9.44141428 -44.08480597 8.81731915 C-32.14068742 -3.01759648 -15.65663541 -9.85101912 0 0 Z " fill="#DB0B63" transform="translate(878,389)"/>
<path d="M0 0 C1.35952306 0.74579551 2.69469292 1.53792933 4 2.375 C4.69480469 2.7875 5.38960937 3.2 6.10546875 3.625 C13.50035025 8.50867409 17.64989716 15.94667663 20 24.375 C21.20818248 35.57176092 18.63267967 43.46057344 12 52.375 C9.83888111 54.81581473 7.54320665 57.11052894 5.23284912 59.40957642 C4.2132595 60.43596271 4.2132595 60.43596271 3.1730721 61.48308408 C0.90104153 63.76774441 -1.37804667 66.04522737 -3.65722656 68.32275391 C-5.290536 69.96204938 -6.92343489 71.60175399 -8.55595398 73.24183655 C-12.98717688 77.69071685 -17.4248603 82.13309809 -21.86428165 86.5737958 C-24.63810982 89.34904603 -27.41050882 92.12571565 -30.18239594 94.90290451 C-39.35505983 104.09311212 -48.53183357 113.27918251 -57.71402398 122.45987161 C-58.20848884 122.95425655 -58.7029537 123.4486415 -59.21240234 123.95800781 C-59.70747452 124.45299823 -60.2025467 124.94798864 -60.71262106 125.45797877 C-68.73686907 133.48141375 -76.75109129 141.51478068 -84.7608228 149.552705 C-92.99347088 157.81410062 -101.23375484 166.06781031 -109.48146987 174.31416452 C-114.1085494 178.94073418 -118.7324721 183.57035441 -123.34870148 188.20775223 C-127.69007058 192.56848524 -132.04094017 196.9195099 -136.39927101 201.2632885 C-137.99584649 202.85777267 -139.58902124 204.45567054 -141.17849541 206.05723381 C-143.35148785 208.24567747 -145.53650151 210.42138307 -147.72491455 212.59439087 C-148.34867171 213.22843515 -148.97242886 213.86247943 -149.61508775 214.51573718 C-153.70194858 218.53944278 -157.74533613 221.10305309 -163 223.375 C-163.86238281 223.77976562 -164.72476563 224.18453125 -165.61328125 224.6015625 C-173.00155112 226.99579725 -181.61284424 226.06091513 -188.5859375 222.82421875 C-198.1167685 217.10263574 -203.52679073 209.7946278 -207 199.375 C-207.22574915 197.06892955 -207.35863541 194.75325128 -207.4375 192.4375 C-207.49808594 191.21160156 -207.55867187 189.98570312 -207.62109375 188.72265625 C-206.46382215 174.67625018 -194.40236318 164.92356783 -185.08740234 155.68603516 C-183.44959321 154.04008477 -181.81306082 152.39286312 -180.17770386 150.74447632 C-175.75330958 146.29284003 -171.31028023 141.86025949 -166.86272764 137.43177462 C-162.67241304 133.25515921 -158.49421591 129.06647713 -154.31513889 124.8786227 C-145.53323126 116.07964859 -136.73310373 107.29908277 -127.92652483 98.52481084 C-120.38765843 91.01274714 -112.86466094 83.48509229 -105.35302734 75.94580078 C-96.60789195 67.16848032 -87.85300811 58.40107299 -79.08257639 49.64902341 C-74.44824445 45.02401978 -69.81800017 40.39511935 -65.19828415 35.75551224 C-60.85334572 31.39317341 -56.49386005 27.04590359 -52.1229744 22.70956802 C-50.52637121 21.12086201 -48.93478418 19.52709552 -47.3487854 17.92780304 C-34.26007783 4.73958525 -19.83658239 -8.08537728 0 0 Z " fill="#7482BF" transform="translate(1102,161.625)"/>
<path d="M0 0 C0.98306143 -0.00453111 1.96612287 -0.00906223 2.97897404 -0.01373065 C6.26444779 -0.02636443 9.54975555 -0.02475492 12.83525085 -0.02310181 C15.19441439 -0.02908767 17.55357598 -0.03589335 19.91273499 -0.04345703 C26.31569075 -0.06111787 32.71859306 -0.06581244 39.12157083 -0.0670886 C43.12332964 -0.06807791 47.12508179 -0.07265326 51.12683678 -0.07808304 C64.37117431 -0.09568659 77.61547949 -0.10492326 90.85982881 -0.10342209 C91.92975012 -0.10330222 91.92975012 -0.10330222 93.02128601 -0.10317993 C94.09252083 -0.10305729 94.09252083 -0.10305729 95.18539675 -0.10293217 C106.75656766 -0.10211944 118.32760834 -0.12125598 129.89874158 -0.14945666 C141.79353128 -0.17821633 153.68825752 -0.19199528 165.58308285 -0.19026911 C172.2556562 -0.18960629 178.92811235 -0.1954427 185.60065651 -0.21662521 C191.87734583 -0.23600732 198.15374707 -0.23613191 204.43044662 -0.22159195 C206.73060083 -0.21950278 209.03077306 -0.22421111 211.33089638 -0.23631287 C214.47809578 -0.25179547 217.62430561 -0.24243658 220.77148438 -0.22705078 C221.67529966 -0.23733791 222.57911495 -0.24762503 223.51031858 -0.25822389 C233.68894402 -0.14873994 241.5416461 3.63378684 248.80278015 10.66586304 C255.72862099 18.59130977 258.00659653 26.24873842 257.5254364 36.71664429 C256.39897243 45.62060733 252.70700309 52.24065901 246.07621765 58.26742554 C243.51907269 60.17799202 240.92410759 61.82672827 238.07621765 63.26742554 C237.08211679 63.78491489 237.08211679 63.78491489 236.06793308 64.31285858 C231.77364515 65.68303748 227.69866754 65.55662172 223.21658325 65.54830933 C222.21622404 65.55425157 221.21586482 65.56019382 220.18519169 65.56631613 C216.82909035 65.58367584 213.47313182 65.58670539 210.11698914 65.58969116 C207.71210424 65.59894867 205.30722229 65.60899815 202.90234375 65.61978149 C196.36485589 65.64602573 189.82739769 65.65899301 183.28987002 65.66780281 C179.20401476 65.67333468 175.11816892 65.6818108 171.03232002 65.69081116 C159.70957122 65.71519469 148.38682993 65.73579201 137.06405544 65.74256134 C136.33971743 65.74300047 135.61537941 65.7434396 134.86909175 65.74389204 C134.14306056 65.7443286 133.41702937 65.74476515 132.66899723 65.74521494 C131.19788515 65.74610186 129.72677308 65.74699498 128.25566101 65.74789429 C127.52594501 65.74833715 126.79622901 65.74878001 126.0444004 65.74923629 C114.23190045 65.75712497 102.4196478 65.79201127 90.60724329 65.83861333 C78.46616401 65.88612342 66.32520858 65.91096889 54.18403488 65.91329718 C47.37266923 65.91512634 40.56162562 65.92651986 33.75034904 65.9629364 C27.33904005 65.99709458 20.92817795 66.00018206 14.51679802 65.98265839 C12.16909652 65.9811205 9.82136187 65.98976551 7.47374344 66.00957489 C-17.33765023 66.20658471 -17.33765023 66.20658471 -27.12108707 57.25751495 C-34.83042867 49.28134082 -37.37330884 40.59132843 -37.2636261 29.72055054 C-36.38264842 20.76900724 -31.47956806 13.23956987 -24.92378235 7.26742554 C-17.11262311 1.22802825 -9.64380581 -0.0328046 0 0 Z " fill="#F1DF02" transform="translate(357.9237823486328,536.7325744628906)"/>
<path d="M0 0 C1.47737871 -0.00935994 1.47737871 -0.00935994 2.98460346 -0.01890898 C6.25862614 -0.03476199 9.53189632 -0.02226459 12.80592346 -0.00964355 C15.16390922 -0.01506811 17.52189158 -0.02219263 19.87986755 -0.03088379 C26.26625885 -0.04908119 32.65239096 -0.04206394 39.03878665 -0.02936745 C43.03203532 -0.02331352 47.02524699 -0.02360325 51.01849556 -0.02732849 C52.01499237 -0.02824789 52.01499237 -0.02824789 53.03162043 -0.02918586 C54.38149906 -0.03046486 55.73137768 -0.03176171 57.08125628 -0.03307623 C69.7198204 -0.04446457 82.35826821 -0.03139628 94.99681325 -0.00987476 C105.82305276 0.00799054 116.64912065 0.00489348 127.47535706 -0.0135498 C140.06925705 -0.03499461 152.66305523 -0.04336176 165.25697094 -0.03110075 C166.60199899 -0.02982665 167.94702705 -0.02856917 169.29205513 -0.02732849 C169.95370799 -0.02671139 170.61536086 -0.02609429 171.29706381 -0.02545848 C175.9422642 -0.02201608 180.58739701 -0.02800723 185.23258781 -0.0372467 C191.49457264 -0.04883254 197.75623458 -0.04072907 204.01818466 -0.01766968 C206.31146141 -0.01239702 208.6047655 -0.01387151 210.89803123 -0.02272034 C236.9997735 -0.11412278 236.9997735 -0.11412278 247.93702698 8.73449707 C254.72727217 15.48016735 258.14558591 23.04045109 258.22218323 32.57043457 C258.23002795 41.69973425 255.9374461 48.64756858 249.85890198 55.65637207 C245.38422396 59.90686782 240.43092008 62.30497803 234.72218323 64.50793457 C234.06218323 64.83793457 233.40218323 65.16793457 232.72218323 65.50793457 C231.38385091 65.60545909 230.04083954 65.64249012 228.69896889 65.64774227 C227.85243866 65.65343351 227.00590842 65.65912475 226.13372576 65.66498846 C224.73065537 65.66675827 224.73065537 65.66675827 223.29924011 65.66856384 C222.30961128 65.67365166 221.31998244 65.67873948 220.30036485 65.68398148 C216.96261957 65.69975892 213.62489601 65.70824509 210.28712463 65.7166748 C207.90238811 65.72620928 205.51765299 65.73610026 203.13291931 65.74632263 C195.95826317 65.77504837 188.78359687 65.79480195 181.6089049 65.81171498 C179.58140706 65.8165102 177.55390976 65.82149354 175.52641249 65.8265202 C162.93052502 65.85750266 150.33463294 65.88418354 137.73871803 65.90093899 C134.81995765 65.9048884 131.90119735 65.90889139 128.98243713 65.91296387 C128.25700586 65.91397223 127.53157458 65.91498059 126.78416054 65.91601951 C115.04907744 65.93300343 103.31420608 65.97408447 91.57922621 66.02498686 C79.52413332 66.07684608 67.46914903 66.10589258 55.41394556 66.11313587 C48.64835095 66.11778888 41.88310245 66.13244128 35.11761856 66.17288017 C28.74652523 66.20980978 22.37602124 66.21813482 16.00484085 66.20487404 C13.67164754 66.20492789 11.33842772 66.21518303 9.00533295 66.23662567 C-5.40669624 66.36195284 -15.88889444 66.08766386 -27.21531677 56.25793457 C-33.09101131 49.82196598 -36.57689028 41.70369431 -36.42234802 33.03527832 C-35.81454041 22.40685865 -32.26045481 15.05239789 -24.52781677 7.69543457 C-17.09599875 1.72070437 -9.37073272 -0.09279238 0 0 Z " fill="#C1D72D" transform="translate(552.2778167724609,338.4920654296875)"/>
<path d="M0 0 C0.64324219 0.4125 1.28648438 0.825 1.94921875 1.25 C2.64402344 1.6625 3.33882812 2.075 4.0546875 2.5 C11.42319504 7.36625639 15.65721617 14.83209353 17.94921875 23.25 C18.23719821 26.51875451 18.22776539 29.77371783 18.21664429 33.05352783 C18.2211754 34.03573484 18.22570651 35.01794185 18.23037493 36.02991271 C18.24302699 39.31849235 18.24139802 42.60690654 18.23974609 45.89550781 C18.24573086 48.25452385 18.25253629 50.61353794 18.26010132 52.97254944 C18.27777451 59.3796965 18.28245728 65.78679015 18.28373289 72.19395924 C18.28472173 76.19789028 18.28929576 80.20181466 18.29472733 84.20574188 C18.31233514 97.45598757 18.32156704 110.70620089 18.32006638 123.95645836 C18.31998647 124.67030464 18.31990655 125.38415092 18.31982422 126.11962891 C18.31974246 126.83435095 18.3196607 127.549073 18.31957646 128.28545329 C18.31876391 139.86315429 18.33789475 151.44072507 18.36610095 163.01838842 C18.39486096 174.91766651 18.4086395 186.81688116 18.4069134 198.71619487 C18.40625052 205.39213654 18.41208891 212.06796109 18.4332695 218.7438736 C18.45265219 225.02465348 18.45277579 231.30514548 18.43823624 237.58593559 C18.43614705 239.8877015 18.4408555 242.18948543 18.45295715 244.49122047 C18.46843972 247.64066269 18.45908085 250.78911601 18.44369507 253.9385376 C18.45398219 254.843035 18.46426932 255.74753241 18.47486818 256.67943883 C18.37468852 265.99977009 15.03714896 275.07098152 8.421875 281.8046875 C1.06256679 288.51317254 -6.6515556 291.63816884 -16.59765625 291.45703125 C-26.03938215 290.66019769 -34.12803631 286.36117537 -40.68359375 279.5546875 C-46.34504162 272.26599713 -47.49747466 263.95734261 -47.45191956 254.98527527 C-47.45871623 253.98966546 -47.46551289 252.99405565 -47.47251552 251.96827585 C-47.49141479 248.6521638 -47.48905537 245.3364234 -47.48657227 242.02026367 C-47.49555427 239.63449125 -47.50576353 237.24872318 -47.5171051 234.86296082 C-47.54081803 229.06686585 -47.55026578 223.27088249 -47.55194224 217.47474142 C-47.55337157 212.76013358 -47.55955496 208.04555575 -47.56904411 203.33095741 C-47.59543989 189.94254654 -47.60930582 176.55420758 -47.60705269 163.16577049 C-47.60693282 162.44518488 -47.60681295 161.72459927 -47.60668945 160.98217773 C-47.60650549 159.89996859 -47.60650549 159.89996859 -47.60631781 158.79589663 C-47.60509875 147.10650459 -47.63380524 135.41740259 -47.67610455 123.72809442 C-47.71926811 111.70439899 -47.7399112 99.68084481 -47.73732322 87.65706998 C-47.73632986 80.91508139 -47.74445832 74.17339699 -47.77685738 67.4314785 C-47.80596673 61.08898096 -47.80609348 54.7471245 -47.78430748 48.40460396 C-47.78117821 46.08270707 -47.78820966 43.76076979 -47.80638885 41.43894196 C-47.9861249 16.88457703 -47.9861249 16.88457703 -38.8404932 6.81686687 C-28.73815761 -3.11561533 -13.00598419 -7.13471132 0 0 Z " fill="#EF3225" transform="translate(1126.05078125,277.75)"/>
<path d="M0 0 C1.48094077 -0.00807831 1.48094077 -0.00807831 2.99179953 -0.01631981 C6.285733 -0.03057761 9.57926336 -0.02350086 12.87321472 -0.01637268 C15.24075645 -0.02207743 17.60829543 -0.02904209 19.97583008 -0.03717041 C26.39741743 -0.05510676 32.81886816 -0.05393229 39.24047303 -0.04822803 C43.254812 -0.04516302 47.26913151 -0.04812801 51.28346825 -0.05270576 C51.9508458 -0.05345419 52.61822334 -0.05420261 53.30582445 -0.05497371 C54.66182315 -0.05650527 56.01782183 -0.05804362 57.37382051 -0.05958868 C70.07863981 -0.07330369 82.78339747 -0.06788348 95.48821535 -0.05640347 C107.09421843 -0.04647611 118.70006197 -0.05940486 130.30604044 -0.08333766 C142.24042437 -0.10776103 154.17473408 -0.11732835 166.10914248 -0.11068493 C172.80241633 -0.10719937 179.49554958 -0.10971787 186.18880653 -0.12693596 C192.48522352 -0.14242622 198.78133655 -0.13842599 205.07774162 -0.11963081 C207.38392199 -0.11595053 209.69012499 -0.11903694 211.99628448 -0.1295166 C239.73015733 -0.24588745 239.73015733 -0.24588745 250.92472839 10.38768005 C257.51734388 17.70324554 259.53192991 25.3253056 259.27238464 35.07518005 C258.39025062 43.48023231 255.02439253 51.44408408 248.92472839 57.38768005 C240.2843345 63.80013767 232.49839498 65.69078678 221.95625305 65.65510559 C220.9684025 65.6596367 219.98055195 65.66416782 218.96276653 65.66883624 C215.66113951 65.68147054 212.35967765 65.67986048 209.05802917 65.6782074 C206.68739104 65.68419319 204.31675485 65.69099885 201.94612122 65.69856262 C195.51224189 65.71622323 189.07841578 65.720918 182.64451456 65.72219419 C178.62400158 65.72318342 174.60349788 65.72775849 170.58298874 65.73318863 C157.27824805 65.75079136 143.97353956 65.76002886 130.66878714 65.75852768 C129.95225654 65.75844777 129.23572594 65.75836786 128.4974823 65.75828552 C127.42136809 65.75816288 127.42136809 65.75816288 126.32351421 65.75803776 C114.69670256 65.75722484 103.07002044 65.77636656 91.44324626 65.80456226 C79.49309083 65.83331261 67.54299854 65.84710141 55.59280765 65.8453747 C48.88839525 65.84471161 42.18413906 65.85055949 35.4797554 65.8717308 C29.17434243 65.89109905 22.86921629 65.891247 16.56379318 65.87669754 C14.25193106 65.87460672 11.94005105 65.87932656 9.6282196 65.89141846 C6.46753367 65.90687738 3.30783601 65.89755776 0.14717102 65.88215637 C-1.21875759 65.89758706 -1.21875759 65.89758706 -2.61228073 65.91332948 C-11.97774797 65.81276758 -20.39062389 61.97381718 -27.07527161 55.38768005 C-33.3365143 47.11339925 -35.91464221 38.7338351 -35.07527161 28.38768005 C-33.49390569 18.42507476 -28.60185038 10.94819983 -20.61433411 4.8603363 C-13.70233252 0.85137539 -7.84022699 -0.05173468 0 0 Z " fill="#4F91CD" transform="translate(741.0752716064453,145.61231994628906)"/>
<path d="M0 0 C8.15486963 5.00920694 13.93165986 11.87299968 16.69836283 21.20739329 C17.15068819 23.37958513 17.26889164 25.32782785 17.27931976 27.54498863 C17.2856277 28.38730077 17.29193564 29.22961291 17.29843473 30.09744966 C17.30029673 31.01785811 17.30215873 31.93826655 17.30407715 32.88656616 C17.30987053 33.86832561 17.31566392 34.85008506 17.32163286 35.8615948 C17.33971154 39.16081754 17.35056981 42.46002317 17.36132812 45.75927734 C17.3725029 48.12135982 17.38401621 50.48344072 17.39584351 52.84552002 C17.43241638 60.61313557 17.45769686 68.38077097 17.48046875 76.1484375 C17.48244365 76.80958701 17.48441855 77.47073651 17.48645329 78.15192086 C17.5256385 91.29269752 17.55931479 104.43348389 17.58153534 117.57430077 C17.58650425 120.46245716 17.59154862 123.35061342 17.59667969 126.23876953 C17.59795036 126.95656395 17.59922103 127.67435838 17.60053021 128.41390415 C17.62186036 140.02468231 17.67082681 151.63517624 17.73092383 163.24581163 C17.79218921 175.18119383 17.82674401 187.11642987 17.83600855 199.05196726 C17.84190187 205.74725454 17.86030679 212.44198691 17.90739441 219.13712692 C17.95119137 225.44264999 17.96150832 231.74736724 17.9467659 238.05301666 C17.94709347 240.35958114 17.95928495 242.66618125 17.98461533 244.97260666 C18.13086842 259.03912231 17.78963811 270.58229801 8.0969162 281.63944054 C6.21977385 283.47859609 4.3445199 284.89200907 2.13671875 286.3125 C1.17378906 286.95638672 1.17378906 286.95638672 0.19140625 287.61328125 C-7.74559824 292.00428564 -19.11427778 291.61539948 -27.73828125 289.375 C-36.46031817 285.77278208 -42.51888785 278.63791195 -46.56420517 270.33206749 C-49.79550048 261.72591248 -48.67200013 251.63367243 -48.60791016 242.6027832 C-48.61277161 240.20184703 -48.6202157 237.80091491 -48.6300354 235.3999939 C-48.64683893 229.57907504 -48.63589781 223.75870401 -48.61150952 217.93782202 C-48.5841369 211.14949262 -48.58755668 204.36127936 -48.59177618 197.57290878 C-48.59814166 185.45727667 -48.57490049 173.34188051 -48.53564453 161.22631836 C-48.49761692 149.486662 -48.48347775 137.74728191 -48.49462891 126.00756836 C-48.50675874 113.19977734 -48.50636628 100.39210745 -48.48365724 87.58432645 C-48.48124283 86.21745917 -48.47883086 84.85059188 -48.47642136 83.48372459 C-48.47521428 82.81132384 -48.4740072 82.13892309 -48.47276355 81.44614655 C-48.46502376 76.72084652 -48.46578516 71.99559177 -48.46959305 67.27028847 C-48.47336505 60.90648173 -48.45710354 54.54302838 -48.42547226 48.17930222 C-48.41700069 45.84649175 -48.41527598 43.51364537 -48.42085266 41.18082619 C-48.42731852 37.99189485 -48.40907955 34.80401214 -48.38467407 31.6151886 C-48.39223272 30.69630728 -48.39979137 29.77742595 -48.40757906 28.83069974 C-48.28472357 19.73111137 -45.00965146 12.80520541 -38.8671875 6.171875 C-28.43354296 -3.50924547 -13.11643877 -6.41347091 0 0 Z " fill="#FCB930" transform="translate(933.86328125,467.6875)"/>
<path d="M0 0 C2.05321165 0.02379753 4.10513022 0.0204995 6.15844727 0.01391602 C29.1608424 0.06092575 51.54687323 6.72529592 68.44946289 22.90258789 C68.91352539 23.37567383 69.37758789 23.84875977 69.85571289 24.33618164 C65.23911568 29.86000239 60.36500836 35.04145005 55.29321289 40.14868164 C54.18042969 41.29240234 54.18042969 41.29240234 53.04516602 42.45922852 C52.32135742 43.18819336 51.59754883 43.9171582 50.85180664 44.66821289 C49.88005493 45.65398315 49.88005493 45.65398315 48.88867188 46.65966797 C46.61881986 48.53153944 44.67538979 49.51127617 41.85571289 50.33618164 C39.67211914 49.17602539 39.67211914 49.17602539 37.41821289 47.27368164 C29.19550766 41.05142559 19.17386055 37.57539681 8.85571289 37.33618164 C7.64012695 37.2859082 6.42454102 37.23563477 5.17211914 37.18383789 C-6.38388409 36.83697743 -17.19979125 37.43621975 -26.29663086 45.41040039 C-31.46479516 50.79709172 -32.41096286 55.38141051 -32.70678711 62.83618164 C-32.53443176 68.2546028 -32.16799884 72.39093264 -28.83569336 76.75805664 C-25.67236675 79.70952073 -22.07818876 81.59825933 -18.14428711 83.33618164 C-17.45334961 83.65876953 -16.76241211 83.98135742 -16.05053711 84.3137207 C-12.20157416 85.66784174 -8.3961353 86.16267833 -4.36303711 86.70336914 C-2.61561052 86.9518509 -0.86821572 87.20055621 0.87915039 87.44946289 C3.60553589 87.8303765 6.33231122 88.20798282 9.05981445 88.58081055 C27.46145864 91.11330077 48.96900271 94.48026631 61.85571289 109.33618164 C73.97864843 125.55841909 77.31218209 144.64094279 74.55102539 164.53100586 C71.50986176 180.08205815 62.21728056 193.30600695 49.54321289 202.61352539 C25.82175919 217.81870138 -3.97433585 221.21104881 -31.42871094 215.67602539 C-33.33978488 215.25529063 -35.24231234 214.79630484 -37.14428711 214.33618164 C-38.95219727 213.91852539 -38.95219727 213.91852539 -40.79663086 213.49243164 C-57.06603746 209.32171083 -71.36921665 201.26626619 -82.14428711 188.33618164 C-73.56428711 179.75618164 -64.98428711 171.17618164 -56.14428711 162.33618164 C-52.8674771 163.97458664 -50.0001786 165.69982046 -46.95678711 167.71118164 C-29.34480684 178.88088491 -6.68066755 181.59623524 13.73071289 177.21118164 C20.44334997 175.117152 26.65084673 171.87713746 30.35571289 165.71118164 C33.49435387 158.64923943 34.23161639 150.99753694 32.01977539 143.50415039 C29.27025268 137.35001734 26.08757294 133.87006044 19.85571289 131.33618164 C10.52405797 128.87561111 1.04178956 127.62565122 -8.51928711 126.46118164 C-30.20247256 123.62232448 -50.39823432 118.24272131 -64.51928711 100.27368164 C-65.41928336 98.97819409 -66.29601958 97.66611527 -67.14428711 96.33618164 C-67.52198242 95.74708008 -67.89967773 95.15797852 -68.28881836 94.55102539 C-76.13320141 80.71318113 -76.19745499 61.3864886 -72.51928711 46.27368164 C-66.88440746 28.21866933 -55.39494809 16.27975384 -39.14428711 7.33618164 C-27.0480607 1.08707374 -13.39362809 -0.16535343 0 0 Z " fill="#7D6B55" transform="translate(467.144287109375,1059.663818359375)"/>
<path d="M0 0 C13.86 0 27.72 0 42 0 C42 70.62 42 141.24 42 214 C28.14 214 14.28 214 0 214 C0 143.38 0 72.76 0 0 Z " fill="#7C6B55" transform="translate(149,1061)"/>
<path d="M0 0 C5.28 0 10.56 0 16 0 C16 33.66 16 67.32 16 102 C11.05 102 6.1 102 1 102 C0.505 98.04 0.505 98.04 0 94 C-0.495 94.7425 -0.99 95.485 -1.5 96.25 C-5.92970128 101.12267141 -12.04870527 103.74629784 -18.58984375 104.30859375 C-29.57578077 104.75738854 -37.74961397 103.40601757 -46.37109375 95.94921875 C-56.57469966 85.40861301 -57.48390431 72.67787023 -57.28515625 58.7265625 C-56.87023293 48.20544153 -52.30083602 39.96183359 -44.75 32.8125 C-37.59349382 26.73644037 -31.69649822 25.40235289 -22.31640625 25.65234375 C-12.99220431 26.62979248 -8.18459817 29.84177299 -1 36 C-0.67 24.12 -0.34 12.24 0 0 Z " fill="#7D6B56" transform="translate(1514,1173)"/>
<path d="M0 0 C5.28 0 10.56 0 16 0 C16.33 11.88 16.66 23.76 17 36 C19.64 33.69 22.28 31.38 25 29 C31.83068879 24.8480127 39.82216635 25.03817332 47.5234375 26.46875 C57.05142977 29.27700035 63.60341077 34.52484208 68.55859375 43.1015625 C74.30615243 54.65898402 75.15449585 69.1961161 71.375 81.5625 C67.69635225 90.8296161 63.02456876 97.41251088 54 102 C49.15279321 103.99510209 44.85418621 104.38648663 39.6875 104.375 C38.55973145 104.37258301 38.55973145 104.37258301 37.40917969 104.37011719 C29.16359422 104.18815057 23.07324774 101.69366976 17 96 C16.505 95.01 16.505 95.01 16 94 C15.67 96.64 15.34 99.28 15 102 C10.05 102 5.1 102 0 102 C0 68.34 0 34.68 0 0 Z " fill="#7D6B56" transform="translate(1969,1173)"/>
<path d="M0 0 C8.848125 -0.0825 17.69625 -0.165 26.8125 -0.25 C30.96936401 -0.30462402 30.96936401 -0.30462402 35.21020508 -0.36035156 C37.43830595 -0.37204804 39.66641546 -0.38223759 41.89453125 -0.390625 C43.59144104 -0.4213208 43.59144104 -0.4213208 45.32263184 -0.45263672 C54.74271784 -0.45671954 63.81760456 1.50243002 71.43359375 7.375 C78.62499059 14.83540171 80.35090029 22.90257409 80.3828125 32.88012695 C80.20987966 41.91136441 77.97961486 49.54487231 71.375 56 C60.6205379 63.87967416 49.55383648 63.50333586 36.8125 63.25 C30.934375 63.1675 25.05625 63.085 19 63 C19 75.87 19 88.74 19 102 C12.73 102 6.46 102 0 102 C0 68.34 0 34.68 0 0 Z " fill="#806E59" transform="translate(687,1173)"/>
<path d="M0 0 C7.90343373 6.06313315 12.69492535 12.97934365 14.55859375 22.83984375 C16.17840191 35.99584664 14.52280863 48.57921737 6.58203125 59.5078125 C0.31457084 66.62339255 -7.68255535 70.91891614 -17.14746094 71.58374023 C-34.53106906 72.34860342 -34.53106906 72.34860342 -42.12109375 67.44140625 C-43.17296875 66.84328125 -44.22484375 66.24515625 -45.30859375 65.62890625 C-53.00126003 59.64572137 -57.98259394 51.71270977 -59.80078125 42.109375 C-61.31378603 29.50715229 -60.53394403 17.09137094 -52.93359375 6.50390625 C-39.62789194 -8.9579434 -16.84024886 -11.3969361 0 0 Z " fill="#7E6C57" transform="translate(837.12109375,1205.55859375)"/>
<path d="M0 0 C6.96200784 5.67918106 11.13130778 12.87546962 13.03515625 21.66015625 C13.2772518 24.88626286 13.26620052 28.11333453 13.28515625 31.34765625 C13.30578125 32.20810547 13.32640625 33.06855469 13.34765625 33.95507812 C13.41260235 44.72801186 9.69957428 53.23934611 2.72265625 61.34765625 C-7.75850103 70.36632646 -18.51337443 71.53752522 -31.89746094 70.84228516 C-41.15764729 70.02649642 -47.97742555 64.44108771 -53.96484375 57.66015625 C-61.71578126 46.30888469 -62.18168389 34.04266942 -60.96484375 20.66015625 C-59.04834215 12.26874502 -54.59223845 5.15763448 -47.96484375 -0.33984375 C-32.80654355 -9.67105712 -14.80327915 -10.62598697 0 0 Z " fill="#7D6C56" transform="translate(1393.96484375,1206.33984375)"/>
<path d="M0 0 C0.88075195 0.00757324 1.76150391 0.01514648 2.66894531 0.02294922 C12.82948585 0.27967996 21.9315524 2.99785753 29.1875 10.4375 C35.87475796 19.18644223 38.54160748 26.95239051 38.4375 37.875 C38.44910156 39.08639648 38.44910156 39.08639648 38.4609375 40.32226562 C38.42589569 51.19398612 35.01715099 61.60784901 27.1875 69.4375 C15.21619531 77.70783139 4.40480634 78.54316185 -9.8125 77.4375 C-18.39853434 75.82250783 -25.42837105 70.24131231 -30.4140625 63.1640625 C-35.05327262 55.21500656 -36.17512763 47.70013088 -36.1875 38.625 C-36.21199219 37.69107422 -36.23648437 36.75714844 -36.26171875 35.79492188 C-36.30428105 25.57287693 -32.80070579 16.92486334 -25.8125 9.4375 C-18.1055022 2.3860767 -10.29399179 -0.12390552 0 0 Z " fill="#7E6C56" transform="translate(1172.8125,1059.5625)"/>
<path d="M0 0 C6.46257292 4.65633657 10.68376329 10.32319809 12.125 18.25 C12.125 20.56 12.125 22.87 12.125 25.25 C6.185 25.25 0.245 25.25 -5.875 25.25 C-6.4628125 23.1771875 -6.4628125 23.1771875 -7.0625 21.0625 C-8.777818 15.94070541 -11.1132112 12.68390863 -16.01171875 10.140625 C-19.8310014 8.95263531 -23.3361172 8.9202264 -27.3125 8.9375 C-28.41948242 8.91333008 -28.41948242 8.91333008 -29.54882812 8.88867188 C-35.21787899 8.88363272 -39.35320578 10.06444501 -43.75 13.875 C-45.52678532 17.62599124 -45.52255859 21.18274997 -44.875 25.25 C-42.37356522 29.67561538 -39.43510505 31.22388064 -34.875 33.25 C-32.30690781 33.92581373 -29.7820668 34.52263767 -27.1875 35.0625 C2.75009524 41.84861936 2.75009524 41.84861936 11.125 52.25 C11.61355469 52.85328125 12.10210938 53.4565625 12.60546875 54.078125 C16.57051637 60.30311444 15.86253593 68.19398612 15.125 75.25 C13.19948855 83.08876852 8.13010812 89.66956605 1.390625 94.01171875 C-12.46116691 101.42206857 -27.45593958 101.90748285 -42.58203125 98.28125 C-51.48390752 95.4934738 -58.80200412 90.12833922 -63.875 82.25 C-66.62287612 75.77619016 -67.875 70.30207584 -67.875 63.25 C-61.935 63.25 -55.995 63.25 -49.875 63.25 C-49.6275 64.61125 -49.38 65.9725 -49.125 67.375 C-47.8233577 73.13295932 -45.70746559 76.8158965 -41 80.5 C-32.85173411 85.0630289 -23.95023079 85.64587548 -14.8828125 83.5625 C-10.84888603 82.12608701 -8.29474619 80.66974619 -5.25 77.625 C-3.38101732 73.03749707 -3.09907272 69.13425806 -3.875 64.25 C-5.83395547 60.24691709 -8.00129086 59.02370315 -12.0625 57.625 C-13.6651929 57.16153953 -15.26935909 56.70314172 -16.875 56.25 C-18.20993007 55.77529991 -19.54325567 55.29606542 -20.875 54.8125 C-24.5286037 53.57117055 -28.19506741 52.72627197 -31.96142578 51.9206543 C-43.78360787 49.35472993 -54.9794277 45.96497611 -61.875 35.25 C-65.28850884 28.44612475 -65.11139741 19.47803758 -63 12.2578125 C-60.3980487 6.62595739 -56.97228869 2.73588775 -51.875 -0.75 C-51.30652344 -1.13929687 -50.73804688 -1.52859375 -50.15234375 -1.9296875 C-35.60377594 -11.01011479 -14.05397546 -8.50207441 0 0 Z " fill="#7E6C56" transform="translate(1730.875,1177.75)"/>
<path d="M0 0 C4.57814967 4.67243651 6.08263692 9.29711999 6.20532227 15.67675781 C6.2352401 17.05773651 6.2352401 17.05773651 6.26576233 18.46661377 C6.28247482 19.45216248 6.29918732 20.43771118 6.31640625 21.453125 C6.33718735 22.46848328 6.35796844 23.48384155 6.37937927 24.52996826 C6.44470597 27.76991073 6.50368137 31.00993348 6.5625 34.25 C6.60570126 36.44792493 6.64931607 38.64584178 6.69335938 40.84375 C6.80037007 46.22908206 6.90216773 51.6144938 7 57 C9.31 57.33 11.62 57.66 14 58 C14 61.63 14 65.26 14 69 C8.07824906 71.36870038 3.30725748 71.85118185 -3 71 C-5.83753601 69.63630432 -6.9261475 68.47710159 -9 66 C-9 65.01 -9 64.02 -9 63 C-9.4846875 63.32613281 -9.969375 63.65226562 -10.46875 63.98828125 C-11.1390625 64.42527344 -11.809375 64.86226562 -12.5 65.3125 C-13.47453125 65.95638672 -13.47453125 65.95638672 -14.46875 66.61328125 C-20.96255832 70.17084599 -26.61278779 71.48845548 -34 71.375 C-34.75539063 71.38660156 -35.51078125 71.39820313 -36.2890625 71.41015625 C-42.61565859 71.37754493 -48.0857648 70.14252135 -53.2421875 66.3515625 C-54.05042969 65.49691406 -54.05042969 65.49691406 -54.875 64.625 C-55.70644531 63.77808594 -55.70644531 63.77808594 -56.5546875 62.9140625 C-59.97976632 58.37814731 -60.3186846 54.15461915 -60.375 48.5625 C-60.40335938 47.28503906 -60.43171875 46.00757813 -60.4609375 44.69140625 C-59.76740731 39.13728736 -56.93197684 35.29121206 -52.625 31.8125 C-45.02096562 26.42923721 -35.06593797 26.10537258 -26.0625 25 C-20.82960927 24.34656932 -16.58842581 23.62195761 -12 21 C-10.47508002 17.95016004 -10.76437452 15.3576631 -11 12 C-12.49526657 9.59095942 -13.94022319 9.02839398 -16.5 7.8125 C-22.61634003 6.39263535 -29.20717467 5.69683482 -35 8.5625 C-38.73134132 11.20826276 -38.73134132 11.20826276 -41 18 C-46.61 18 -52.22 18 -58 18 C-56.94971621 9.59772971 -55.57446719 5.57446719 -49.75 -0.25 C-34.76756551 -9.7842765 -14.93682365 -9.95788244 0 0 Z " fill="#7F6D58" transform="translate(2112,1206)"/>
<path d="M0 0 C7.5075 -0.103125 15.015 -0.20625 22.75 -0.3125 C25.09448242 -0.35802002 27.43896484 -0.40354004 29.85449219 -0.45043945 C52.23403293 -0.70537635 52.23403293 -0.70537635 61.19604492 6.85180664 C67.13391455 12.68842149 70.09477228 20.76472707 70.5 29 C70.11641891 37.3065147 67.09656731 45.30987051 61 51 C52.59929564 56.56935586 45.32659206 58.30134989 35.3515625 58.1953125 C34.45332764 58.19329834 33.55509277 58.19128418 32.62963867 58.18920898 C29.29470669 58.17879524 25.95984787 58.15087283 22.625 58.125 C15.15875 58.08375 7.6925 58.0425 0 58 C0 38.86 0 19.72 0 0 Z " fill="#FEFDFD" transform="translate(268,1099)"/>
<path d="M0 0 C8.46613895 5.63455869 12.83855947 13.5156784 16 23 C16 28.28 16 33.56 16 39 C-1.82 39 -19.64 39 -38 39 C-36.00822973 49.29908752 -36.00822973 49.29908752 -29.5 56.875 C-23.58791792 59.53543694 -16.98620859 60.12919902 -10.7109375 58.3515625 C-5.42132499 56.03364241 -3.39281532 53.18443319 -1 48 C4.28 48 9.56 48 15 48 C12.20879865 57.92427145 8.09603849 64.06743687 -0.55859375 69.7734375 C-6.38450755 72.70037659 -11.97988007 73.36282697 -18.375 73.3125 C-19.12450928 73.30686035 -19.87401855 73.3012207 -20.64624023 73.29541016 C-31.18714771 73.06419468 -38.05373567 69.60294653 -45.69140625 62.40625 C-53.86716624 53.71822434 -55.50811841 42.49849528 -55.2734375 30.9921875 C-54.77330379 20.72706699 -51.04122644 12.38506552 -44 5 C-43.46503906 4.42507813 -42.93007812 3.85015625 -42.37890625 3.2578125 C-30.78530669 -7.91875111 -13.3680878 -7.65556191 0 0 Z " fill="#7F6D58" transform="translate(1599,1204)"/>
<path d="M0 0 C8.79929569 5.97154471 13.70908747 15.49074986 15.75390625 25.71484375 C15.75390625 30.00484375 15.75390625 34.29484375 15.75390625 38.71484375 C-2.06609375 38.71484375 -19.88609375 38.71484375 -38.24609375 38.71484375 C-36.03046843 49.98237011 -36.03046843 49.98237011 -28.74609375 57.65234375 C-22.13997521 59.65777259 -15.10678017 59.9919359 -8.74609375 57.15234375 C-6.26667081 54.99445158 -6.26667081 54.99445158 -5.3125 52.890625 C-4.11328088 50.59017742 -3.34492811 49.28249163 -1.24609375 47.71484375 C3.81890834 47.09120859 8.67769589 47.31257802 13.75390625 47.71484375 C12.68742553 56.58127168 8.51952305 62.08366371 1.75390625 67.71484375 C-7.70657727 73.58564848 -18.37277045 74.09201497 -29.24609375 72.71484375 C-37.39092632 70.63874634 -44.20575433 66.03189991 -48.91796875 59.046875 C-55.47626814 47.53127283 -57.2848108 34.47738596 -54.5625 21.44140625 C-51.12860467 11.267957 -44.26205276 2.85841536 -35.00390625 -2.609375 C-23.44949176 -8.00774898 -10.80573857 -6.18276172 0 0 Z " fill="#806E59" transform="translate(1033.24609375,1204.28515625)"/>
<path d="M0 0 C8.80125948 6.44026588 16.131777 14.97748433 18 26 C18.19101355 30.34168636 18.27041364 34.66080443 18 39 C17 40 17 40 14.82969666 40.12025452 C13.87261307 40.11803391 12.91552948 40.11581329 11.92944336 40.11352539 C10.84839828 40.11344986 9.76735321 40.11337433 8.65354919 40.11329651 C6.889515 40.10555458 6.889515 40.10555458 5.08984375 40.09765625 C3.89267227 40.0962413 2.69550079 40.09482635 1.46205139 40.09336853 C-2.37949066 40.08774979 -6.22097543 40.07519411 -10.0625 40.0625 C-12.65950437 40.05748741 -15.25650965 40.05292409 -17.85351562 40.04882812 C-24.23569679 40.03777427 -30.6178443 40.02101792 -37 40 C-36.3771993 41.93774835 -35.74845782 43.87358803 -35.1171875 45.80859375 C-34.76769043 46.88681396 -34.41819336 47.96503418 -34.05810547 49.07592773 C-32.40743147 53.63756191 -30.37614046 56.00229816 -26.5 58.8125 C-20.23555298 60.93793738 -13.76444702 60.93793738 -7.5 58.8125 C-3.73083559 56.0798558 -1.47498958 53.42496874 0 49 C5.28 49 10.56 49 16 49 C14.57617364 57.54295817 11.00322881 63.00456298 4.265625 68.45703125 C-5.09747603 74.83362592 -16.02961832 75.26040381 -27 74 C-30.44817452 73.16606649 -33.06388693 71.96756125 -36 70 C-36.70382812 69.55269531 -37.40765625 69.10539062 -38.1328125 68.64453125 C-45.94761194 63.26644972 -49.52762492 57.03753322 -52 48 C-52.17200928 47.37770508 -52.34401855 46.75541016 -52.52124023 46.11425781 C-55.14655285 34.5205774 -53.24020219 22.52471114 -47.4921875 12.32421875 C-43.6198345 6.24552509 -39.34821967 2.36866998 -33 -1 C-32.39800781 -1.33902344 -31.79601563 -1.67804688 -31.17578125 -2.02734375 C-21.74892645 -6.46471358 -8.75982235 -5.42553271 0 0 Z " fill="#7F6D58" transform="translate(1809,1203)"/>
<path d="M0 0 C0.92055176 0.00829834 1.84110352 0.01659668 2.78955078 0.02514648 C11.58174325 0.24452191 17.87880118 1.73863313 24.4375 7.8125 C29.08585018 12.95418923 30.5 16.35380098 30.5 23.4375 C24.89 23.4375 19.28 23.4375 13.5 23.4375 C12.51 21.4575 11.52 19.4775 10.5 17.4375 C8.04904131 14.84461497 6.80703975 14.4715342 3.22265625 14.07421875 C2.01480469 14.09097656 0.80695312 14.10773438 -0.4375 14.125 C-2.24541016 14.13080078 -2.24541016 14.13080078 -4.08984375 14.13671875 C-7.54456227 14.44143046 -10.94630735 14.88380735 -13.5 17.4375 C-14.00095023 20.31056228 -14.00095023 20.31056228 -13.5 23.4375 C-9.27032061 28.00800066 -4.22159092 28.72755906 1.625 29.9375 C3.51660279 30.36154698 5.40724666 30.78989572 7.296875 31.22265625 C8.19857422 31.42906738 9.10027344 31.63547852 10.02929688 31.84814453 C19.47277956 34.10076975 26.66476026 37.11765133 32.4375 45.125 C34.30608438 50.9505866 34.62967653 56.34971749 32.50390625 62.16015625 C28.39031047 69.88625824 22.44447444 73.65404529 14.359375 76.5703125 C9.41588084 77.68109763 4.7386903 77.80561358 -0.3125 77.8125 C-1.24642578 77.83699219 -2.18035156 77.86148437 -3.14257812 77.88671875 C-12.16071942 77.92426826 -20.3365993 75.46680066 -27.02734375 69.203125 C-31.75385638 63.53632471 -32.5 58.78153708 -32.5 51.4375 C-27.22 51.4375 -21.94 51.4375 -16.5 51.4375 C-15.62109375 53.68359375 -14.7421875 55.9296875 -13.86328125 58.17578125 C-12.07023874 61.15048501 -10.70255421 62.07240585 -7.5 63.4375 C-4.65398363 63.84966668 -1.87133779 63.85713219 1 63.8125 C1.74636719 63.82410156 2.49273438 63.83570313 3.26171875 63.84765625 C7.81533753 63.82347774 10.79637963 63.35766221 14.5 60.4375 C15.89935013 57.63879973 15.75265405 55.53251208 15.5 52.4375 C11.12365455 47.04506981 3.29399475 46.07031133 -3.1640625 44.70239258 C-22.79125544 40.52206915 -22.79125544 40.52206915 -28.1953125 33.11328125 C-31.94872467 26.41661965 -32.58453661 21.30116168 -30.5 13.875 C-26.30518213 6.66515678 -21.1562486 3.23371979 -13.22680664 1.02197266 C-8.80643847 0.07449648 -4.5081129 -0.05253536 0 0 Z " fill="#7F6D58" transform="translate(835.5,1059.5625)"/>
<path d="M0 0 C5.61 0 11.22 0 17 0 C17.01458252 1.53857666 17.02916504 3.07715332 17.04418945 4.66235352 C17.10228368 10.3858939 17.17951679 16.10904548 17.26245117 21.83227539 C17.29564804 24.30649492 17.32369618 26.78078922 17.34643555 29.25512695 C17.38007701 32.81754334 17.43239987 36.37927772 17.48828125 39.94140625 C17.49467117 41.04271378 17.5010611 42.1440213 17.50764465 43.27870178 C17.63614396 50.03372501 17.94330584 55.78587953 22.8203125 60.9140625 C28.14918155 63.56894708 35.0081249 62.64024557 40.5 60.875 C44.40263667 57.94802249 46.46910212 54.59269363 48 50 C48.11492784 48.35912211 48.17632354 46.7142222 48.20532227 45.06958008 C48.22526749 44.06876907 48.24521271 43.06795807 48.26576233 42.03681946 C48.29083107 40.4195118 48.29083107 40.4195118 48.31640625 38.76953125 C48.33718735 37.66397385 48.35796844 36.55841644 48.37937927 35.4193573 C48.44482332 31.8838021 48.50373603 28.34817194 48.5625 24.8125 C48.6056901 22.41730992 48.64930454 20.02212745 48.69335938 17.62695312 C48.80049952 11.75137912 48.90178168 5.87572964 49 0 C54.61 0 60.22 0 66 0 C66 24.75 66 49.5 66 75 C60.39 75 54.78 75 49 75 C48.505 71.04 48.505 71.04 48 67 C47.49210937 67.48210937 46.98421875 67.96421875 46.4609375 68.4609375 C45.77257813 69.09257813 45.08421875 69.72421875 44.375 70.375 C43.70210937 71.00148438 43.02921875 71.62796875 42.3359375 72.2734375 C37.40018171 75.92160482 32.56722054 76.27458432 26.5625 76.25 C24.67724609 76.25773437 24.67724609 76.25773437 22.75390625 76.265625 C16.50738242 75.82362331 11.30772724 74.50215421 6.75590515 70.1335907 C0.12099615 62.07154923 -0.71549222 51.70071299 -0.48828125 41.69921875 C-0.47766914 39.89563652 -0.47766914 39.89563652 -0.46684265 38.05561829 C-0.43915311 34.26557624 -0.37646027 30.47708536 -0.3125 26.6875 C-0.28738438 24.09702674 -0.264577 21.50653002 -0.24414062 18.91601562 C-0.18940953 12.61009162 -0.10331358 6.30530754 0 0 Z " fill="#816F5A" transform="translate(1010,1061)"/>
<path d="M0 0 C5.74435541 3.20358282 10.74126174 8.24718211 12.85227966 14.63494873 C13.34314715 17.32248825 13.36946669 19.85782165 13.36352539 22.59082031 C13.36341209 24.33217255 13.36341209 24.33217255 13.36329651 26.10870361 C13.35813522 27.35673767 13.35297394 28.60477173 13.34765625 29.890625 C13.3462413 31.17233582 13.34482635 32.45404663 13.34336853 33.77459717 C13.33955901 37.1743364 13.32974214 40.5740326 13.31866455 43.97375488 C13.30841674 47.446039 13.3038637 50.9183301 13.29882812 54.390625 C13.28811841 61.19793608 13.27053433 68.00521154 13.25 74.8125 C7.64 74.8125 2.03 74.8125 -3.75 74.8125 C-3.76458252 73.24363037 -3.77916504 71.67476074 -3.79418945 70.05834961 C-3.85227673 64.22299713 -3.92950995 58.3880263 -4.01245117 52.55297852 C-4.04565129 50.03025519 -4.07369842 47.50745846 -4.09643555 44.98461914 C-4.13007096 41.35270994 -4.18239367 37.72147043 -4.23828125 34.08984375 C-4.24467117 32.96666245 -4.2510611 31.84348114 -4.25764465 30.68626404 C-4.37024089 24.65335687 -4.77641006 20.11576158 -7.75 14.8125 C-12.13849645 11.40341049 -18.50160539 12.24966948 -23.75 12.8125 C-28.69586526 15.10879459 -31.05760518 18.12573865 -33.75 22.8125 C-34.71380077 25.7039023 -34.90112024 27.63903923 -34.95532227 30.65112305 C-34.97526749 31.6319133 -34.99521271 32.61270355 -35.01576233 33.62321472 C-35.04083107 35.20771172 -35.04083107 35.20771172 -35.06640625 36.82421875 C-35.08718735 37.90758011 -35.10796844 38.99094147 -35.12937927 40.10713196 C-35.19481797 43.57135616 -35.25373353 47.0356568 -35.3125 50.5 C-35.35569061 52.84701315 -35.39930507 55.19401853 -35.44335938 57.54101562 C-35.55049361 63.29809854 -35.65177727 69.05525842 -35.75 74.8125 C-41.03 74.8125 -46.31 74.8125 -51.75 74.8125 C-51.75 50.0625 -51.75 25.3125 -51.75 -0.1875 C-46.8 -0.1875 -41.85 -0.1875 -36.75 -0.1875 C-34.70301586 1.85948414 -35.04954307 6.11661241 -34.75 8.8125 C-34.09 8.090625 -33.43 7.36875 -32.75 6.625 C-31.76193104 5.67493369 -30.76085612 4.73828407 -29.75 3.8125 C-28.99976563 3.09707031 -28.99976563 3.09707031 -28.234375 2.3671875 C-20.93831148 -3.38421393 -8.53751715 -2.8186841 0 0 Z " fill="#7E6C57" transform="translate(776.75,1061.1875)"/>
<path d="M0 0 C4.98984827 3.65983357 8.12580635 7.70328492 10.125 13.55859375 C10.36550903 16.3997345 10.36550903 16.3997345 10.35205078 19.54223633 C10.35189972 20.72308304 10.35174866 21.90392975 10.35159302 23.12055969 C10.34127045 24.38530624 10.33094788 25.6500528 10.3203125 26.953125 C10.3174826 28.25561691 10.31465271 29.55810883 10.31173706 30.90007019 C10.30412697 34.35081759 10.28450135 37.80139473 10.2623291 41.2520752 C10.24181388 44.77805275 10.23272324 48.304058 10.22265625 51.83007812 C10.2012527 58.73966003 10.16609218 65.64910117 10.125 72.55859375 C4.845 72.55859375 -0.435 72.55859375 -5.875 72.55859375 C-5.88958252 71.01478027 -5.90416504 69.4709668 -5.91918945 67.88037109 C-5.9772319 62.14380926 -6.05446538 56.40763749 -6.13745117 50.67138672 C-6.17067236 48.1903314 -6.19871298 45.70920102 -6.22143555 43.22802734 C-6.2550322 39.65820374 -6.30735283 36.0890663 -6.36328125 32.51953125 C-6.36967117 31.41306244 -6.3760611 30.30659363 -6.38264465 29.16659546 C-6.48869192 23.59143881 -6.6373917 19.32129233 -9.875 14.55859375 C-13.96071437 10.86199503 -17.27570999 9.91033296 -22.6328125 10.171875 C-27.56665321 11.02283359 -30.85141241 13.45419661 -34.25 17.12109375 C-36.59938747 20.64517496 -37.00738056 23.35217683 -37.08032227 27.48901367 C-37.10026749 28.48982468 -37.12021271 29.49063568 -37.14076233 30.52177429 C-37.15747482 31.5999794 -37.17418732 32.67818451 -37.19140625 33.7890625 C-37.21218735 34.8946199 -37.23296844 36.00017731 -37.25437927 37.13923645 C-37.31982332 40.67479165 -37.37873603 44.21042181 -37.4375 47.74609375 C-37.4806901 50.14128383 -37.52430454 52.5364663 -37.56835938 54.93164062 C-37.67549952 60.80721463 -37.77678168 66.68286411 -37.875 72.55859375 C-43.485 72.55859375 -49.095 72.55859375 -54.875 72.55859375 C-54.875 48.13859375 -54.875 23.71859375 -54.875 -1.44140625 C-49.595 -1.44140625 -44.315 -1.44140625 -38.875 -1.44140625 C-38.545 1.52859375 -38.215 4.49859375 -37.875 7.55859375 C-36.905625 6.48609375 -35.93625 5.41359375 -34.9375 4.30859375 C-25.43217847 -5.02631365 -11.67759277 -6.77991817 0 0 Z " fill="#7E6C56" transform="translate(1194.875,1202.44140625)"/>
<path d="M0 0 C5.61 0 11.22 0 17 0 C17.01458252 1.57410645 17.02916504 3.14821289 17.04418945 4.77001953 C17.10222597 10.61839343 17.17945953 16.46638449 17.26245117 22.31445312 C17.29567514 24.84401225 17.32371489 27.37364505 17.34643555 29.90332031 C17.38002704 33.54263667 17.43234754 37.18127934 17.48828125 40.8203125 C17.49467117 41.94865509 17.5010611 43.07699768 17.50764465 44.23953247 C17.63072517 50.83465676 17.96081068 55.92176328 22.82421875 60.84765625 C27.67122534 63.41474232 34.01403165 62.79555107 39.19921875 61.4140625 C43.77257399 59.25139126 45.32087745 56.03063487 47.17492676 51.63137817 C48.64705851 46.93635819 48.60352055 42.28819785 48.609375 37.40234375 C48.62591125 36.32747208 48.64244751 35.2526004 48.65948486 34.14515686 C48.70771834 30.74254501 48.72928158 27.34037931 48.75 23.9375 C48.7781802 21.61781639 48.80811046 19.29815335 48.83984375 16.97851562 C48.91347108 11.31904718 48.9631964 5.65982284 49 0 C54.28 0 59.56 0 65 0 C65 24.42 65 48.84 65 74 C59.72 74 54.44 74 49 74 C48.505 70.04 48.505 70.04 48 66 C47.319375 67.0828125 47.319375 67.0828125 46.625 68.1875 C41.40090492 73.78474473 35.77017108 76.19368084 28.08789062 76.59570312 C19.17364563 76.72078608 12.27833392 74.94057071 5.625 68.8125 C0.60502357 60.12407925 -0.5661822 52.75082443 -0.390625 42.7734375 C-0.38496521 41.54460846 -0.37930542 40.31577942 -0.37347412 39.04971313 C-0.35123617 35.15773148 -0.30106079 31.26669941 -0.25 27.375 C-0.22991886 24.72266962 -0.21167093 22.0703247 -0.1953125 19.41796875 C-0.15141223 12.94495137 -0.08247013 6.47263621 0 0 Z " fill="#7E6C56" transform="translate(1886,1201)"/>
<path d="M0 0 C5.57531915 4.5636685 9.29370629 9.25809714 11.6875 16.1875 C11.6875 17.8375 11.6875 19.4875 11.6875 21.1875 C6.0775 21.1875 0.4675 21.1875 -5.3125 21.1875 C-5.68375 19.95 -6.055 18.7125 -6.4375 17.4375 C-8.05715908 13.0798458 -10.14576513 11.35767441 -14.3125 9.1875 C-19.78828663 7.36223779 -25.21990347 7.38622977 -30.5625 9.6875 C-35.36386473 12.37089745 -38.33747562 16.81180748 -39.85449219 22.06396484 C-41.74432129 30.82608293 -41.52810672 42.15761738 -37.5859375 50.265625 C-35.18821502 53.88427365 -32.47341481 56.25110358 -28.4375 58 C-21.4856586 58.61339777 -15.99228369 58.72125195 -10.3125 54.1875 C-7.63815087 50.42645568 -6.42605608 46.64172431 -5.3125 42.1875 C0.2975 42.1875 5.9075 42.1875 11.6875 42.1875 C10.10922596 52.37454151 7.13764814 60.11261352 -1.109375 66.6796875 C-10.74609546 73.27503165 -21.81906242 73.63293734 -33.08984375 71.71484375 C-41.75483302 69.17169224 -48.43631785 64.10859661 -53.09765625 56.42578125 C-59.09021691 45.38482544 -60.15345903 32.52527249 -57.1875 20.3125 C-54.12738883 10.80327603 -48.96701755 2.74955672 -40.04296875 -2.02734375 C-27.46386694 -7.88924692 -11.60655306 -8.23481697 0 0 Z " fill="#7E6C57" transform="translate(1311.3125,1204.8125)"/>
<path d="M0 0 C6.36146427 4.55193114 9.58743244 9.54058359 11.1875 17.25 C11.1875 18.57 11.1875 19.89 11.1875 21.25 C5.9075 21.25 0.6275 21.25 -4.8125 21.25 C-5.34875 20.0125 -5.885 18.775 -6.4375 17.5 C-8.48404401 13.38506275 -10.70333807 11.43572443 -14.8125 9.25 C-19.9796159 7.52762803 -24.91849758 7.59438378 -30.0625 9.375 C-35.506734 13.08697773 -38.86231701 17.99325999 -40.8125 24.25 C-41.2123011 27.05643359 -41.24226082 29.79399273 -41.1875 32.625 C-41.17879883 33.37233398 -41.17009766 34.11966797 -41.16113281 34.88964844 C-40.97689039 41.8274329 -39.68372252 47.17584871 -36.0625 53.125 C-32.21584477 56.75795216 -28.0635121 58.39094326 -22.8125 58.625 C-17.54198682 58.39007403 -13.37399568 56.7681208 -9.5625 53.0625 C-7.38394426 49.56124971 -6.13602676 46.15440395 -4.8125 42.25 C0.4675 42.25 5.7475 42.25 11.1875 42.25 C9.59567671 53.39276302 6.64439899 59.72535759 -1.8125 67.25 C-4.71425774 69.01326906 -7.5686169 70.26380992 -10.8125 71.25 C-11.39128906 71.43820312 -11.97007813 71.62640625 -12.56640625 71.8203125 C-22.04972932 73.63451344 -33.5266984 73.55120754 -41.8125 68.25 C-48.22143827 63.50160177 -53.0390846 58.77784181 -55.8125 51.25 C-56.10769531 50.59902344 -56.40289063 49.94804688 -56.70703125 49.27734375 C-61.00932134 38.76718302 -59.84231454 25.68178941 -55.8125 15.25 C-51.12790841 5.80645822 -45.40579046 0.00910881 -35.75 -4.125 C-23.70039818 -8.12479838 -10.73535552 -6.59281275 0 0 Z " fill="#7E6C57" transform="translate(1115.8125,1204.75)"/>
<path d="M0 0 C5.61 0 11.22 0 17 0 C17 7.26 17 14.52 17 22 C21.95 22 26.9 22 32 22 C32 26.29 32 30.58 32 35 C27.05 35 22.1 35 17 35 C17.09336056 41.51474514 17.19941484 48.02911092 17.31738281 54.54345703 C17.35573134 56.7608469 17.39057371 58.97830024 17.421875 61.19580078 C17.46739826 64.37816089 17.52541319 67.56008182 17.5859375 70.7421875 C17.59748871 71.73805878 17.60903992 72.73393005 17.62094116 73.75997925 C17.64081085 74.68078278 17.66068054 75.6015863 17.68115234 76.55029297 C17.69447601 77.3630368 17.70779968 78.17578064 17.7215271 79.01315308 C17.82899081 81.23040058 17.82899081 81.23040058 20 83 C22.66242821 83.46290221 22.66242821 83.46290221 25.625 83.625 C27.39875 83.74875 29.1725 83.8725 31 84 C31 88.29 31 92.58 31 97 C27.83186566 97.1360363 24.66966778 97.23459384 21.5 97.3125 C20.613125 97.35439453 19.72625 97.39628906 18.8125 97.43945312 C13.2497179 97.54171015 9.44708165 96.73311046 4.67382812 93.86401367 C-0.76455076 87.80770929 -0.40785276 80.14608167 -0.29296875 72.5 C-0.28872391 71.42371338 -0.28447906 70.34742676 -0.28010559 69.23852539 C-0.26341025 65.8254213 -0.22577443 62.41292345 -0.1875 59 C-0.17244137 56.67578982 -0.15875503 54.35157032 -0.14648438 52.02734375 C-0.11353659 46.35133149 -0.06181718 40.67576828 0 35 C-3.96 35 -7.92 35 -12 35 C-12 31.04 -12 27.08 -12 23 C-8.04 23 -4.08 23 0 23 C0 15.41 0 7.82 0 0 Z " fill="#806E59" transform="translate(1097,1039)"/>
<path d="M0 0 C5.61 0 11.22 0 17 0 C17 7.26 17 14.52 17 22 C21.95 22 26.9 22 32 22 C32 25.96 32 29.92 32 34 C27.05 34 22.1 34 17 34 C17.06876071 40.49655776 17.15667102 46.99246473 17.26245117 53.48852539 C17.29573508 55.69906406 17.32375612 57.90968843 17.34643555 60.12036133 C17.37991759 63.29545666 17.43223052 66.46976417 17.48828125 69.64453125 C17.49467117 70.63524124 17.5010611 71.62595123 17.50764465 72.64668274 C17.53733589 74.02777473 17.53733589 74.02777473 17.56762695 75.43676758 C17.57873001 76.2472908 17.58983307 77.05781403 17.60127258 77.89289856 C18.09686593 80.51189441 18.89709163 81.4029358 21 83 C23.73230305 83.57775884 23.73230305 83.57775884 26.6875 83.6875 C28.440625 83.790625 30.19375 83.89375 32 84 C32 87.96 32 91.92 32 96 C24.47539168 98.50820277 14.35945094 97.94378038 7 95 C2.62002166 90.8104555 0.26546505 86.71698588 -0.17047119 80.61309814 C-0.23127061 77.71118836 -0.22471483 74.81645956 -0.1953125 71.9140625 C-0.1924826 70.85714203 -0.18965271 69.80022156 -0.18673706 68.71127319 C-0.1755785 65.34906499 -0.15048159 61.98712714 -0.125 58.625 C-0.11496462 56.33984761 -0.10583975 54.05469102 -0.09765625 51.76953125 C-0.07565327 46.17958398 -0.04115296 40.58983777 0 35 C-3.96 35 -7.92 35 -12 35 C-12 30.71 -12 26.42 -12 22 C-8.04 22 -4.08 22 0 22 C0 14.74 0 7.48 0 0 Z " fill="#7F6D58" transform="translate(1843,1179)"/>
<path d="M0 0 C5.28 0 10.56 0 16 0 C16 7.59 16 15.18 16 23 C20.95 23 25.9 23 31 23 C31 26.96 31 30.92 31 35 C26.05 35 21.1 35 16 35 C16.0687654 41.35415082 16.15667787 47.70763655 16.26245117 54.0612793 C16.29573322 56.22331375 16.32375485 58.38543577 16.34643555 60.54760742 C16.37992108 63.65321218 16.432234 66.75801198 16.48828125 69.86328125 C16.49467117 70.83211746 16.5010611 71.80095367 16.50764465 72.79914856 C16.53733589 74.15020943 16.53733589 74.15020943 16.56762695 75.52856445 C16.57873001 76.32132278 16.58983307 77.11408112 16.60127258 77.93086243 C17.10066435 80.52238291 17.92142959 81.41415523 20 83 C22.73230305 83.57775884 22.73230305 83.57775884 25.6875 83.6875 C27.440625 83.790625 29.19375 83.89375 31 84 C31 88.29 31 92.58 31 97 C27.97861433 97.08149592 24.95946095 97.14073421 21.9375 97.1875 C21.08994141 97.21263672 20.24238281 97.23777344 19.36914062 97.26367188 C13.77375588 97.32848328 9.93831507 96.6889922 5 94 C1.22457278 89.92651274 -0.1267614 87.47921764 -0.11352539 81.99951172 C-0.11344986 80.95858368 -0.11337433 79.91765564 -0.11329651 78.84518433 C-0.10813522 77.71807037 -0.10297394 76.59095642 -0.09765625 75.4296875 C-0.0962413 74.27832306 -0.09482635 73.12695862 -0.09336853 71.94070435 C-0.08775716 68.25211014 -0.0752027 64.56357595 -0.0625 60.875 C-0.05748647 58.37890712 -0.05292331 55.8828133 -0.04882812 53.38671875 C-0.03778403 47.25778927 -0.02051173 41.12890482 0 35 C-4.29 35 -8.58 35 -13 35 C-13 30.71 -13 26.42 -13 22 C-8.71 22 -4.42 22 0 22 C0 14.74 0 7.48 0 0 Z " fill="#7D6B56" transform="translate(968,1039)"/>
<path d="M0 0 C5.28 0 10.56 0 16 0 C16 7.59 16 15.18 16 23 C20.95 23 25.9 23 31 23 C31 26.96 31 30.92 31 35 C26.05 35 21.1 35 16 35 C16.09345828 41.35402308 16.1995354 47.70766167 16.31738281 54.0612793 C16.35569804 56.22332973 16.3905464 58.38544447 16.421875 60.54760742 C16.46747017 63.65306604 16.52547384 66.75808099 16.5859375 69.86328125 C16.59748871 70.83211746 16.60903992 71.80095367 16.62094116 72.79914856 C16.64081085 73.6998558 16.66068054 74.60056305 16.68115234 75.52856445 C16.69447601 76.32132278 16.70779968 77.11408112 16.7215271 77.93086243 C16.88713582 80.30603108 16.88713582 80.30603108 19 83 C21.88595946 83.58481121 21.88595946 83.58481121 25.125 83.6875 C27.06375 83.790625 29.0025 83.89375 31 84 C31 88.29 31 92.58 31 97 C27.79115216 97.08127476 24.58438239 97.14063141 21.375 97.1875 C20.47136719 97.21263672 19.56773437 97.23777344 18.63671875 97.26367188 C13.31384496 97.32195152 9.58468255 97.02775593 5 94 C1.2722729 89.86927537 -0.12682121 87.50398188 -0.11352539 81.99951172 C-0.11344986 80.95858368 -0.11337433 79.91765564 -0.11329651 78.84518433 C-0.10813522 77.71807037 -0.10297394 76.59095642 -0.09765625 75.4296875 C-0.0962413 74.27832306 -0.09482635 73.12695862 -0.09336853 71.94070435 C-0.08775716 68.25211014 -0.0752027 64.56357595 -0.0625 60.875 C-0.05748647 58.37890712 -0.05292331 55.8828133 -0.04882812 53.38671875 C-0.03778403 47.25778927 -0.02051173 41.12890482 0 35 C-3.96 35 -7.92 35 -12 35 C-12 31.04 -12 27.08 -12 23 C-8.04 23 -4.08 23 0 23 C0 15.41 0 7.82 0 0 Z " fill="#7D6B55" transform="translate(886,1039)"/>
<path d="M0 0 C5.28 0 10.56 0 16 0 C16 7.26 16 14.52 16 22 C20.95 22 25.9 22 31 22 C31 25.96 31 29.92 31 34 C26.05 34 21.1 34 16 34 C16.06883475 40.3358391 16.15678189 46.67101561 16.26245117 53.00634766 C16.2957054 55.16154636 16.32373577 57.31683226 16.34643555 59.47216797 C16.379972 62.57036497 16.43228803 65.66776255 16.48828125 68.765625 C16.49467117 69.72929993 16.5010611 70.69297485 16.50764465 71.68585205 C16.53733589 73.03679962 16.53733589 73.03679962 16.56762695 74.41503906 C16.57873001 75.20557678 16.58983307 75.9961145 16.60127258 76.81060791 C17.10360398 79.56888422 18.09430429 80.96679029 20 83 C22.72489473 83.69749589 22.72489473 83.69749589 25.6875 83.75 C27.440625 83.8325 29.19375 83.915 31 84 C31 87.96 31 91.92 31 96 C22.5194979 97.69610042 13.17676123 98.79612378 5.484375 94.14453125 C2.41347877 91.77670863 1.21258369 89.63775107 0 86 C-0.08770177 84.29716578 -0.11765393 82.59107252 -0.11352539 80.88598633 C-0.11344986 79.84513382 -0.11337433 78.80428131 -0.11329651 77.73188782 C-0.10813522 76.60993515 -0.10297394 75.48798248 -0.09765625 74.33203125 C-0.0962413 73.18208176 -0.09482635 72.03213226 -0.09336853 70.84733582 C-0.08776429 67.16903092 -0.07521104 63.49078655 -0.0625 59.8125 C-0.05748555 57.32096442 -0.05292255 54.82942789 -0.04882812 52.33789062 C-0.03779347 46.22523704 -0.02052595 40.11262879 0 34 C-3.96 34 -7.92 34 -12 34 C-12 30.04 -12 26.08 -12 22 C-8.04 22 -4.08 22 0 22 C0 14.74 0 7.48 0 0 Z " fill="#7C6A54" transform="translate(939,1179)"/>
<path d="M0 0 C5.71742588 5.09793053 8.58222675 10.68300971 9.31640625 18.26953125 C9.62569449 27.47833906 8.24544281 34.99814365 2.625 42.4375 C-1.6218617 46.58324595 -5.04376828 48.16068248 -10.9375 48.375 C-16.93918931 48.16773445 -21.168324 46.581902 -25.75 42.625 C-32.18091836 35.12226191 -33.51175155 27.96367645 -33.30078125 18.28125 C-32.48441189 9.37540238 -28.93961255 4.21573192 -22.21875 -1.50390625 C-15.15844105 -6.26464274 -6.61535272 -4.64307365 0 0 Z " fill="#FCFCFC" transform="translate(1382,1216)"/>
<path d="M0 0 C5.79162612 1.96731427 9.13328554 5.78247516 12.03515625 11.0390625 C15.91210818 18.91853565 16.07781412 26.87894394 13.75 35.3125 C11.40833911 42.18500243 8.36722081 46.34223485 2 50 C-3.98960802 51.99653601 -10.72147055 52.07712301 -16.4375 49.375 C-23.43350655 42.89089637 -26.35629105 37.39783891 -27.3203125 27.81640625 C-27.61105702 19.58833633 -26.80070318 12.1086653 -21.0234375 5.86328125 C-14.22192651 -0.23334588 -9.14266565 -0.92068998 0 0 Z " fill="#FDFDFC" transform="translate(1180,1073)"/>
<path d="M0 0 C6.41443768 2.7878133 10.31624373 7.79779717 12.92578125 14.18359375 C15.21776309 22.7549779 15.07557298 33.4375108 10.78125 41.3828125 C7.6398242 46.10885131 4.27623449 49.58637526 -1.21875 51.3828125 C-7.49103044 52.12133972 -12.69788791 51.67409567 -18.21875 48.3828125 C-24.15801039 43.08790583 -26.86858839 37.30462251 -27.5703125 29.4453125 C-27.96972767 20.85212561 -27.6564271 13.48160767 -22.21875 6.3828125 C-16.0044446 -0.29240046 -8.8278635 -2.45563809 0 0 Z " fill="#FDFDFC" transform="translate(821.21875,1212.6171875)"/>
<path d="M0 0 C5.61 0 11.22 0 17 0 C17 33.66 17 67.32 17 102 C11.39 102 5.78 102 0 102 C0 68.34 0 34.68 0 0 Z " fill="#7F6E59" transform="translate(2135,1173)"/>
<path d="M0 0 C5.61 0 11.22 0 17 0 C17 33.66 17 67.32 17 102 C11.39 102 5.78 102 0 102 C0 68.34 0 34.68 0 0 Z " fill="#7C6A54" transform="translate(688,1033)"/>
<path d="M0 0 C6.07240642 3.44062789 9.70959596 8.77013655 11.75 15.375 C12.20553446 18.48996481 12.27415569 21.54255438 12.25 24.6875 C12.24572998 25.52547119 12.24145996 26.36344238 12.23706055 27.22680664 C12.01461431 35.32526448 10.04276194 41.08223806 4.25 46.875 C-1.31067964 50.21140778 -5.81416078 51.06178491 -12.25 50.375 C-18.3940973 48.60466688 -21.77103329 45.56182309 -25.25 40.375 C-29.81746995 32.00130509 -29.72680561 20.26136366 -27.0625 11.1875 C-24.93173583 5.91084344 -20.90998188 2.48165459 -16.25 -0.625 C-10.72542882 -2.46652373 -5.33994339 -2.4419855 0 0 Z " fill="#FDFDFC" transform="translate(2013.25,1213.625)"/>
<path d="M0 0 C5.01411993 3.54389658 7.95904638 8.49230136 9.78515625 14.26171875 C10.20818372 17.04662121 10.26336613 19.76078408 10.22265625 22.57421875 C10.21363281 23.3204248 10.20460938 24.06663086 10.1953125 24.83544922 C9.97095104 32.01657402 8.82282351 37.94289919 3.84375 43.3828125 C-1.70015682 48.45706975 -5.87578482 49.69651477 -13.359375 49.59765625 C-17.89227673 49.06437369 -20.92325099 47.38164114 -24.21484375 44.26171875 C-31.1330356 35.39401149 -30.86581043 26.05878671 -30.21484375 15.26171875 C-29.18401318 8.14047635 -25.82355863 3.66856615 -20.21484375 -0.73828125 C-13.88536632 -4.56928075 -6.21002383 -3.51860197 0 0 Z " fill="#FDFDFC" transform="translate(1504.21484375,1214.73828125)"/>
<path d="M0 0 C5.28 0 10.56 0 16 0 C16 33.66 16 67.32 16 102 C10.72 102 5.44 102 0 102 C0 68.34 0 34.68 0 0 Z " fill="#7C6954" transform="translate(866,1173)"/>
<path d="M0 0 C5.32125 -0.0825 10.6425 -0.165 16.125 -0.25 C17.79320801 -0.28641602 19.46141602 -0.32283203 21.18017578 -0.36035156 C22.51854164 -0.37204587 23.85692184 -0.38223594 25.1953125 -0.390625 C25.877146 -0.41108887 26.55897949 -0.43155273 27.26147461 -0.45263672 C32.32094618 -0.45629109 35.08795405 0.86548126 39 4 C42.64517039 7.83702146 43.2912735 10.86299935 43.4375 16 C43.25733511 20.69591077 42.89153594 24.14461875 40 28 C34.51402407 32.22877311 30.75494138 33.12553037 23.92578125 33.09765625 C22.67450439 33.09515869 21.42322754 33.09266113 20.1340332 33.09008789 C17.74737427 33.07643188 17.74737427 33.07643188 15.3125 33.0625 C10.259375 33.041875 5.20625 33.02125 0 33 C0 22.11 0 11.22 0 0 Z " fill="#FEFEFE" transform="translate(706,1188)"/>
<path d="M0 0 C5.28 0 10.56 0 16 0 C16 24.42 16 48.84 16 74 C10.72 74 5.44 74 0 74 C0 49.58 0 25.16 0 0 Z " fill="#7C6A54" transform="translate(1223,1201)"/>
<path d="M0 0 C5.28 0 10.56 0 16 0 C16 24.42 16 48.84 16 74 C10.72 74 5.44 74 0 74 C0 49.58 0 25.16 0 0 Z " fill="#7C6A54" transform="translate(900,1201)"/>
<path d="M0 0 C5.28 0 10.56 0 16 0 C16 24.09 16 48.18 16 73 C10.72 73 5.44 73 0 73 C0 48.91 0 24.82 0 0 Z " fill="#7B6A54" transform="translate(929,1062)"/>
<path d="M0 0 C0.10883596 2.37625177 0.18766696 4.74743976 0.25 7.125 C0.30027344 8.12273437 0.30027344 8.12273437 0.3515625 9.140625 C0.45245194 14.28598621 -0.73761591 17.07359084 -4 21 C-8.81714204 25.01249693 -14.29010818 25.56912186 -20.37890625 25.32421875 C-25.03720131 24.7480064 -28.44397465 23.45563661 -31.9375 20.1875 C-33.37803837 17.22168571 -33.39982638 15.26524873 -33 12 C-31.02686429 7.28639803 -28.63022914 5.93185175 -24 4 C-20.7730419 3.2733885 -17.52704629 2.81393466 -14.25 2.375 C-12.54647521 2.13564076 -10.84332662 1.8935839 -9.140625 1.6484375 C-8.39329102 1.54708496 -7.64595703 1.44573242 -6.87597656 1.34130859 C-4.19008788 0.85264743 -2.87460191 0 0 0 Z " fill="#FCFCFB" transform="translate(2101,1239)"/>
<path d="M0 0 C4.4204452 2.47614682 7.70811543 5.91130326 9.875 10.5 C10.37 14.46 10.37 14.46 10.875 18.5 C-1.665 18.5 -14.205 18.5 -27.125 18.5 C-25.98303697 10.50625877 -24.3683526 6.02981503 -18 1.0625 C-12.04943244 -2.17150411 -6.21774797 -2.70907637 0 0 Z " fill="#F7F6F5" transform="translate(1799.125,1213.5)"/>
<path d="M0 0 C5.26983738 3.11087235 9.65129393 7.18265987 11.78515625 13.05078125 C11.78515625 15.03078125 11.78515625 17.01078125 11.78515625 19.05078125 C-0.42484375 19.05078125 -12.63484375 19.05078125 -25.21484375 19.05078125 C-24.18935493 9.82138184 -23.61390488 7.69467367 -17.21484375 2.05078125 C-11.98035812 -1.59060006 -5.94215671 -2.54663859 0 0 Z " fill="#F8F7F6" transform="translate(1586.21484375,1212.94921875)"/>
<path d="M0 0 C5.00634559 2.11301101 9.22139104 5.29773869 12 10 C12.66 12.97 13.32 15.94 14 19 C1.79 19 -10.42 19 -23 19 C-23 12.46305257 -22.12843365 9.81650592 -18 5 C-15.72449674 3.29581408 -13.59756321 2.22526567 -11 1 C-7.48771862 -0.75614069 -3.83296463 -0.54407313 0 0 Z " fill="#FCFCFB" transform="translate(1018,1212)"/>
<path d="M0 0 C-3.55746482 7.91040137 -12.87541519 18.6722537 -21.07226562 21.78759766 C-24.83591905 22.41834058 -28.34003706 21.9738684 -32 21 C-30.62048191 18.34202741 -29.20597777 15.71745744 -27.7265625 13.11328125 C-25.97635599 10.07372903 -25.97635599 10.07372903 -24.7109375 7.04296875 C-19.51912735 -3.09411307 -9.93888391 -0.89360595 0 0 Z " fill="#84725E" transform="translate(1034,1170)"/>
<path d="M0 0 C-3.55746482 7.91040137 -12.87541519 18.6722537 -21.07226562 21.78759766 C-24.83591905 22.41834058 -28.34003706 21.9738684 -32 21 C-30.62048191 18.34202741 -29.20597777 15.71745744 -27.7265625 13.11328125 C-25.97635599 10.07372903 -25.97635599 10.07372903 -24.7109375 7.04296875 C-19.51912735 -3.09411307 -9.93888391 -0.89360595 0 0 Z " fill="#84725E" transform="translate(1940,1170)"/>
<path d="M0 0 C5.61 0 11.22 0 17 0 C17 5.28 17 10.56 17 16 C11.39 16 5.78 16 0 16 C0 10.72 0 5.44 0 0 Z " fill="#82705B" transform="translate(900,1173)"/>
<path d="M0 0 C5.28 0 10.56 0 16 0 C16 5.28 16 10.56 16 16 C10.72 16 5.44 16 0 16 C0 10.72 0 5.44 0 0 Z " fill="#7E6C57" transform="translate(1223,1173)"/>
<path d="M0 0 C5.28 0 10.56 0 16 0 C16 5.28 16 10.56 16 16 C10.72 16 5.44 16 0 16 C0 10.72 0 5.44 0 0 Z " fill="#7E6C57" transform="translate(929,1033)"/>
</svg>
