<?xml version="1.0" encoding="UTF-8" standalone="no"?>
<!-- Created with Inkscape (http://www.inkscape.org/) -->

<svg
   width="29.754601mm"
   height="27.391264mm"
   viewBox="0 0 29.754601 27.391264"
   version="1.1"
   id="svg1752"
   inkscape:version="1.2 (dc2aedaf03, 2022-05-15)"
   sodipodi:docname="ips-logo.svg"
   xmlns:inkscape="http://www.inkscape.org/namespaces/inkscape"
   xmlns:sodipodi="http://sodipodi.sourceforge.net/DTD/sodipodi-0.dtd"
   xmlns="http://www.w3.org/2000/svg"
   xmlns:svg="http://www.w3.org/2000/svg">
  <sodipodi:namedview
     id="namedview1754"
     pagecolor="#ffffff"
     bordercolor="#000000"
     borderopacity="0.25"
     inkscape:showpageshadow="2"
     inkscape:pageopacity="0.0"
     inkscape:pagecheckerboard="0"
     inkscape:deskcolor="#d1d1d1"
     inkscape:document-units="mm"
     showgrid="false"
     inkscape:zoom="3.659624"
     inkscape:cx="198.51766"
     inkscape:cy="129.79475"
     inkscape:window-width="2560"
     inkscape:window-height="1369"
     inkscape:window-x="-8"
     inkscape:window-y="-8"
     inkscape:window-maximized="1"
     inkscape:current-layer="layer1" />
  <defs
     id="defs1749">
    <clipPath
       id="clip-5">
      <path
         clip-rule="nonzero"
         d="m 121,764 h 85 v 77.89062 h -85 z m 0,0"
         id="path417" />
    </clipPath>
    <clipPath
       id="clip-6">
      <path
         clip-rule="nonzero"
         d="m 121,768 h 85 v 73.89062 h -85 z m 0,0"
         id="path420" />
    </clipPath>
  </defs>
  <g
     inkscape:label="Layer 1"
     inkscape:groupmode="layer"
     id="layer1"
     transform="translate(-66.09641,-131.47866)">
    <g
       clip-path="url(#clip-5)"
       id="g504"
       transform="matrix(0.35277777,0,0,0.35277777,23.209107,-138.13037)">
      <path
         fill-rule="evenodd"
         fill="#006982"
         fill-opacity="1"
         d="m 121.57031,841.90625 h 84.34375 v -64.80469 c 0,-7.07031 -5.78515,-12.85547 -12.85547,-12.85547 h -58.63281 c -7.07031,0 -12.85547,5.78516 -12.85547,12.85547 z m 0,0"
         id="path502" />
    </g>
    <g
       clip-path="url(#clip-6)"
       id="g508"
       transform="matrix(0.35277777,0,0,0.35277777,23.209107,-138.13037)">
      <path
         fill-rule="evenodd"
         fill="#ffffff"
         fill-opacity="1"
         d="m 121.57031,841.90625 h 84.34375 v -61.16406 c 0,-6.67578 -5.45703,-12.13282 -12.13281,-12.13282 h -60.07813 c -6.67187,0 -12.13281,5.45704 -12.13281,12.13282 z m 0,0"
         id="path506" />
    </g>
    <path
       fill-rule="evenodd"
       fill="#ca0b5e"
       fill-opacity="1"
       d="m 81.733009,142.12401 c 0.177769,0.17638 0.177769,0.4644 0,0.64078 l -2.264117,2.26412 c -0.176389,0.17639 -0.461641,0.17364 -0.63803,-0.003 -0.177768,-0.17777 -0.177768,-0.4644 0,-0.64217 l 2.258603,-2.25722 c 0.176389,-0.17777 0.467155,-0.18053 0.643544,-0.003"
       id="path510"
       style="stroke-width:0.352778" />
    <path
       fill-rule="evenodd"
       fill="#7f73ba"
       fill-opacity="1"
       d="m 84.913523,138.97795 c 0.176389,0.17776 0.176389,0.46439 0,0.64216 l -2.264117,2.26274 c -0.176389,0.17777 -0.461645,0.17501 -0.638034,-0.003 -0.177765,-0.17639 -0.177765,-0.46302 0,-0.64079 l 2.258607,-2.2586 c 0.176389,-0.17639 0.465776,-0.17915 0.643544,-0.003"
       id="path512"
       style="stroke-width:0.352778" />
    <path
       fill-rule="evenodd"
       fill="#dccd18"
       fill-opacity="1"
       d="m 77.969587,144.57416 c 0,0.2508 -0.202572,0.45337 -0.453373,0.45337 h -3.201183 c -0.250804,0 -0.45062,-0.20257 -0.45062,-0.45337 0,-0.2508 0.203951,-0.45338 0.453375,-0.45338 h 3.194294 c 0.2508,0 0.457507,0.20258 0.457507,0.45338"
       id="path514"
       style="stroke-width:0.352778" />
    <path
       fill-rule="evenodd"
       fill="#518bd8"
       fill-opacity="1"
       d="m 83.346692,139.1061 c 0,0.25081 -0.203951,0.45338 -0.454751,0.45338 h -3.201183 c -0.250804,0 -0.449242,-0.20257 -0.449242,-0.45338 0,-0.2508 0.202572,-0.45337 0.453376,-0.45337 h 3.19429 c 0.250804,0 0.45751,0.20257 0.45751,0.45337"
       id="path516"
       style="stroke-width:0.352778" />
    <path
       fill-rule="evenodd"
       fill="#f37108"
       fill-opacity="1"
       d="m 79.433064,145.82817 c -0.250804,0 -0.453376,0.20257 -0.453376,0.45338 v 3.20118 c 0,0.25081 0.202572,0.44924 0.453376,0.44924 0.250804,0 0.453376,-0.20257 0.453376,-0.45337 v -3.19292 c 0,-0.2508 -0.202572,-0.45751 -0.453376,-0.45751"
       id="path518"
       style="stroke-width:0.352778" />
    <path
       fill-rule="evenodd"
       fill="#d02623"
       fill-opacity="1"
       d="m 84.90112,140.45107 c -0.250804,0 -0.453376,0.20395 -0.453376,0.45337 v 3.20119 c 0,0.2508 0.202572,0.45062 0.453376,0.45062 0.250803,0 0.453375,-0.20396 0.453375,-0.45338 v -3.19429 c 0,-0.25081 -0.202572,-0.45751 -0.453375,-0.45751"
       id="path520"
       style="stroke-width:0.352778" />
    <path
       fill-rule="evenodd"
       fill="#b9d511"
       fill-opacity="1"
       d="m 76.590173,141.80293 c 0,-0.25081 0.202568,-0.45338 0.453372,-0.45338 h 3.194293 c 0.250804,0 0.457507,0.20257 0.457507,0.45338 0,0.2508 -0.203948,0.45337 -0.453372,0.45337 H 77.04079 c -0.250804,0 -0.450617,-0.20257 -0.450617,-0.45337"
       id="path522"
       style="stroke-width:0.352778" />
    <path
       fill-rule="evenodd"
       fill="#f4b517"
       fill-opacity="1"
       d="m 82.204299,147.20759 c 0.250804,0 0.453373,-0.20395 0.453373,-0.45475 v -3.19292 c 0,-0.2508 -0.202569,-0.45751 -0.453373,-0.45751 -0.250804,0 -0.453376,0.20258 -0.453376,0.45338 v 3.20118 c 0,0.2508 0.202572,0.45062 0.453376,0.45062"
       id="path524"
       style="stroke-width:0.352778" />
    <path
       fill-rule="nonzero"
       fill="#a19589"
       fill-opacity="1"
       d="m 79.639771,151.62145 h -0.661459 v 3.38446 h 0.661459 z m 0,0"
       id="path526"
       style="stroke-width:0.352778" />
    <path
       fill-rule="evenodd"
       fill="#a19589"
       fill-opacity="1"
       d="m 81.974165,152.67702 c 0,0.27561 -0.190169,0.46027 -0.49058,0.46027 h -0.617361 v -0.92604 h 0.617361 c 0.300411,0 0.49058,0.19017 0.49058,0.46577 z m 0.660082,0 c 0,-0.57602 -0.417548,-1.05557 -1.117589,-1.05557 h -1.311893 v 3.38446 h 0.661459 v -1.27331 h 0.650434 c 0.700041,0 1.117589,-0.48094 1.117589,-1.05558"
       id="path528"
       style="stroke-width:0.352778" />
    <path
       fill-rule="nonzero"
       fill="#a19589"
       fill-opacity="1"
       d="m 85.211179,154.00821 c 0,-0.30041 -0.0813,-0.54708 -0.261828,-0.71796 -0.143316,-0.13367 -0.337619,-0.21911 -0.646299,-0.26183 l -0.399634,-0.0565 c -0.137802,-0.0193 -0.248045,-0.0717 -0.314191,-0.13367 -0.07166,-0.0661 -0.09922,-0.15709 -0.09922,-0.24253 0,-0.23289 0.170875,-0.42857 0.522277,-0.42857 0.223242,0 0.480935,0.0289 0.694532,0.23427 l 0.418923,-0.41479 c -0.290766,-0.27974 -0.628385,-0.39412 -1.094161,-0.39412 -0.731739,0 -1.179601,0.42306 -1.179601,1.02663 0,0.28526 0.0813,0.50437 0.242535,0.6656 0.152961,0.14745 0.366557,0.2384 0.655944,0.28112 l 0.409279,0.0565 c 0.157095,0.0248 0.232886,0.0579 0.300411,0.11989 0.07028,0.0661 0.103354,0.16536 0.103354,0.28525 0,0.2701 -0.208086,0.41755 -0.598068,0.41755 -0.314195,0 -0.603582,-0.0717 -0.818557,-0.28526 l -0.42719,0.42857 c 0.332105,0.33762 0.722091,0.44649 1.236098,0.44649 0.708311,0 1.255395,-0.3707 1.255395,-1.02664"
       id="path530"
       style="stroke-width:0.352778" />
  </g>
</svg>
