<?xml version="1.0" encoding="UTF-8" standalone="no"?>
<!-- Created with Inkscape (http://www.inkscape.org/) -->

<svg
   width="29.754601mm"
   height="27.391264mm"
   viewBox="0 0 29.754601 27.391264"
   version="1.1"
   id="svg1752"
   inkscape:version="1.3 (0e150ed6c4, 2023-07-21)"
   sodipodi:docname="ips-logo-with-text-and-background.svg"
   xml:space="preserve"
   xmlns:inkscape="http://www.inkscape.org/namespaces/inkscape"
   xmlns:sodipodi="http://sodipodi.sourceforge.net/DTD/sodipodi-0.dtd"
   xmlns="http://www.w3.org/2000/svg"
   xmlns:svg="http://www.w3.org/2000/svg"><sodipodi:namedview
     id="namedview1754"
     pagecolor="#ffffff"
     bordercolor="#000000"
     borderopacity="0.25"
     inkscape:showpageshadow="2"
     inkscape:pageopacity="0.0"
     inkscape:pagecheckerboard="0"
     inkscape:deskcolor="#d1d1d1"
     inkscape:document-units="mm"
     showgrid="false"
     inkscape:zoom="3.659624"
     inkscape:cx="167.36692"
     inkscape:cy="42.217452"
     inkscape:window-width="2560"
     inkscape:window-height="1369"
     inkscape:window-x="-8"
     inkscape:window-y="-8"
     inkscape:window-maximized="1"
     inkscape:current-layer="layer1" /><defs
     id="defs1749"><clipPath
       id="clip-5"><path
         clip-rule="nonzero"
         d="m 121,764 h 85 v 77.89062 h -85 z m 0,0"
         id="path417" /></clipPath><clipPath
       id="clip-6"><path
         clip-rule="nonzero"
         d="m 121,768 h 85 v 73.89062 h -85 z m 0,0"
         id="path420" /></clipPath></defs><g
     inkscape:label="Layer 1"
     inkscape:groupmode="layer"
     id="layer1"
     transform="translate(-66.09641,-131.47866)"><g
       clip-path="url(#clip-5)"
       id="g504"
       transform="matrix(0.35277777,0,0,0.35277777,23.209107,-138.13037)"><path
         fill-rule="evenodd"
         fill="#006982"
         fill-opacity="1"
         d="m 121.57031,841.90625 h 84.34375 v -64.80469 c 0,-7.07031 -5.78515,-12.85547 -12.85547,-12.85547 h -58.63281 c -7.07031,0 -12.85547,5.78516 -12.85547,12.85547 z m 0,0"
         id="path502" /></g><g
       clip-path="url(#clip-6)"
       id="g508"
       transform="matrix(0.35277777,0,0,0.35277777,23.209107,-138.13037)"><path
         fill-rule="evenodd"
         fill="#ffffff"
         fill-opacity="1"
         d="m 121.57031,841.90625 h 84.34375 v -61.16406 c 0,-6.67578 -5.45703,-12.13282 -12.13281,-12.13282 h -60.07813 c -6.67187,0 -12.13281,5.45704 -12.13281,12.13282 z m 0,0"
         id="path506" /></g><path
       d="m 68.033895,151.07916 c 1.45379,0 1.45379,0 1.655136,0.10855 0.0096,0.006 0.01871,0.007 0.02806,0.0137 0.223949,0.12095 0.364491,0.30947 0.442628,0.55073 0.06393,0.2419 0.03054,0.50271 -0.08436,0.7245 -0.132679,0.22714 -0.325922,0.36796 -0.57686,0.43776 -0.01241,0.002 -0.0254,0.005 -0.03834,0.009 -0.0083,0.002 -0.01655,0.006 -0.02541,0.006 -0.03681,0.007 -0.07092,0.007 -0.108691,0.007 -0.01595,0 -0.03176,0 -0.04817,0 -0.01655,0 -0.03325,-1.3e-4 -0.05038,-1.3e-4 -0.01536,0 -0.03069,0 -0.04656,0 -0.05725,0 -0.11444,-3e-4 -0.171785,-4.4e-4 -0.128013,-3.3e-4 -0.256084,-6e-4 -0.388014,-8.3e-4 0,0.37372 0,0.74747 0,1.13256 -0.193781,0 -0.387578,0 -0.587249,0 0,-0.98745 0,-1.97486 0,-2.9922 z"
       fill="#7c6b55"
       id="path2"
       style="stroke-width:0.0139823" /><path
       d="m 75.103626,145.48981 c 0.118171,0.061 0.226045,0.14295 0.270025,0.2735 0.0055,0.0178 0.01082,0.0388 0.01496,0.0585 0.0026,0.0122 0.0026,0.0122 0.0069,0.0267 0.0069,0.0301 0.0083,0.0566 0.0083,0.0879 4e-5,0.007 9.4e-5,0.0236 1.36e-4,0.0349 -2.7e-5,0.0177 -2.7e-5,0.0177 -5.4e-5,0.0381 2.7e-5,0.0137 5.4e-5,0.0267 8.3e-5,0.0403 9.6e-5,0.0448 8.2e-5,0.0901 6.9e-5,0.13508 4.2e-5,0.0321 9.7e-5,0.0645 1.35e-4,0.0965 1.24e-4,0.0877 1.5e-4,0.17525 0,0.26258 0,0.0733 5.5e-5,0.14631 1.24e-4,0.21916 1.09e-4,0.16246 0,0.32513 1.37e-4,0.48766 0,0.009 0,0.0177 0,0.0295 -1.3e-5,0.009 -1.3e-5,0.0207 -1.3e-5,0.0295 0,0.15831 1.09e-4,0.31637 0,0.47458 0,0.16244 0,0.32498 0,0.48747 0,0.0911 2.5e-5,0.18214 0,0.27351 1.24e-4,0.0861 1.24e-4,0.17171 2.5e-5,0.25757 -1.2e-5,0.0312 1.8e-5,0.0628 9.9e-5,0.0946 1.08e-4,0.0428 5.4e-5,0.086 -5.7e-5,0.12878 8.4e-5,0.0122 1.36e-4,0.0236 0,0.0375 -0.0015,0.14571 -0.0397,0.2874 -0.143489,0.39381 -0.143648,0.1083 -0.269789,0.1341 -0.447432,0.11183 -0.127755,-0.0375 -0.21547,-0.11268 -0.283464,-0.22537 -0.05038,-0.0947 -0.05421,-0.18135 -0.05421,-0.2868 -7e-5,-0.0138 -1.24e-4,-0.0267 0,-0.0414 0,-0.0457 0,-0.0916 0,-0.13726 -1.12e-4,-0.0326 0,-0.0655 0,-0.0982 0,-0.10782 0,-0.21562 -0.0015,-0.32326 -8.3e-5,-0.0372 -1.65e-4,-0.0742 0,-0.11147 0,-0.15457 0,-0.30888 0,-0.4633 -4.2e-5,-0.0399 -8.3e-5,-0.0803 -1.25e-4,-0.11998 -2.6e-5,-0.009 -2.6e-5,-0.0207 -3.7e-5,-0.0301 0,-0.16128 0,-0.32222 -0.0015,-0.48329 0,-0.1658 -0.0015,-0.33117 -0.0015,-0.49677 -3.9e-5,-0.0929 0,-0.18569 0,-0.27884 0,-0.0874 0,-0.17485 0,-0.26228 0,-0.0321 -9.4e-5,-0.0638 0,-0.0959 -0.0028,-0.37453 -0.0028,-0.37453 0.136991,-0.52297 0.136362,-0.11559 0.322323,-0.16402 0.495488,-0.10185 z"
       fill="#f78a36"
       id="path3"
       style="stroke-width:0.0139823" /><path
       d="m 77.150251,141.68317 c 0.0096,0.006 0.0191,0.007 0.02894,0.0178 0.08874,0.0586 0.161961,0.15122 0.189941,0.25488 0.02185,0.16403 0,0.29035 -0.09309,0.42734 -0.0668,0.0836 -0.144612,0.15772 -0.22067,0.23275 -0.02245,0.0236 -0.04503,0.045 -0.06748,0.0679 -0.06078,0.061 -0.121849,0.1217 -0.18295,0.18234 -0.06405,0.0638 -0.128013,0.1276 -0.191872,0.1916 -0.107342,0.10733 -0.214732,0.21444 -0.322308,0.32129 -0.110502,0.10988 -0.220758,0.21975 -0.330825,0.32998 -0.133052,0.13312 -0.266271,0.26612 -0.399593,0.39909 -0.05081,0.0507 -0.101461,0.10143 -0.152213,0.15182 -0.05968,0.0595 -0.119521,0.11937 -0.179584,0.179 -0.02185,0.0207 -0.04382,0.0438 -0.06557,0.0654 -0.299843,0.30042 -0.299843,0.30042 -0.504954,0.30296 -0.146443,-0.002 -0.239011,-0.0536 -0.344198,-0.15398 -0.04042,-0.0448 -0.06491,-0.0886 -0.08572,-0.14494 -0.0057,-0.0122 -0.01082,-0.0267 -0.01753,-0.0384 -0.02924,-0.12679 -0.01556,-0.23864 0.04547,-0.35303 0.08461,-0.13016 0.20472,-0.23659 0.314079,-0.34568 0.02216,-0.0207 0.04411,-0.0444 0.06614,-0.0662 0.05955,-0.0595 0.119253,-0.11937 0.178974,-0.179 0.06257,-0.0626 0.125156,-0.12483 0.187577,-0.18746 0.111596,-0.11159 0.223357,-0.2233 0.335096,-0.33491 0.101188,-0.10101 0.202327,-0.20233 0.303402,-0.30344 0.117612,-0.11778 0.235201,-0.23541 0.352922,-0.35304 0.06218,-0.0619 0.124469,-0.12425 0.186615,-0.18668 0.05846,-0.0585 0.116932,-0.11693 0.175448,-0.17545 0.02157,-0.0207 0.04285,-0.0428 0.06422,-0.0645 0.02924,-0.0295 0.0586,-0.0585 0.08791,-0.0877 0.0083,-0.009 0.01654,-0.0177 0.0254,-0.0267 0.167001,-0.16541 0.397489,-0.2611 0.616386,-0.12326 z"
       fill="#db0b63"
       id="path4"
       style="stroke-width:0.0139823" /><path
       d="m 80.282265,138.50396 c 0.0191,0.009 0.03767,0.0207 0.056,0.0334 0.0096,0.006 0.0195,0.009 0.02954,0.0177 0.103383,0.0682 0.161408,0.17211 0.194253,0.29006 0.01713,0.15654 -0.0191,0.26701 -0.11185,0.39154 -0.03028,0.0339 -0.06229,0.0663 -0.09462,0.0982 -0.01418,0.0138 -0.01418,0.0138 -0.02894,0.0295 -0.03175,0.032 -0.06368,0.0638 -0.09557,0.0957 -0.02274,0.0236 -0.04573,0.0457 -0.06847,0.0689 -0.06187,0.0619 -0.124055,0.12425 -0.186082,0.18628 -0.03876,0.0388 -0.07751,0.0778 -0.116238,0.11633 -0.128289,0.12858 -0.256557,0.25696 -0.384948,0.38529 -0.0067,0.006 -0.01379,0.0138 -0.02097,0.0207 -0.0069,0.006 -0.01379,0.0137 -0.02097,0.0207 -0.112264,0.11183 -0.224273,0.22448 -0.336259,0.33689 -0.115133,0.11559 -0.230329,0.23096 -0.345641,0.34623 -0.06463,0.0648 -0.12939,0.12936 -0.193918,0.19435 -0.06063,0.0608 -0.121573,0.12189 -0.182478,0.18254 -0.02245,0.0236 -0.04463,0.0445 -0.0668,0.0672 -0.03038,0.0302 -0.06094,0.061 -0.09145,0.0916 -0.0083,0.009 -0.01734,0.0178 -0.02629,0.0267 -0.05725,0.0565 -0.113661,0.0921 -0.187145,0.12406 -0.01241,0.006 -0.02422,0.009 -0.03653,0.0177 -0.103383,0.0334 -0.223712,0.0207 -0.321212,-0.0236 -0.133211,-0.08 -0.208914,-0.18215 -0.257472,-0.32786 -0.0028,-0.0322 -0.0055,-0.0646 -0.0055,-0.0969 -0.0015,-0.0177 -0.0015,-0.0343 -0.0028,-0.0518 0.01635,-0.19653 0.184821,-0.33278 0.31505,-0.46196 0.02274,-0.0236 0.04573,-0.0461 0.06872,-0.0692 0.06187,-0.0623 0.124054,-0.12406 0.1862,-0.18608 0.0586,-0.0585 0.116944,-0.11693 0.175408,-0.17544 0.122815,-0.12327 0.245835,-0.24575 0.368969,-0.36846 0.105408,-0.10515 0.210628,-0.21029 0.315628,-0.31569 0.122243,-0.12287 0.244683,-0.24545 0.367326,-0.36772 0.06474,-0.0648 0.129528,-0.12936 0.194115,-0.19435 0.06063,-0.0608 0.121732,-0.12188 0.182832,-0.18233 0.02245,-0.0236 0.04448,-0.0444 0.0668,-0.0668 0.182991,-0.18431 0.384673,-0.36371 0.662016,-0.25077 z"
       fill="#7482bf"
       id="path5"
       style="stroke-width:0.0139823" /><path
       d="m 69.878466,143.74878 c 0.01379,-6e-5 0.02747,-1e-4 0.04161,-1.8e-4 0.04588,-1.2e-4 0.09185,-1.2e-4 0.13782,-1.1e-4 0.033,-1e-4 0.06599,-1.3e-4 0.09896,-3e-4 0.08954,-3e-4 0.179053,-3e-4 0.268577,-3e-4 0.056,0 0.111851,-1e-4 0.167868,-1.6e-4 0.185196,-3e-4 0.370365,-3e-4 0.555556,-3e-4 0.01496,0 0.01496,0 0.03014,0 0.01496,0 0.01496,0 0.03028,0 0.161804,4e-5 0.32358,-3e-4 0.485357,-5.9e-4 0.166312,-4.2e-4 0.332634,-5.5e-4 0.498953,-5.5e-4 0.09325,1e-5 0.186593,-9e-5 0.279891,-3e-4 0.08777,-2.9e-4 0.175547,-2.9e-4 0.263291,-9e-5 0.03215,3e-5 0.06433,-4e-5 0.09654,-1.4e-4 0.04411,-1.6e-4 0.08801,-1.1e-4 0.131969,1.4e-4 0.01241,-1.4e-4 0.02541,-3.2e-4 0.03835,-4.7e-4 0.142347,9.9e-4 0.252126,0.0543 0.353648,0.1528 0.09683,0.11086 0.128683,0.21798 0.121987,0.36421 -0.01595,0.12446 -0.06739,0.21711 -0.160089,0.30135 -0.03573,0.0267 -0.07202,0.05 -0.111851,0.0701 -0.01398,0.006 -0.01398,0.006 -0.02806,0.0159 -0.06011,0.0177 -0.117042,0.0177 -0.179703,0.0177 -0.01397,8e-5 -0.02806,1.3e-4 -0.04246,3e-4 -0.04697,2.9e-4 -0.09392,2.9e-4 -0.140772,2.9e-4 -0.03367,1.2e-4 -0.06722,2.8e-4 -0.100895,4.5e-4 -0.09144,3.1e-4 -0.182794,5.5e-4 -0.27422,5.5e-4 -0.05725,1e-4 -0.114147,1.8e-4 -0.171372,2.9e-4 -0.158317,3.5e-4 -0.316639,6e-4 -0.474954,6e-4 -0.0096,0 -0.02038,0 -0.03067,0 -0.0099,0 -0.02038,0 -0.03067,6e-5 -0.02067,1e-5 -0.0411,1e-5 -0.06177,1e-5 -0.0096,0 -0.02038,4e-5 -0.03091,4e-5 -0.165169,7e-5 -0.330332,5.6e-4 -0.495477,7.9e-4 -0.169777,5.8e-4 -0.339533,8.2e-4 -0.509276,8.2e-4 -0.09529,4e-5 -0.190472,1.6e-4 -0.285709,6e-4 -0.08967,4.5e-4 -0.179289,4.5e-4 -0.268933,3e-4 -0.03284,-4e-5 -0.06557,1.1e-4 -0.09841,3.2e-4 -0.346927,0.002 -0.346927,0.002 -0.483718,-0.12228 -0.107755,-0.11159 -0.143332,-0.23305 -0.141796,-0.38501 0.01241,-0.12525 0.08093,-0.23039 0.172554,-0.31395 0.109262,-0.0845 0.21367,-0.10227 0.348486,-0.10164 z"
       fill="#f1df02"
       id="path6"
       style="stroke-width:0.0139823" /><path
       d="m 72.595967,140.97697 c 0.02067,-1.5e-4 0.02067,-1.5e-4 0.04177,-3.2e-4 0.04573,-1.4e-4 0.09159,-2e-5 0.137307,1.5e-4 0.033,-1e-4 0.06599,-1.5e-4 0.09887,-2.9e-4 0.08926,-3.5e-4 0.178578,-1.9e-4 0.267869,0 0.05586,7e-5 0.111742,7e-5 0.167534,1e-5 0.01379,-1e-5 0.01379,-1e-5 0.02806,-1e-5 0.0189,0 0.03763,-5e-5 0.05656,-6e-5 0.17671,-1.6e-4 0.353428,1e-5 0.530145,2.9e-4 0.151385,3.2e-4 0.302742,1.2e-4 0.454127,-5e-5 0.17608,-2.7e-4 0.35217,-4.6e-4 0.528268,-2.7e-4 0.01871,0 0.03767,3e-5 0.05642,3e-5 0.0096,0 0.0187,0 0.02807,1e-5 0.06504,5e-5 0.129923,-1e-5 0.194844,-1.4e-4 0.08748,-1.6e-4 0.175134,-3e-5 0.262642,3.1e-4 0.03215,7e-5 0.06422,2e-5 0.09624,-8e-5 0.364971,-8.1e-4 0.364971,-8.1e-4 0.51789,0.12228 0.09487,0.0943 0.142761,0.19998 0.143825,0.3333 1.06e-4,0.12759 -0.0319,0.22477 -0.116944,0.32278 -0.06257,0.0593 -0.131851,0.093 -0.211661,0.12367 -0.0096,0.006 -0.0187,0.007 -0.02807,0.0137 -0.01871,7.9e-4 -0.03751,9.9e-4 -0.05627,9.9e-4 -0.01241,5e-5 -0.02362,1.3e-4 -0.03586,2.8e-4 -0.0195,3e-5 -0.0195,3e-5 -0.03957,6e-5 -0.01379,8e-5 -0.02776,1.3e-4 -0.04188,1.4e-4 -0.04668,1.6e-4 -0.09338,3e-4 -0.140004,4.5e-4 -0.0334,1.5e-4 -0.06665,3.2e-4 -0.100076,4.8e-4 -0.10038,4.8e-4 -0.200644,5.9e-4 -0.300962,8.2e-4 -0.02836,7e-5 -0.05667,1.2e-4 -0.08503,1.4e-4 -0.176118,4.5e-4 -0.352251,6e-4 -0.528364,8.3e-4 -0.04078,6e-5 -0.08158,9e-5 -0.122401,1.6e-4 -0.0099,0 -0.02038,2e-5 -0.03082,6e-5 -0.164087,2.9e-4 -0.328151,5.5e-4 -0.492231,9.9e-4 -0.168558,5.4e-4 -0.337106,8.2e-4 -0.505677,8.2e-4 -0.09462,5e-5 -0.189172,2.9e-4 -0.283789,5.5e-4 -0.08915,4.6e-4 -0.178166,5.9e-4 -0.26725,4.6e-4 -0.03256,0 -0.06515,1.3e-4 -0.09788,4.7e-4 -0.201499,9.7e-4 -0.348073,-0.002 -0.506439,-0.13981 -0.08213,-0.0901 -0.130869,-0.2035 -0.128683,-0.32472 0.0083,-0.14848 0.05819,-0.25136 0.166313,-0.35431 0.103918,-0.0836 0.211927,-0.10903 0.342953,-0.10781 z"
       fill="#c1d72d"
       id="path7"
       style="stroke-width:0.0139823" /><path
       d="m 80.618549,140.12767 c 0.0099,0.006 0.01811,0.007 0.02717,0.0177 0.0096,0.006 0.0195,0.009 0.02954,0.0178 0.103089,0.0679 0.162215,0.17249 0.194273,0.29006 0.0041,0.0458 0.0041,0.0915 0.0041,0.13705 0,0.0137 1.66e-4,0.0266 0,0.0418 0,0.0461 1.66e-4,0.0918 1.66e-4,0.13803 1.5e-4,0.0331 0,0.0657 0,0.0989 0,0.0896 0,0.179 0,0.26879 1.4e-5,0.0557 1.5e-4,0.11182 1.5e-4,0.16817 0,0.18529 0,0.3705 0,0.55577 0,0.007 0,0.0207 0,0.0301 0,0.009 0,0.0207 0,0.03 -2.6e-5,0.16187 0,0.32378 0,0.48565 0,0.1662 0,0.33276 0,0.4991 -2.6e-5,0.0933 0,0.18668 0,0.28003 0,0.0877 0,0.17544 0,0.26345 0,0.0322 0,0.0645 0,0.0963 0,0.0444 1.51e-4,0.0881 -1.5e-4,0.13215 1.5e-4,0.0122 0,0.0267 0,0.0384 -0.0015,0.13017 -0.04807,0.25728 -0.140576,0.35132 -0.102932,0.0937 -0.210745,0.13764 -0.349828,0.13508 -0.13197,-0.009 -0.245096,-0.0713 -0.336766,-0.16639 -0.07912,-0.10185 -0.09529,-0.21798 -0.09462,-0.34353 -1.62e-4,-0.0138 0,-0.0267 0,-0.0421 0,-0.0465 0,-0.0927 0,-0.13923 -1.62e-4,-0.0334 0,-0.0664 0,-0.10006 0,-0.081 0,-0.16226 0,-0.24309 0,-0.0657 -1.62e-4,-0.13174 0,-0.19789 0,-0.18727 0,-0.37438 0,-0.56159 0,-0.009 0,-0.0207 0,-0.0306 0,-0.0138 0,-0.0138 0,-0.0302 0,-0.16344 0,-0.32687 -0.0015,-0.49034 0,-0.16816 -0.0015,-0.33622 -0.0015,-0.50435 2.8e-5,-0.0941 -1.5e-4,-0.18846 0,-0.28268 0,-0.0886 0,-0.17761 -1.5e-4,-0.26613 0,-0.0324 0,-0.065 0,-0.0972 -0.0028,-0.34333 -0.0028,-0.34333 0.125414,-0.48411 0.141245,-0.13882 0.361206,-0.19494 0.54307,-0.0956 z"
       fill="#ef3225"
       id="path8"
       style="stroke-width:0.0139823" /><path
       d="m 75.235762,138.28008 c 0.02068,-1.2e-4 0.02068,-1.2e-4 0.04174,-1.6e-4 0.04613,-1.9e-4 0.09211,-1.1e-4 0.138172,0 0.03314,-8e-5 0.06625,-1.9e-4 0.09925,-3e-4 0.08984,-2.8e-4 0.179584,-2.8e-4 0.269405,-1.6e-4 0.05614,8e-5 0.112264,0 0.16836,-7e-5 0.0096,0 0.0187,0 0.02806,-2e-5 0.0191,0 0.03793,-4e-5 0.05684,-4e-5 0.177636,-1.8e-4 0.355291,-1.4e-4 0.53292,4e-5 0.162276,1.2e-4 0.324543,-4e-5 0.486829,-2.9e-4 0.166883,-3.2e-4 0.333726,-4.6e-4 0.500609,-4.6e-4 0.09363,5e-5 0.187146,1e-5 0.280748,-1.6e-4 0.08801,-1.5e-4 0.176077,-1.5e-4 0.264117,1e-4 0.03232,6e-5 0.06447,1e-5 0.09683,-1.2e-4 0.387795,-9.9e-4 0.387795,-9.9e-4 0.544303,0.14708 0.09212,0.10259 0.120335,0.20884 0.116785,0.34519 -0.01241,0.11755 -0.05941,0.22892 -0.14471,0.31197 -0.120749,0.0896 -0.229648,0.1162 -0.377073,0.11559 -0.01379,3e-5 -0.02776,1.1e-4 -0.04188,1.6e-4 -0.04613,1.4e-4 -0.09227,1.4e-4 -0.138469,1.4e-4 -0.03314,7e-5 -0.06629,1.5e-4 -0.09939,2.6e-4 -0.08997,3.6e-4 -0.179918,3.6e-4 -0.269877,3.6e-4 -0.05628,0 -0.112423,5e-5 -0.168655,1.1e-4 -0.186024,3.2e-4 -0.372065,3.2e-4 -0.558091,3.2e-4 -0.0096,0 -0.02008,0 -0.03038,0 -0.01496,0 -0.01496,0 -0.03038,0 -0.162531,-6e-5 -0.325129,2.9e-4 -0.487702,5.7e-4 -0.167099,4.8e-4 -0.334166,6e-4 -0.501269,6e-4 -0.09378,-7e-5 -0.187481,4e-5 -0.28122,2.9e-4 -0.08817,2.6e-4 -0.176294,2.6e-4 -0.264502,6e-5 -0.03232,-5e-5 -0.06463,5e-5 -0.09694,1.3e-4 -0.04424,1.6e-4 -0.08831,1.1e-4 -0.13254,-1.3e-4 -0.0191,1.7e-4 -0.0191,1.7e-4 -0.03859,4.6e-4 -0.131025,-8.1e-4 -0.248553,-0.0552 -0.342053,-0.14708 -0.08748,-0.11585 -0.123641,-0.23277 -0.111851,-0.3775 0.02215,-0.1394 0.09051,-0.24396 0.20221,-0.32896 0.09668,-0.0562 0.178599,-0.0685 0.288249,-0.0679 z"
       fill="#4f91cd"
       id="path9"
       style="stroke-width:0.0139823" /><path
       d="m 77.931359,142.78338 c 0.114051,0.0701 0.194805,0.16601 0.233488,0.2965 0.0069,0.0302 0.0083,0.0575 0.0083,0.0886 8.2e-5,0.0122 0,0.0236 0,0.0359 2.7e-5,0.0122 4.2e-5,0.0267 8.2e-5,0.0388 6.9e-5,0.0159 0,0.0267 0,0.0418 0,0.0464 0,0.0921 0,0.13823 1.38e-4,0.0331 0,0.066 0,0.099 0,0.10879 0.0015,0.21709 0.0015,0.32585 1.2e-5,0.009 5.4e-5,0.0178 6.9e-5,0.0267 0,0.18372 0.0015,0.36747 0.0015,0.5512 6.7e-5,0.0406 1.38e-4,0.081 0,0.12155 1.3e-5,0.007 2.5e-5,0.0207 6.7e-5,0.0302 0,0.16246 0.0015,0.32468 0.0015,0.48703 0.0015,0.16678 0.0015,0.33377 0.0015,0.50064 7.1e-5,0.0938 0,0.18728 0.0015,0.28091 0,0.0881 0,0.17643 0,0.26435 0,0.0321 0,0.0646 0,0.0969 0.0015,0.19671 -0.0026,0.35809 -0.138272,0.51271 -0.02629,0.0267 -0.05245,0.0455 -0.08337,0.0651 -0.01398,0.009 -0.01398,0.009 -0.02718,0.0177 -0.111036,0.061 -0.269937,0.0556 -0.390519,0.0236 -0.121987,-0.0507 -0.206669,-0.15006 -0.263231,-0.26643 -0.04503,-0.1201 -0.02954,-0.2614 -0.02865,-0.3877 -5.8e-5,-0.0334 0,-0.0672 0,-0.10091 0,-0.0815 -7e-5,-0.16284 0,-0.24427 0,-0.095 0,-0.18963 0,-0.28473 -9.6e-5,-0.16915 0,-0.33878 0.0015,-0.50822 0,-0.16402 0,-0.32827 0,-0.4924 0,-0.17898 0,-0.35815 0,-0.53724 2.5e-5,-0.0177 5.4e-5,-0.0384 1.08e-4,-0.0573 0,-0.007 2.6e-5,-0.0177 4.1e-5,-0.0295 1.11e-4,-0.0663 9.4e-5,-0.13234 4.2e-5,-0.1982 -4.2e-5,-0.0891 0,-0.17821 0,-0.26702 1.2e-4,-0.0326 1.51e-4,-0.0651 6.9e-5,-0.0977 -9.9e-5,-0.0443 0,-0.0892 0,-0.13371 -1.11e-4,-0.0122 0,-0.0267 0,-0.0388 0.0015,-0.1274 0.0475,-0.22417 0.133369,-0.31681 0.145911,-0.13547 0.360054,-0.17604 0.543447,-0.0862 z"
       fill="#fcb930"
       id="path10"
       style="stroke-width:0.0139823" /><path
       d="m 71.405617,151.06049 c 0.02864,3e-4 0.05736,3e-4 0.08613,1.3e-4 0.321609,5.8e-4 0.634623,0.0937 0.870948,0.32007 0.0069,0.006 0.01241,0.0158 0.0195,0.0207 -0.06463,0.0773 -0.132679,0.14985 -0.203597,0.22094 -0.01575,0.0178 -0.01575,0.0178 -0.03148,0.0321 -0.0099,0.009 -0.02038,0.0207 -0.03067,0.0311 -0.01398,0.0138 -0.01398,0.0138 -0.02747,0.0267 -0.03176,0.0267 -0.05885,0.0399 -0.0983,0.0515 -0.03054,-0.0177 -0.03054,-0.0177 -0.06202,-0.0428 -0.114999,-0.0869 -0.255082,-0.13547 -0.399364,-0.13921 -0.01713,-5.9e-4 -0.03398,-8.4e-4 -0.05148,-0.002 -0.161565,-0.006 -0.312806,0.002 -0.440014,0.11475 -0.07217,0.0754 -0.08546,0.13942 -0.08954,0.24368 0.0026,0.0756 0.0069,0.1335 0.05407,0.19454 0.04424,0.0414 0.09447,0.0677 0.149496,0.0921 0.0096,0.006 0.0191,0.007 0.02924,0.0138 0.05377,0.0177 0.107063,0.0267 0.163398,0.0334 0.02452,0.002 0.04889,0.006 0.07325,0.007 0.03804,0.005 0.07626,0.009 0.114306,0.0177 0.257293,0.0355 0.558036,0.0826 0.738196,0.29034 0.169502,0.22684 0.21612,0.49361 0.177516,0.77172 -0.04243,0.2174 -0.172435,0.40234 -0.349665,0.5325 -0.331672,0.21266 -0.748274,0.25993 -1.132152,0.18255 -0.02687,-0.006 -0.05327,-0.0122 -0.07995,-0.0177 -0.0254,-0.005 -0.0254,-0.005 -0.05107,-0.0122 -0.227492,-0.0585 -0.427474,-0.17072 -0.578146,-0.35172 0.119922,-0.11997 0.239926,-0.23984 0.363532,-0.36353 0.04586,0.0236 0.08597,0.047 0.128427,0.0754 0.246249,0.15636 0.563155,0.19396 0.848551,0.13292 0.09392,-0.0295 0.180647,-0.0747 0.232455,-0.16068 0.0438,-0.0987 0.0542,-0.20558 0.02334,-0.3105 -0.03845,-0.086 -0.08297,-0.13469 -0.170093,-0.17014 -0.130474,-0.0342 -0.263055,-0.0518 -0.396738,-0.0681 -0.303181,-0.0396 -0.585566,-0.11475 -0.782991,-0.36615 -0.01241,-0.0177 -0.02481,-0.0364 -0.03669,-0.0553 -0.0055,-0.009 -0.01081,-0.0178 -0.01595,-0.0236 -0.109676,-0.19356 -0.110611,-0.4637 -0.05913,-0.67502 0.07874,-0.25255 0.239424,-0.41937 0.466643,-0.54441 0.169146,-0.0874 0.360055,-0.10479 0.547325,-0.10258 z"
       fill="#7d6b55"
       id="path11"
       style="stroke-width:0.0139823" /><path
       d="m 66.957275,151.07916 c 0.1938,0 0.387576,0 0.587234,0 0,0.98742 0,1.97487 0,2.99221 -0.193802,0 -0.387573,0 -0.587234,0 0,-0.98745 0,-1.97486 0,-2.99221 z"
       fill="#7c6b55"
       id="path12"
       style="stroke-width:0.0139823" /><path
       d="m 86.042906,152.6452 c 0.07381,0 0.147644,0 0.223712,0 0,0.47063 0,0.94123 0,1.42617 -0.06916,0 -0.13841,0 -0.209712,0 -0.0069,-0.0553 -0.0069,-0.0553 -0.01379,-0.11182 -0.0069,0.009 -0.01398,0.0207 -0.02097,0.0313 -0.06187,0.0679 -0.147506,0.10489 -0.238982,0.11268 -0.153591,0.006 -0.267899,-0.0122 -0.388439,-0.11693 -0.142663,-0.1473 -0.155403,-0.32539 -0.152587,-0.52045 0.0055,-0.14709 0.06971,-0.26228 0.175272,-0.36232 0.100075,-0.0851 0.182516,-0.10353 0.313668,-0.10006 0.130356,0.0137 0.197604,0.0585 0.298031,0.14473 0.0057,-0.166 0.0099,-0.33223 0.01398,-0.50337 z"
       fill="#7d6b56"
       id="path13"
       style="stroke-width:0.0139823" /><path
       d="m 92.404795,152.6452 c 0.07382,0 0.147645,0 0.223713,0 0.0055,0.16599 0.0096,0.33218 0.01379,0.50333 0.03682,-0.0321 0.07381,-0.0646 0.111851,-0.0979 0.09557,-0.0579 0.207259,-0.0552 0.314931,-0.0355 0.13321,0.0394 0.224834,0.11268 0.294128,0.23245 0.08036,0.16166 0.09216,0.36487 0.03943,0.53779 -0.05148,0.12976 -0.116786,0.22153 -0.24294,0.28591 -0.06778,0.0267 -0.127895,0.0334 -0.200111,0.0331 -0.01595,0 -0.01595,0 -0.0319,0 -0.115279,-0.002 -0.200438,-0.0375 -0.285357,-0.1173 -0.0069,-0.0137 -0.0069,-0.0137 -0.01398,-0.0267 -0.0055,0.0369 -0.0096,0.0739 -0.01379,0.11183 -0.06916,0 -0.138409,0 -0.20974,0 0,-0.47063 0,-0.94132 0,-1.42619 z"
       fill="#7d6b56"
       id="path14"
       style="stroke-width:0.0139823" /><path
       d="m 74.479667,152.6452 c 0.123799,-8.3e-4 0.247429,-0.002 0.374898,-0.002 0.05806,-5.7e-4 0.05806,-5.7e-4 0.117454,-9.9e-4 0.03107,-1.5e-4 0.06229,-3e-4 0.09351,-4.5e-4 0.02362,-4.3e-4 0.02362,-4.3e-4 0.0479,-8.3e-4 0.131715,0 0.258598,0.0267 0.365094,0.10928 0.100485,0.10437 0.124745,0.2171 0.125157,0.35662 -0.0028,0.12622 -0.03355,0.23305 -0.125944,0.32325 -0.150363,0.11025 -0.305111,0.1049 -0.483265,0.10143 -0.08213,-8.3e-4 -0.164382,-0.002 -0.249054,-0.002 0,0.17979 0,0.35992 0,0.54535 -0.0876,0 -0.175331,0 -0.265685,0 0,-0.47067 0,-0.94127 0,-1.42619 z"
       fill="#806e59"
       id="path15"
       style="stroke-width:0.0139823" /><path
       d="m 76.578693,153.10043 c 0.110502,0.0847 0.177498,0.18155 0.20354,0.31934 0.02274,0.18391 0,0.35989 -0.11145,0.5127 -0.0876,0.0994 -0.199463,0.1595 -0.331799,0.16857 -0.243059,0.009 -0.243059,0.009 -0.349198,-0.0579 -0.01477,-0.009 -0.02954,-0.0177 -0.04448,-0.0267 -0.107633,-0.0836 -0.177182,-0.19456 -0.202623,-0.32887 -0.02127,-0.17605 -0.0096,-0.34982 0.09599,-0.49786 0.186043,-0.21621 0.504665,-0.25017 0.740127,-0.091 z"
       fill="#7e6c57"
       id="path16"
       style="stroke-width:0.0139823" /><path
       d="m 84.364565,153.11135 c 0.09735,0.0793 0.15564,0.18017 0.182281,0.30286 0.0026,0.0448 0.0026,0.0903 0.0026,0.13547 0,0.0122 0,0.0236 0.0015,0.0364 0.0015,0.15064 -0.05107,0.26968 -0.14857,0.383 -0.146561,0.12623 -0.296925,0.14238 -0.484058,0.13291 -0.129529,-0.009 -0.224834,-0.0894 -0.30855,-0.18431 -0.108424,-0.15852 -0.114853,-0.33017 -0.09788,-0.5173 0.02687,-0.11742 0.08915,-0.21679 0.18177,-0.2936 0.211955,-0.13055 0.46367,-0.14374 0.670659,0.006 z"
       fill="#7d6c56"
       id="path17"
       style="stroke-width:0.0139823" /><path
       d="m 81.272385,151.05906 c 0.01241,1.8e-4 0.02452,1.8e-4 0.03724,3.2e-4 0.142052,0.002 0.269317,0.0416 0.370775,0.14552 0.09351,0.12228 0.13077,0.23096 0.129411,0.38362 0,0.0178 0,0.0178 0,0.0342 0,0.15182 -0.0482,0.29762 -0.157648,0.40712 -0.167395,0.11584 -0.318548,0.12741 -0.517343,0.11183 -0.120055,-0.0236 -0.218336,-0.10091 -0.288044,-0.19969 -0.06491,-0.11122 -0.08064,-0.21622 -0.08076,-0.34313 0,-0.0138 0,-0.0267 -0.0015,-0.0396 0,-0.14296 0.04832,-0.26377 0.146129,-0.36857 0.107755,-0.0987 0.216977,-0.13371 0.36093,-0.13193 z"
       fill="#7e6c56"
       id="path18"
       style="stroke-width:0.0139823" /><path
       d="m 89.075299,152.7116 c 0.09038,0.0654 0.149378,0.14452 0.169502,0.2552 0,0.0321 0,0.0646 0,0.0977 -0.08312,0 -0.166115,0 -0.251683,0 -0.0083,-0.0295 -0.0083,-0.0295 -0.01654,-0.0585 -0.02392,-0.0715 -0.05667,-0.11743 -0.125157,-0.1528 -0.05341,-0.0178 -0.102448,-0.0178 -0.157982,-0.0178 -0.01536,-3e-4 -0.01536,-3e-4 -0.03134,-5.7e-4 -0.07927,0 -0.137111,0.0177 -0.198576,0.0696 -0.02481,0.0524 -0.02481,0.10227 -0.01595,0.1591 0.03507,0.0617 0.07612,0.0836 0.139828,0.11183 0.03589,0.009 0.07118,0.0178 0.107487,0.0267 0.418598,0.0947 0.418598,0.0947 0.535689,0.24043 0.0069,0.009 0.01379,0.0178 0.02068,0.0267 0.05543,0.0869 0.04546,0.19732 0.0352,0.29606 -0.02687,0.10964 -0.09777,0.20174 -0.192029,0.26228 -0.193663,0.10353 -0.403337,0.11049 -0.614827,0.0595 -0.124467,-0.0388 -0.226813,-0.11402 -0.297747,-0.22418 -0.03847,-0.0903 -0.056,-0.16718 -0.056,-0.26584 0.08312,0 0.166115,0 0.251683,0 0.0028,0.0178 0.0069,0.0381 0.01081,0.0577 0.01832,0.0804 0.04778,0.13193 0.113613,0.18371 0.113929,0.0638 0.238391,0.072 0.365174,0.0428 0.05642,-0.0207 0.09211,-0.0406 0.13473,-0.0828 0.02629,-0.0642 0.03014,-0.11876 0.0193,-0.18707 -0.02747,-0.0557 -0.05766,-0.0733 -0.114465,-0.0927 -0.02245,-0.005 -0.0449,-0.0122 -0.06723,-0.0178 -0.01871,-0.005 -0.03722,-0.0159 -0.056,-0.0207 -0.05107,-0.0177 -0.102417,-0.0295 -0.155008,-0.0401 -0.165327,-0.0359 -0.321844,-0.0833 -0.418256,-0.23305 -0.0478,-0.095 -0.04532,-0.22064 -0.01595,-0.32148 0.03643,-0.0791 0.08422,-0.13331 0.155543,-0.18195 0.0083,-0.006 0.01595,-0.009 0.02422,-0.0177 0.203421,-0.12661 0.50472,-0.0918 0.70123,0.0267 z"
       fill="#7e6c56"
       id="path19"
       style="stroke-width:0.0139823" /><path
       d="m 94.404242,153.10658 c 0.06395,0.0654 0.08505,0.12996 0.08681,0.21917 0,0.0177 0,0.0177 0.0015,0.0388 0,0.0138 0,0.0267 0,0.0416 0,0.0159 0,0.0295 0.0015,0.0429 0.0015,0.0452 0.0015,0.0905 0.0028,0.13587 0,0.0308 0.0015,0.0615 0.0015,0.0921 0.0015,0.0754 0.0028,0.15064 0.0041,0.22596 0.03232,0.006 0.06463,0.009 0.09788,0.0137 0,0.0508 0,0.10164 0,0.15379 -0.08282,0.0331 -0.149514,0.0399 -0.237682,0.0267 -0.0397,-0.0178 -0.05489,-0.035 -0.08395,-0.0699 0,-0.0157 0,-0.0266 0,-0.0419 -0.0067,0.005 -0.01379,0.009 -0.02067,0.0159 -0.0096,0.006 -0.01871,0.0122 -0.02836,0.0177 -0.01398,0.009 -0.01398,0.009 -0.02747,0.0177 -0.0908,0.0497 -0.169818,0.0681 -0.273069,0.0664 -0.01081,1.5e-4 -0.02097,3.3e-4 -0.03202,4.7e-4 -0.08844,-4.7e-4 -0.164934,-0.0178 -0.237062,-0.0707 -0.01082,-0.0122 -0.01082,-0.0122 -0.02274,-0.0236 -0.01081,-0.0122 -0.01081,-0.0122 -0.02362,-0.0235 -0.0479,-0.0632 -0.05269,-0.12228 -0.05338,-0.20056 0,-0.0178 -0.0015,-0.0356 -0.0015,-0.0541 0.0099,-0.0775 0.0494,-0.13133 0.109517,-0.18017 0.106382,-0.0754 0.245539,-0.0797 0.371404,-0.0956 0.07325,-0.007 0.132384,-0.0177 0.196616,-0.0557 0.02127,-0.0425 0.01713,-0.0791 0.01398,-0.12583 -0.02097,-0.0337 -0.0411,-0.0418 -0.07694,-0.0585 -0.08559,-0.0207 -0.177674,-0.0295 -0.258653,0.009 -0.05233,0.037 -0.05233,0.037 -0.08395,0.13193 -0.07845,0 -0.156901,0 -0.237683,0 0.01457,-0.1173 0.03398,-0.17367 0.115266,-0.25519 0.209505,-0.1335 0.486771,-0.13547 0.695635,0.002 z"
       fill="#7f6d58"
       id="path20"
       style="stroke-width:0.0139823" /><path
       d="m 68.621148,151.61049 c 0.105007,-9.9e-4 0.209946,-0.002 0.318102,-0.006 0.03274,-5.6e-4 0.06557,-7.9e-4 0.09927,-9.9e-4 0.31292,-0.002 0.31292,-0.002 0.43822,0.10227 0.08297,0.0815 0.124468,0.19435 0.130079,0.30969 -0.0055,0.1162 -0.04764,0.22804 -0.132796,0.30759 -0.117479,0.078 -0.219134,0.10227 -0.358607,0.10038 -0.01241,0 -0.02512,0 -0.03805,-1.6e-4 -0.04669,-1.3e-4 -0.09322,-4.2e-4 -0.139886,-8.2e-4 -0.104486,-5.7e-4 -0.208792,-8e-4 -0.316352,-9.9e-4 0,-0.26759 0,-0.53521 0,-0.81096 z"
       fill="#fefdfd"
       id="path21"
       style="stroke-width:0.0139823" /><path
       d="m 87.231387,153.07862 c 0.118439,0.0791 0.179525,0.18904 0.223712,0.32158 0,0.0738 0,0.1477 0,0.2236 -0.249172,0 -0.49831,0 -0.755023,0 0.02776,0.14415 0.02776,0.14415 0.118852,0.24988 0.0827,0.0372 0.174976,0.0455 0.2627,0.0207 0.07394,-0.0325 0.102302,-0.0725 0.13585,-0.14473 0.07379,0 0.147645,0 0.223711,0 -0.03901,0.13882 -0.09654,0.22477 -0.217538,0.30441 -0.08146,0.041 -0.159676,0.0502 -0.249112,0.0498 -0.01081,-1.5e-4 -0.02097,-1.5e-4 -0.03176,-3.2e-4 -0.147388,-0.002 -0.243414,-0.0517 -0.350197,-0.15241 -0.114306,-0.12155 -0.137247,-0.27823 -0.133878,-0.43926 0.0069,-0.14354 0.05914,-0.26021 0.157607,-0.36342 0.0069,-0.007 0.01496,-0.0177 0.02274,-0.0236 0.162138,-0.15635 0.405634,-0.15242 0.59255,-0.0455 z"
       fill="#7f6d58"
       id="path22"
       style="stroke-width:0.0139823" /><path
       d="m 79.320955,153.0826 c 0.12309,0.0836 0.191672,0.2165 0.220256,0.35955 0,0.0599 0,0.11997 0,0.18157 -0.249144,0 -0.498326,0 -0.755038,0 0.03091,0.15733 0.03091,0.15733 0.132797,0.26465 0.0924,0.0295 0.19069,0.0327 0.279626,-0.005 0.03465,-0.0301 0.03465,-0.0301 0.0479,-0.0595 0.01654,-0.0321 0.02747,-0.0504 0.05683,-0.0724 0.07077,-0.009 0.138763,-0.006 0.20974,0 -0.01516,0.12404 -0.07325,0.20084 -0.167809,0.27971 -0.132226,0.0821 -0.281397,0.089 -0.43344,0.0701 -0.113929,-0.0295 -0.209149,-0.0937 -0.275047,-0.19101 -0.09172,-0.16089 -0.116944,-0.34351 -0.07902,-0.52579 0.0479,-0.14237 0.144022,-0.25994 0.273482,-0.33632 0.161565,-0.0754 0.338339,-0.05 0.489437,0.0365 z"
       fill="#806e59"
       id="path23"
       style="stroke-width:0.0139823" /><path
       d="m 90.167653,153.06467 c 0.12309,0.0902 0.225572,0.20942 0.251653,0.3635 0.0028,0.0605 0.0041,0.12106 0,0.18175 -0.01379,0.0138 -0.01379,0.0138 -0.04436,0.0178 -0.01398,0 -0.02688,0 -0.04053,-1.5e-4 -0.01496,0 -0.03024,0 -0.04586,0 -0.02452,-1.5e-4 -0.02452,-1.5e-4 -0.04983,-1.5e-4 -0.01654,0 -0.0334,0 -0.05066,0 -0.05366,-1.5e-4 -0.107476,-3.2e-4 -0.161114,-4.3e-4 -0.03628,0 -0.07258,-1.6e-4 -0.108995,-1.6e-4 -0.08925,-1.9e-4 -0.17846,-4.9e-4 -0.267721,-5.9e-4 0.0083,0.0267 0.01734,0.0541 0.02629,0.0813 0.0055,0.0138 0.0096,0.03 0.01477,0.0457 0.02304,0.0638 0.05146,0.0969 0.105725,0.13627 0.0876,0.03 0.178068,0.03 0.265684,0 0.05269,-0.0381 0.0842,-0.0754 0.104874,-0.13705 0.07381,0 0.147643,0 0.223711,0 -0.02008,0.11937 -0.06982,0.19572 -0.164087,0.27204 -0.130868,0.0892 -0.283789,0.095 -0.437165,0.0773 -0.04817,-0.0122 -0.08475,-0.0295 -0.125827,-0.0557 -0.0096,-0.005 -0.0195,-0.0122 -0.02985,-0.0178 -0.109262,-0.0754 -0.159321,-0.16225 -0.193899,-0.28857 -0.0028,-0.009 -0.0057,-0.0177 -0.0069,-0.0267 -0.03669,-0.16207 -0.0099,-0.32983 0.07035,-0.47247 0.05407,-0.085 0.113918,-0.13923 0.202652,-0.18648 0.0083,-0.005 0.01674,-0.009 0.02569,-0.0159 0.131832,-0.0619 0.31341,-0.0476 0.435893,0.0295 z"
       fill="#7f6d58"
       id="path24"
       style="stroke-width:0.0139823" /><path
       d="m 76.556025,151.05906 c 0.01241,1.8e-4 0.02569,3.2e-4 0.03901,3.2e-4 0.122951,0.002 0.210983,0.0236 0.302673,0.1089 0.06504,0.072 0.08477,0.11937 0.08477,0.21858 -0.07845,0 -0.156881,0 -0.237683,0 -0.01379,-0.0267 -0.02776,-0.0553 -0.04202,-0.0839 -0.03424,-0.0364 -0.05164,-0.0414 -0.101724,-0.047 -0.01713,3.3e-4 -0.03383,4.7e-4 -0.05122,5.6e-4 -0.0254,1.9e-4 -0.0254,1.9e-4 -0.05107,1.9e-4 -0.04832,0.002 -0.09586,0.007 -0.131557,0.0461 -0.0069,0.0401 -0.0069,0.0401 0,0.0839 0.05914,0.0638 0.129784,0.074 0.211484,0.091 0.02629,0.005 0.05285,0.0122 0.07941,0.0177 0.01241,0.002 0.0251,0.006 0.0382,0.009 0.131969,0.0313 0.232601,0.0736 0.313314,0.18548 0.02629,0.0815 0.03067,0.15675 0.0015,0.23807 -0.05752,0.10781 -0.140655,0.16068 -0.253693,0.20146 -0.06913,0.0178 -0.134589,0.0178 -0.205132,0.0178 -0.01379,2.9e-4 -0.02629,5.5e-4 -0.03957,7.8e-4 -0.126103,4.7e-4 -0.240401,-0.0337 -0.333948,-0.12131 -0.06614,-0.0795 -0.07654,-0.14591 -0.07654,-0.24842 0.07381,0 0.147646,0 0.223713,0 0.01241,0.0313 0.02452,0.0629 0.03684,0.0942 0.02509,0.0418 0.0442,0.0544 0.08899,0.0737 0.0397,0.006 0.07871,0.006 0.118852,0.006 0.01082,1.5e-4 0.02067,3.2e-4 0.03163,4.7e-4 0.06366,-3.2e-4 0.105397,-0.006 0.157137,-0.0478 0.0195,-0.0388 0.01734,-0.0685 0.01379,-0.11182 -0.0612,-0.0756 -0.170664,-0.0891 -0.260958,-0.10807 -0.274426,-0.0585 -0.274426,-0.0585 -0.349993,-0.16206 -0.05245,-0.0938 -0.06133,-0.1654 -0.03215,-0.26908 0.0586,-0.1009 0.130611,-0.14886 0.241522,-0.17957 0.06177,-0.0159 0.121849,-0.0159 0.18494,-0.0159 z"
       fill="#7f6d58"
       id="path25"
       style="stroke-width:0.0139823" /><path
       d="m 78.995908,151.07916 c 0.07845,0 0.156898,0 0.237682,0 0,0.0207 0,0.0428 0,0.0654 0.0015,0.08 0.0015,0.16008 0.0026,0.24014 0,0.0349 0.0015,0.0692 0.0015,0.10395 0,0.0497 0.0015,0.1 0.0015,0.14946 1.47e-4,0.0177 0,0.0308 0,0.0467 0.0015,0.0946 0.0057,0.17485 0.07419,0.24662 0.07449,0.0372 0.170387,0.0236 0.247192,-5.9e-4 0.05451,-0.0409 0.08353,-0.0881 0.104874,-0.15201 0.0015,-0.0236 0.0028,-0.0458 0.0028,-0.0689 0,-0.0138 0,-0.0295 0.0015,-0.0425 0,-0.0235 0,-0.0235 0,-0.0457 0,-0.0178 0,-0.031 0.0015,-0.047 0.0015,-0.0493 0.0015,-0.0989 0.0028,-0.14828 0,-0.0337 0.0015,-0.0672 0.0015,-0.10038 0.0015,-0.0822 0.0026,-0.16422 0.0041,-0.24633 0.07845,0 0.156881,0 0.237713,0 0,0.34602 0,0.6921 0,1.04864 -0.07845,0 -0.156901,0 -0.237713,0 -0.0069,-0.0553 -0.0069,-0.0553 -0.01379,-0.11182 -0.0069,0.006 -0.01417,0.0137 -0.02157,0.0207 -0.0096,0.009 -0.0191,0.0178 -0.02924,0.0267 -0.0099,0.009 -0.0187,0.0178 -0.02836,0.0267 -0.069,0.0509 -0.136637,0.0559 -0.220552,0.0556 -0.02629,1.4e-4 -0.02629,1.4e-4 -0.05327,1.4e-4 -0.08734,-0.006 -0.16003,-0.0237 -0.223683,-0.0857 -0.09284,-0.11244 -0.104485,-0.25757 -0.101314,-0.39757 1.5e-4,-0.0267 1.5e-4,-0.0267 0,-0.0509 0,-0.0531 0.0015,-0.10575 0.0026,-0.15891 0,-0.036 0,-0.0724 0.0015,-0.10879 0.0015,-0.0881 0.0015,-0.17643 0.0028,-0.26435 z"
       fill="#816f5a"
       id="path26"
       style="stroke-width:0.0139823" /><path
       d="m 75.73458,151.0818 c 0.08036,0.0448 0.150165,0.11523 0.179702,0.20439 0.0069,0.0375 0.0069,0.0728 0.0069,0.11146 0,0.0235 0,0.0235 0,0.0489 -8.5e-5,0.0177 -1.37e-4,0.0349 0,0.0527 -1.5e-5,0.0178 -5.4e-5,0.036 -7e-5,0.0543 -5.4e-5,0.0477 0,0.095 0,0.14277 -1.37e-4,0.0485 0,0.0969 0,0.14551 -1.49e-4,0.095 0,0.19061 0,0.28562 -0.07845,0 -0.156859,0 -0.237682,0 0,-0.0207 0,-0.0438 0,-0.0665 -0.0015,-0.0815 -0.0015,-0.16322 -0.0028,-0.24485 0,-0.035 -0.0015,-0.0704 -0.0015,-0.10574 0,-0.0508 -0.0015,-0.10164 -0.0015,-0.15242 -9.7e-5,-0.0177 0,-0.0313 0,-0.0478 -0.0015,-0.0842 -0.0069,-0.14768 -0.04873,-0.22211 -0.06133,-0.0476 -0.150323,-0.036 -0.223712,-0.0267 -0.06916,0.0323 -0.102134,0.0742 -0.139828,0.13981 -0.01398,0.0401 -0.01635,0.0673 -0.01674,0.10952 0,0.0159 0,0.0267 -0.0015,0.0418 0,0.0207 0,0.0207 0,0.0448 0,0.0138 0,0.03 -0.0015,0.0457 -0.0015,0.0483 -0.0015,0.0969 -0.0028,0.14533 0,0.0327 -0.0015,0.0655 -0.0015,0.0982 -0.0015,0.0804 -0.0026,0.16088 -0.0041,0.2416 -0.07381,0 -0.147644,0 -0.223712,0 0,-0.34604 0,-0.69214 0,-1.04865 0.06926,0 0.13841,0 0.209713,0 0.02865,0.0295 0.02363,0.0881 0.02806,0.12581 0.0096,-0.009 0.01851,-0.0207 0.02806,-0.0306 0.01398,-0.0137 0.02776,-0.0266 0.04188,-0.0392 0.01081,-0.009 0.01081,-0.009 0.02127,-0.0207 0.102018,-0.0803 0.27543,-0.0727 0.394789,-0.0331 z"
       fill="#7e6c57"
       id="path27"
       style="stroke-width:0.0139823" /><path
       d="m 81.580863,153.05684 c 0.06969,0.0509 0.113613,0.10782 0.14156,0.18962 0.0028,0.0396 0.0028,0.0396 0.0028,0.0836 0,0.0178 0,0.0331 0,0.05 -1.53e-4,0.0178 0,0.0355 0,0.0537 0,0.0177 -1.53e-4,0.0364 -1.53e-4,0.0553 -1.49e-4,0.0483 0,0.0965 0,0.14474 0,0.0492 0,0.0987 0,0.14808 0,0.0965 -0.0015,0.19317 -0.0015,0.28975 -0.07379,0 -0.147644,0 -0.223711,0 0,-0.0207 0,-0.0432 0,-0.0654 -0.0015,-0.08 -0.0015,-0.16029 -0.0028,-0.24072 0,-0.0349 -0.0015,-0.0695 -0.0015,-0.10395 0,-0.0499 -0.0015,-0.1 -0.0015,-0.14966 -1.38e-4,-0.0177 0,-0.031 0,-0.047 -0.0015,-0.078 -0.0026,-0.13763 -0.04873,-0.2041 -0.05725,-0.0518 -0.103498,-0.065 -0.178382,-0.0612 -0.069,0.0122 -0.114866,0.0458 -0.162434,0.0972 -0.03284,0.0495 -0.03847,0.0869 -0.03957,0.14513 0,0.0138 0,0.0295 -0.0015,0.0421 0,0.0138 0,0.0301 0,0.0458 0,0.0178 0,0.031 -0.0015,0.0468 -0.0015,0.0493 -0.0015,0.0989 -0.0028,0.14828 0,0.0334 -0.0015,0.0672 -0.0015,0.10038 -0.0015,0.0822 -0.0028,0.16423 -0.0041,0.24634 -0.07845,0 -0.15684,0 -0.237683,0 0,-0.3414 0,-0.68284 0,-1.03462 0.07379,0 0.147646,0 0.223742,0 0.0055,0.0416 0.0096,0.0828 0.01379,0.12582 0.01398,-0.0138 0.02718,-0.0301 0.0411,-0.0455 0.132954,-0.13055 0.325225,-0.15517 0.488481,-0.0603 z"
       fill="#7e6c56"
       id="path28"
       style="stroke-width:0.0139823" /><path
       d="m 91.244275,153.03666 c 0.07845,0 0.1569,0 0.237683,0 0,0.0207 0,0.0441 0,0.0664 0.0015,0.0819 0.0015,0.16363 0.0028,0.24545 0,0.0355 0.0015,0.0707 0.0015,0.10611 0,0.0508 0.0015,0.10164 0.0015,0.1528 1.5e-4,0.0177 0,0.0313 0,0.0478 0.0015,0.0921 0.0069,0.16344 0.07435,0.23215 0.06778,0.0356 0.156446,0.0267 0.228969,0.007 0.06394,-0.03 0.08557,-0.0753 0.111596,-0.13666 0.02067,-0.0655 0.02008,-0.13057 0.02008,-0.19908 0,-0.0137 0,-0.0301 0,-0.0455 0,-0.0476 0.0015,-0.095 0.0015,-0.14276 0,-0.0324 0.0015,-0.065 0.0015,-0.0974 0.0015,-0.0793 0.0015,-0.15831 0.0028,-0.23748 0.07381,0 0.147665,0 0.223713,0 0,0.34144 0,0.68286 0,1.03468 -0.07382,0 -0.147644,0 -0.223713,0 -0.0069,-0.0553 -0.0069,-0.0553 -0.01379,-0.11182 -0.0099,0.0137 -0.0099,0.0137 -0.0191,0.0308 -0.07297,0.0781 -0.151759,0.11183 -0.259185,0.11754 -0.124586,9.8e-4 -0.221053,-0.0236 -0.314082,-0.10879 -0.0701,-0.12131 -0.08652,-0.22448 -0.08406,-0.36411 1.5e-4,-0.0178 1.5e-4,-0.0342 0,-0.0519 0,-0.0543 0.0015,-0.10878 0.0015,-0.16343 0,-0.0369 0,-0.074 0.0015,-0.1111 0,-0.0903 0.0015,-0.18096 0.0028,-0.27144 z"
       fill="#7e6c56"
       id="path29"
       style="stroke-width:0.0139823" /><path
       d="m 83.208918,153.08999 c 0.07793,0.0638 0.129923,0.12935 0.163398,0.22624 0,0.0236 0,0.0461 0,0.0701 -0.07845,0 -0.156879,0 -0.237711,0 -0.0057,-0.0178 -0.01106,-0.0349 -0.01595,-0.0524 -0.02274,-0.0608 -0.05189,-0.085 -0.110077,-0.11559 -0.07653,-0.0267 -0.152488,-0.0236 -0.227197,0.006 -0.06707,0.0375 -0.108714,0.1 -0.129923,0.17308 -0.02629,0.12268 -0.02334,0.28089 0.03176,0.39431 0.03355,0.0504 0.07148,0.0836 0.127875,0.10807 0.09721,0.007 0.174032,0.007 0.253426,-0.0531 0.03735,-0.0526 0.05435,-0.1055 0.06995,-0.16777 0.07845,0 0.156901,0 0.237684,0 -0.02215,0.14236 -0.06352,0.25077 -0.178915,0.34245 -0.134708,0.0921 -0.289579,0.0972 -0.447158,0.0703 -0.121162,-0.0355 -0.214585,-0.10637 -0.279743,-0.21387 -0.08381,-0.15457 -0.09871,-0.33416 -0.05725,-0.5049 0.04283,-0.13292 0.115,-0.24545 0.239722,-0.31238 0.175862,-0.0822 0.397613,-0.0869 0.559912,0.0295 z"
       fill="#7e6c57"
       id="path30"
       style="stroke-width:0.0139823" /><path
       d="m 80.475393,153.08912 c 0.089,0.0638 0.134039,0.13352 0.156428,0.24132 0,0.0177 0,0.037 0,0.0559 -0.07381,0 -0.147644,0 -0.223712,0 -0.0069,-0.0177 -0.01496,-0.0349 -0.02274,-0.0524 -0.02865,-0.0574 -0.0597,-0.0847 -0.117041,-0.1156 -0.07216,-0.0236 -0.141304,-0.0236 -0.213224,9.9e-4 -0.07612,0.0518 -0.123092,0.12046 -0.150324,0.20794 -0.0057,0.0392 -0.0057,0.0773 -0.0057,0.11741 0,0.009 0,0.0207 0,0.032 0.0028,0.0972 0.02067,0.17189 0.07134,0.25489 0.0538,0.0508 0.111852,0.0736 0.185255,0.0769 0.07367,-0.002 0.13197,-0.0267 0.185255,-0.0778 0.03049,-0.049 0.0479,-0.0965 0.0664,-0.15104 0.07382,0 0.147645,0 0.223712,0 -0.02245,0.15595 -0.06355,0.24427 -0.18177,0.34956 -0.04053,0.0236 -0.08051,0.0421 -0.125827,0.0556 -0.0083,0.002 -0.01635,0.005 -0.02452,0.009 -0.132542,0.0267 -0.293065,0.0236 -0.40892,-0.05 -0.08967,-0.0664 -0.156978,-0.13233 -0.19575,-0.23777 -0.0041,-0.009 -0.0083,-0.0177 -0.01241,-0.0267 -0.0601,-0.1471 -0.0438,-0.32988 0.01241,-0.47579 0.06546,-0.13192 0.145537,-0.21296 0.28054,-0.27085 0.168478,-0.0556 0.349745,-0.0344 0.499858,0.0575 z"
       fill="#7e6c57"
       id="path31"
       style="stroke-width:0.0139823" /><path
       d="m 80.212341,150.77155 c 0.07845,0 0.1569,0 0.237712,0 0,0.10164 0,0.2032 0,0.30761 0.06926,0 0.13843,0 0.209711,0 0,0.0601 0,0.11997 0,0.18175 -0.06926,0 -0.138409,0 -0.209711,0 0.0015,0.091 0.0028,0.18235 0.0055,0.27321 0,0.031 0.0015,0.0619 0.0015,0.093 0,0.0444 0.0015,0.0891 0.0026,0.13352 0,0.0138 0,0.0267 0,0.0421 0,0.0122 0,0.0267 0.0015,0.0388 0,0.009 0,0.0236 0,0.0342 0.0015,0.031 0.0015,0.031 0.0319,0.0557 0.03725,0.006 0.03725,0.006 0.0786,0.009 0.02481,9.8e-4 0.04957,0.002 0.07514,0.005 0,0.0601 0,0.11997 0,0.18174 -0.04424,9.9e-4 -0.08859,0.002 -0.132798,0.006 -0.01241,5.9e-4 -0.02481,8.3e-4 -0.03751,9.8e-4 -0.07775,8.4e-4 -0.130906,-0.009 -0.197717,-0.05 -0.0761,-0.0847 -0.07106,-0.1918 -0.06942,-0.29873 0,-0.0137 1.55e-4,-0.03 0,-0.0455 0,-0.0478 0.0015,-0.0956 0.0015,-0.14296 0,-0.0327 0,-0.065 0,-0.0974 0,-0.0795 0.0015,-0.15871 0.0015,-0.23807 -0.05532,0 -0.110768,0 -0.167769,0 0,-0.0553 0,-0.11086 0,-0.16777 0.0553,0 0.110769,0 0.167769,0 0,-0.10587 0,-0.21237 0,-0.32157 z"
       fill="#806e59"
       id="path32"
       style="stroke-width:0.0139823" /><path
       d="m 90.643044,152.72908 c 0.07845,0 0.156899,0 0.237685,0 0,0.10164 0,0.20319 0,0.30758 0.06926,0 0.138448,0 0.209709,0 0,0.0553 0,0.11086 0,0.16777 -0.06914,0 -0.13841,0 -0.209709,0 0.0015,0.091 0.0028,0.18176 0.0028,0.27262 0,0.031 0.0015,0.0616 0.0015,0.0927 0,0.0443 0.0015,0.0888 0.0015,0.13312 1.47e-4,0.0138 0,0.0267 0,0.0421 0,0.0178 0,0.0178 0.0015,0.0388 1.49e-4,0.009 0,0.0236 0,0.0342 0.0069,0.0366 0.01791,0.0489 0.04754,0.0711 0.03818,0.009 0.03818,0.009 0.07953,0.009 0.02452,9.8e-4 0.04898,0.002 0.07421,0.006 0,0.0552 0,0.11062 0,0.16777 -0.105154,0.0353 -0.246633,0.0266 -0.349556,-0.0138 -0.0612,-0.0585 -0.09421,-0.1162 -0.100201,-0.20115 -0.0015,-0.0406 -0.0015,-0.081 0,-0.12154 0,-0.0138 1.51e-4,-0.0295 1.51e-4,-0.0448 1.62e-4,-0.047 0,-0.094 0.0015,-0.14098 1.52e-4,-0.0319 0,-0.0638 0,-0.0958 0,-0.078 0.0015,-0.15634 0.0015,-0.23452 -0.0553,0 -0.11077,0 -0.167789,0 0,-0.0601 0,-0.11997 0,-0.18176 0.0553,0 0.11077,0 0.167789,0 0,-0.10164 0,-0.20319 0,-0.30758 z"
       fill="#7f6d58"
       id="path33"
       style="stroke-width:0.0139823" /><path
       d="m 78.408651,150.77155 c 0.07381,0 0.147646,0 0.223713,0 0,0.10612 0,0.21236 0,0.32159 0.06914,0 0.138429,0 0.209741,0 0,0.0553 0,0.11085 0,0.16776 -0.06916,0 -0.13841,0 -0.209741,0 0.0015,0.0888 0.0026,0.17743 0.0026,0.26643 0,0.03 0.0015,0.0605 0.0015,0.0906 0,0.0435 0.0015,0.0869 0.0015,0.13015 9.6e-5,0.0159 0,0.0267 0,0.0411 0,0.0177 0,0.0177 0.0015,0.0381 0,0.007 0,0.0236 0,0.0333 0.0069,0.036 0.01871,0.0487 0.04752,0.0709 0.0382,0.009 0.0382,0.009 0.07956,0.009 0.02452,9.9e-4 0.04898,0.002 0.07422,0.006 0,0.0601 0,0.11998 0,0.18176 -0.04228,8.3e-4 -0.08448,9.8e-4 -0.126655,0.002 -0.01241,2.9e-4 -0.02362,5.9e-4 -0.03589,8.3e-4 -0.07817,8.3e-4 -0.131852,-0.009 -0.20094,-0.0458 -0.05285,-0.0569 -0.07173,-0.0911 -0.07148,-0.16777 0,-0.0138 0,-0.0295 0,-0.0439 6.8e-5,-0.0177 1.37e-4,-0.0313 0,-0.0478 1.3e-5,-0.0177 4.2e-5,-0.0321 5.4e-5,-0.0487 8.3e-5,-0.0518 0,-0.103 0,-0.15477 8.3e-5,-0.0349 1.39e-4,-0.0701 0,-0.10479 1.51e-4,-0.0857 0,-0.17132 0,-0.25696 -0.05997,0 -0.119922,0 -0.181769,0 0,-0.0601 0,-0.11998 0,-0.18157 0.05995,0 0.119922,0 0.181769,0 0,-0.10164 0,-0.20321 0,-0.30764 z"
       fill="#7d6b56"
       id="path34"
       style="stroke-width:0.0139823" /><path
       d="m 77.26211,150.77155 c 0.07381,0 0.147665,0 0.223712,0 0,0.10612 0,0.21236 0,0.32159 0.06926,0 0.13843,0 0.209741,0 0,0.0553 0,0.11085 0,0.16776 -0.06927,0 -0.13841,0 -0.209741,0 0.0015,0.0888 0.0026,0.17743 0.0055,0.26643 0,0.03 0.0015,0.0605 0.0015,0.0906 0,0.0435 0.0015,0.0869 0.0028,0.13015 0,0.0159 0,0.0267 0,0.0411 0,0.0122 0,0.0236 0.0015,0.0381 0,0.007 0,0.0236 0,0.0333 0.0026,0.0331 0.0026,0.0331 0.0319,0.0709 0.04041,0.009 0.04041,0.009 0.08571,0.009 0.02719,9.9e-4 0.0542,0.002 0.08213,0.006 0,0.0601 0,0.11998 0,0.18176 -0.0449,8.3e-4 -0.08967,9.8e-4 -0.134589,0.002 -0.01241,2.9e-4 -0.02509,5.9e-4 -0.03833,8.3e-4 -0.07449,5.4e-4 -0.126497,-0.002 -0.190651,-0.0458 -0.05204,-0.0579 -0.07159,-0.091 -0.07148,-0.16777 0,-0.0138 0,-0.0295 0,-0.0439 7.2e-5,-0.0177 1.25e-4,-0.0313 0,-0.0478 1.5e-5,-0.0177 4.2e-5,-0.0321 5.6e-5,-0.0487 6.9e-5,-0.0518 0,-0.103 0,-0.15477 6.9e-5,-0.0349 1.36e-4,-0.0701 0,-0.10479 1.52e-4,-0.0857 0,-0.17132 0,-0.25696 -0.05533,0 -0.110769,0 -0.167808,0 0,-0.0552 0,-0.11086 0,-0.16778 0.05532,0 0.110769,0 0.167808,0 0,-0.10612 0,-0.21237 0,-0.3216 z"
       fill="#7d6b55"
       id="path35"
       style="stroke-width:0.0139823" /><path
       d="m 78.003168,152.72908 c 0.07381,0 0.147665,0 0.223712,0 0,0.10164 0,0.20319 0,0.30758 0.06926,0 0.13845,0 0.209742,0 0,0.0553 0,0.11086 0,0.16777 -0.06916,0 -0.13841,0 -0.209742,0 0.0015,0.0886 0.0028,0.17722 0.0028,0.26583 0,0.0301 0.0015,0.0603 0.0015,0.0903 0,0.0435 0.0015,0.0869 0.0015,0.12996 9.7e-5,0.0159 0,0.0267 0,0.0408 0,0.0178 0,0.0178 0.0015,0.0381 0,0.009 0,0.0207 0,0.0334 0.0069,0.0386 0.02067,0.0578 0.04753,0.0864 0.03806,0.009 0.03806,0.009 0.07956,0.009 0.02452,8.4e-4 0.04898,0.002 0.07421,0.002 0,0.0553 0,0.11085 0,0.16777 -0.118559,0.0236 -0.249201,0.0388 -0.356739,-0.0267 -0.04297,-0.0331 -0.0597,-0.0629 -0.07667,-0.11401 -0.0015,-0.0236 -0.0015,-0.0476 -0.0015,-0.0715 0,-0.0138 0,-0.0295 0,-0.0439 8.1e-5,-0.0178 1.37e-4,-0.0312 0,-0.0476 1.1e-5,-0.0177 5.4e-5,-0.0323 5.4e-5,-0.0487 8.3e-5,-0.0514 0,-0.10279 0,-0.15418 8.3e-5,-0.0349 1.54e-4,-0.0696 0,-0.10458 0,-0.0857 0,-0.17071 0,-0.25637 -0.0553,0 -0.110757,0 -0.167769,0 0,-0.0553 0,-0.11086 0,-0.16777 0.05532,0 0.110769,0 0.167769,0 0,-0.10164 0,-0.20321 0,-0.30762 z"
       fill="#7c6a54"
       id="path36"
       style="stroke-width:0.0139823" /><path
       d="m 84.19727,153.24641 c 0.07995,0.0711 0.119921,0.14945 0.130197,0.25549 0.0041,0.12878 -0.01496,0.23394 -0.09351,0.33792 -0.05939,0.0579 -0.10722,0.08 -0.189646,0.0828 -0.08394,-0.002 -0.143056,-0.0236 -0.207113,-0.0803 -0.08997,-0.10479 -0.108556,-0.20497 -0.105566,-0.34036 0.01082,-0.12427 0.06094,-0.19672 0.15495,-0.27676 0.09871,-0.0664 0.218159,-0.0438 0.310672,0.0207 z"
       fill="#fcfcfc"
       id="path37"
       style="stroke-width:0.0139823" /><path
       d="m 81.372863,151.24699 c 0.08105,0.0267 0.127756,0.081 0.1683,0.15457 0.05421,0.11012 0.05657,0.22153 0.02392,0.33937 -0.03273,0.0963 -0.07533,0.15419 -0.164303,0.20529 -0.08381,0.0267 -0.17787,0.0295 -0.257767,-0.007 -0.09775,-0.0908 -0.138684,-0.16738 -0.152172,-0.30146 -0.0041,-0.11474 0.0069,-0.21976 0.08801,-0.30696 0.09516,-0.0855 0.166114,-0.095 0.293948,-0.0822 z"
       fill="#fdfdfc"
       id="path38"
       style="stroke-width:0.0139823" /><path
       d="m 76.356346,153.19907 c 0.08967,0.0388 0.144238,0.10903 0.180704,0.19849 0.03215,0.11997 0.03014,0.26907 -0.02999,0.38032 -0.04395,0.066 -0.09092,0.11462 -0.167808,0.13981 -0.08775,0.009 -0.160504,0.002 -0.237712,-0.0419 -0.08312,-0.0742 -0.120907,-0.15477 -0.13073,-0.26492 -0.0057,-0.12034 -0.0015,-0.22331 0.0749,-0.32245 0.08693,-0.0933 0.187225,-0.12347 0.310685,-0.0892 z"
       fill="#fdfdfc"
       id="path39"
       style="stroke-width:0.0139823" /><path
       d="m 94.72584,152.6452 c 0.07845,0 0.15686,0 0.237684,0 0,0.47063 0,0.94123 0,1.42617 -0.07845,0 -0.156899,0 -0.237684,0 0,-0.47068 0,-0.94131 0,-1.42617 z"
       fill="#7f6e59"
       id="path40"
       style="stroke-width:0.0139823" /><path
       d="m 74.493648,150.68769 c 0.07845,0 0.156899,0 0.237683,0 0,0.47062 0,0.94126 0,1.4262 -0.07845,0 -0.15688,0 -0.237683,0 0,-0.47069 0,-0.94132 0,-1.4262 z"
       fill="#7c6a54"
       id="path41"
       style="stroke-width:0.0139823" /><path
       d="m 93.023508,153.2132 c 0.08489,0.0483 0.13583,0.12287 0.164284,0.21503 0.0069,0.0433 0.0069,0.0862 0.0069,0.13016 0,0.0122 -1.5e-4,0.0235 0,0.0355 -0.0026,0.11341 -0.03067,0.19376 -0.111704,0.27469 -0.07778,0.0467 -0.140714,0.0585 -0.230713,0.0489 -0.08585,-0.0235 -0.133074,-0.0673 -0.181768,-0.13981 -0.0638,-0.11693 -0.06258,-0.28118 -0.02541,-0.40809 0.02985,-0.0739 0.08599,-0.12169 0.151169,-0.1652 0.07721,-0.0267 0.152527,-0.0267 0.227197,0.009 z"
       fill="#fdfdfc"
       id="path42"
       style="stroke-width:0.0139823" /><path
       d="m 85.906102,153.22878 c 0.0701,0.0497 0.111316,0.11876 0.136795,0.19938 0.0055,0.0387 0.0069,0.0769 0.0055,0.11644 -1.61e-4,0.009 0,0.0207 0,0.0317 -0.0028,0.10038 -0.0191,0.18313 -0.08885,0.25933 -0.07751,0.0709 -0.13581,0.0881 -0.240519,0.0869 -0.06339,-0.005 -0.105725,-0.031 -0.15178,-0.0747 -0.09683,-0.12404 -0.09296,-0.2546 -0.08395,-0.40546 0.01457,-0.0997 0.06133,-0.16186 0.139828,-0.22359 0.08844,-0.0537 0.19579,-0.0388 0.282638,0.009 z"
       fill="#fdfdfc"
       id="path43"
       style="stroke-width:0.0139823" /><path
       d="m 76.982479,152.6452 c 0.07379,0 0.147644,0 0.22371,0 0,0.47063 0,0.94123 0,1.42617 -0.07381,0 -0.147644,0 -0.22371,0 0,-0.47068 0,-0.94131 0,-1.42617 z"
       fill="#7c6954"
       id="path44"
       style="stroke-width:0.0139823" /><path
       d="m 74.745336,152.8549 c 0.07449,-8.2e-4 0.148807,-0.002 0.225455,-0.002 0.02334,-4.6e-4 0.04668,-8.1e-4 0.07077,-9.8e-4 0.01871,-1.6e-4 0.03751,-2.9e-4 0.05614,-4.4e-4 0.0099,-3e-4 0.0193,-6.1e-4 0.02894,-8.4e-4 0.07077,0 0.109359,0.0177 0.164108,0.0623 0.05096,0.0538 0.06012,0.096 0.06218,0.16778 -0.0028,0.0655 -0.0069,0.11401 -0.04807,0.16775 -0.07667,0.0591 -0.129254,0.0715 -0.224717,0.0715 -0.01734,0 -0.03506,0 -0.05299,-1.7e-4 -0.0334,-1.4e-4 -0.0334,-1.4e-4 -0.06748,-2.9e-4 -0.07064,-3e-4 -0.141303,-5.5e-4 -0.21411,-8.3e-4 0,-0.15241 0,-0.30453 0,-0.46138 z"
       fill="#fefefe"
       id="path45"
       style="stroke-width:0.0139823" /><path
       d="m 81.97411,153.03666 c 0.07379,0 0.147644,0 0.22371,0 0,0.34145 0,0.68291 0,1.03471 -0.07381,0 -0.147644,0 -0.22371,0 0,-0.34144 0,-0.68289 0,-1.03471 z"
       fill="#7c6a54"
       id="path46"
       style="stroke-width:0.0139823" /><path
       d="m 77.457872,153.03666 c 0.07382,0 0.147645,0 0.223712,0 0,0.34145 0,0.68291 0,1.03471 -0.07379,0 -0.147645,0 -0.223712,0 0,-0.34144 0,-0.68289 0,-1.03471 z"
       fill="#7c6a54"
       id="path47"
       style="stroke-width:0.0139823" /><path
       d="m 77.863355,151.09314 c 0.07379,0 0.147642,0 0.223711,0 0,0.33685 0,0.67368 0,1.02075 -0.07381,0 -0.147645,0 -0.223711,0 0,-0.33686 0,-0.67369 0,-1.02075 z"
       fill="#7b6a54"
       id="path48"
       style="stroke-width:0.0139823" /><path
       d="m 94.250432,153.56798 c 0.0015,0.0334 0.0028,0.0664 0.0028,0.1 0,0.0138 0,0.0138 0.0015,0.0295 0.0015,0.0721 -0.01536,0.11085 -0.06094,0.16601 -0.06739,0.0562 -0.143864,0.0638 -0.229028,0.0606 -0.06515,-0.007 -0.112837,-0.0267 -0.161606,-0.0718 -0.02008,-0.0414 -0.02038,-0.0687 -0.01496,-0.11462 0.02776,-0.0657 0.06105,-0.085 0.125826,-0.11182 0.04503,-0.007 0.09051,-0.0178 0.136362,-0.0236 0.02392,-0.002 0.04764,-0.006 0.07148,-0.007 0.01082,-8.4e-4 0.02067,-0.002 0.03176,-0.005 0.03751,-0.006 0.056,-0.0177 0.09611,-0.0177 z"
       fill="#fcfcfb"
       id="path49"
       style="stroke-width:0.0139823" /><path
       d="m 90.029577,153.21148 c 0.06187,0.0349 0.107755,0.0826 0.138055,0.14669 0.0069,0.0553 0.0069,0.0553 0.01379,0.11184 -0.175331,0 -0.350651,0 -0.531321,0 0.01595,-0.11171 0.03859,-0.17427 0.127599,-0.2437 0.08323,-0.045 0.164757,-0.0526 0.251686,-0.0138 z"
       fill="#f7f6f5"
       id="path50"
       style="stroke-width:0.0139823" /><path
       d="m 87.052632,153.20376 c 0.07367,0.0433 0.135004,0.10038 0.164757,0.18253 0,0.0266 0,0.0553 0,0.0839 -0.170723,0 -0.341446,0 -0.517328,0 0.01417,-0.12917 0.02245,-0.15872 0.11185,-0.23778 0.07325,-0.0508 0.157648,-0.0639 0.240697,-0.0295 z"
       fill="#f8f7f6"
       id="path51"
       style="stroke-width:0.0139823" /><path
       d="m 79.107746,153.19051 c 0.06995,0.0295 0.128997,0.0739 0.167809,0.13962 0.0096,0.0414 0.01871,0.0832 0.02807,0.12581 -0.170723,0 -0.341435,0 -0.517327,0 0,-0.0916 0.01241,-0.1284 0.06995,-0.19593 0.03176,-0.0237 0.06148,-0.0386 0.09788,-0.0556 0.04915,-0.0235 0.100202,-0.0207 0.153827,-0.0138 z"
       fill="#fcfcfb"
       id="path52"
       style="stroke-width:0.0139823" /><path
       d="m 79.331468,152.60323 c -0.04971,0.11049 -0.180036,0.26111 -0.294629,0.30463 -0.05269,0.009 -0.101609,0.002 -0.152785,-0.009 0.0191,-0.0368 0.03901,-0.0739 0.05984,-0.11012 0.02452,-0.0421 0.02452,-0.0421 0.04218,-0.085 0.07258,-0.14177 0.206552,-0.11111 0.345517,-0.0982 z"
       fill="#84725e"
       id="path53"
       style="stroke-width:0.0139823" /><path
       d="m 91.999313,152.60323 c -0.04982,0.11049 -0.180018,0.26111 -0.294629,0.30463 -0.05257,0.009 -0.101609,0.002 -0.152805,-0.009 0.0191,-0.0368 0.03901,-0.0739 0.0597,-0.11012 0.02452,-0.0421 0.02452,-0.0421 0.04214,-0.085 0.07258,-0.14177 0.20655,-0.11111 0.345498,-0.0982 z"
       fill="#84725e"
       id="path54"
       style="stroke-width:0.0139823" /><path
       d="m 77.457872,152.6452 c 0.07845,0 0.156899,0 0.237683,0 0,0.0738 0,0.14768 0,0.22359 -0.07845,0 -0.156898,0 -0.237683,0 0,-0.0738 0,-0.14768 0,-0.22359 z"
       fill="#82705b"
       id="path55"
       style="stroke-width:0.0139823" /><path
       d="m 81.97411,152.6452 c 0.07379,0 0.147644,0 0.22371,0 0,0.0738 0,0.14768 0,0.22359 -0.07381,0 -0.147644,0 -0.22371,0 0,-0.0738 0,-0.14768 0,-0.22359 z"
       fill="#7e6c57"
       id="path56"
       style="stroke-width:0.0139823" /><path
       d="m 77.863355,150.68769 c 0.07379,0 0.147642,0 0.223711,0 0,0.0739 0,0.14767 0,0.22358 -0.07381,0 -0.147645,0 -0.223711,0 0,-0.0739 0,-0.14768 0,-0.22358 z"
       fill="#7e6c57"
       id="path57"
       style="stroke-width:0.0139823" /></g></svg>
